<svg id="Layer_1" data-name="Layer 1" xmlns="http://www.w3.org/2000/svg" viewBox="0 0 240 60"><defs><style>.cls-1{fill:none;stroke:#231f20;stroke-miterlimit:10;stroke-width:0.72px;}.cls-2{fill:#a90533;}.cls-3{fill:#231f20;}</style></defs><line class="cls-1" x1="107.22" y1="27.58" x2="107.22" y2="9.58"/><path class="cls-2" d="M41.49,21.64a12.26,12.26,0,0,0-2.49.94,1.89,1.89,0,0,0-1,1.77A1.49,1.49,0,0,0,39.3,26a1.77,1.77,0,0,0,.4,0,3.15,3.15,0,0,0,1.79-.52V21.65Zm-2.71,5.94c-3.07,0-3.3-2.32-3.3-3a3,3,0,0,1,2.17-3c2-.74,2.45-.82,3.84-1.26V20a3.16,3.16,0,0,0-.14-1.26,2,2,0,0,0-2.07-1.3,2.47,2.47,0,0,0-2.16,1.18l-.12.23-.57-.34.06-.17a3.75,3.75,0,0,1,3.81-2.38,3.53,3.53,0,0,1,3.24,1.42,5.69,5.69,0,0,1,.51,2.93v4.37c0,.8.12,1.42.79,1.42a.5.5,0,0,0,.37-.12l.18-.15.37.42-.12.16a2.71,2.71,0,0,1-2.23,1.26,1.67,1.67,0,0,1-1.74-1.14,3.76,3.76,0,0,1-2.82,1.16Z"/><path class="cls-2" d="M20.06,27.56A11.54,11.54,0,0,1,16.33,27h-.17V23.76h.66V24a2.23,2.23,0,0,0,.51,1.37,3.76,3.76,0,0,0,2.61.87c2.16,0,3.16-.82,3.16-2.57,0-1.5-.93-2.12-2.21-3l-.2-.15-1.35-.9c-1.88-1.24-2.84-2.24-2.84-4.23,0-1,.37-4.16,5.11-4.16a22.82,22.82,0,0,1,3.5.27h.21v3.3H24.7v-.22a2,2,0,0,0-.55-1.36,3.85,3.85,0,0,0-2.53-.67c-2.51,0-2.8,1.29-2.8,2.25,0,1.34.68,1.79,2.17,2.77l1.72,1.14c1.46,1,2.83,1.89,2.83,4.31,0,4.09-3.82,4.54-5.46,4.54Z"/><path class="cls-2" d="M31.28,27.63c-1.75,0-2.71-.63-3.14-2A9.58,9.58,0,0,1,28,23.3V17.58H26.51v-.44l.15-.06a4.38,4.38,0,0,0,1.26-.72,8.4,8.4,0,0,0,1.86-2.29l.25-.43h.49v2.54h3.85v1.4H30.52v5.94c0,1.77.33,2.78,2,2.78A3.32,3.32,0,0,0,33.91,26l.23-.12.2.46-.1.11a3.66,3.66,0,0,1-3,1.19Z"/><path class="cls-2" d="M46.66,27.48V27h.22a1.47,1.47,0,0,0,1-.47c.35-.39.37-1.35.37-3.27V20A5.23,5.23,0,0,0,48,17.71a1.33,1.33,0,0,0-1-.39h-.31v-.65h.43a12.24,12.24,0,0,0,2-.22,3.62,3.62,0,0,0,1.2-.4l.12-.06.23.14V17A5.52,5.52,0,0,1,54,15.9c2,0,3.37,1,3.75,2.68a11.16,11.16,0,0,1,.15,2v3.3c0,1.86.07,2.39.42,2.71a1.55,1.55,0,0,0,.88.32h.22v.52h-.56c-.81,0-1.51-.07-2.24-.07s-1.56,0-2.57.09h-.26V27H54a1.63,1.63,0,0,0,.94-.38c.37-.37.38-1.24.41-2V22.23q0-1.29-.09-2.58a2.13,2.13,0,0,0-2.1-2.16l-.3,0a4.47,4.47,0,0,0-2.12.47v5.94c0,1.86.08,2.39.43,2.71A1.52,1.52,0,0,0,52,27h.22v.52h-.6c-.78,0-1.46-.07-2.17-.07s-1.59,0-2.6.09h-.22Z"/><path class="cls-2" d="M60.75,27.48v-.54H61a1.52,1.52,0,0,0,1-.47c.35-.39.36-1.34.36-3.26V17.6H60.87V17l.15-.06a6,6,0,0,0,1.32-.7,21.47,21.47,0,0,1,.17-3c.45-2.33,2-3.52,4.54-3.52a4.55,4.55,0,0,1,2.76.87l.08.07v.24l-1.12,1.56H68.5l-.06-.14A2,2,0,0,0,66.53,11a1.7,1.7,0,0,0-1.14.41c-.49.49-.57,1.22-.57,2.66v2.18h2.52v1.4H64.86V23.9a5.94,5.94,0,0,0,.25,2.51c.31.48,1.27.51,1.56.51h.23v.6h-.25c-1.24-.07-2.17-.09-2.83-.09-.84,0-1.8,0-2.81.09h-.26Z"/><path class="cls-2" d="M73.89,17.18a2.36,2.36,0,0,0-1.6.51c-.91.76-1.36,2.15-1.36,4.12,0,.76.14,4.56,2.92,4.56a2.49,2.49,0,0,0,1.6-.51c.91-.76,1.37-2.15,1.37-4.12C76.82,21,76.67,17.18,73.89,17.18Zm-.14,10.49c-3.45,0-5.51-2.14-5.51-5.74,0-2.8,1.51-6.06,5.75-6.06,3.45,0,5.51,2.15,5.51,5.75,0,2.79-1.51,6-5.75,6Z"/><path class="cls-2" d="M80.59,27.48v-.57h.22a1.52,1.52,0,0,0,1-.47c.35-.39.37-1.32.37-3.24V20A5.23,5.23,0,0,0,82,17.71a1.3,1.3,0,0,0-1-.39h-.31v-.68h.43a12.24,12.24,0,0,0,2-.22,5.69,5.69,0,0,0,1.21-.32l.13-.06.2.11v1A3.75,3.75,0,0,1,87.26,16a2.78,2.78,0,0,1,1.9.63l.07.08v.35l-1,1.75h-.46l-.07-.11a2,2,0,0,0-1.82-.91,2.06,2.06,0,0,0-1.23.36v5.69a6.16,6.16,0,0,0,.24,2.49c.32.47,1.28.51,1.56.51h.24v.62h-.25c-1.24-.07-2.17-.09-2.84-.09-.84,0-1.79,0-2.8.09h-.26Z"/><path class="cls-2" d="M95.75,17.25c-2.21,0-3.28,1.51-3.28,4.61,0,1.25.36,4.18,3.64,4.18h.1A3.4,3.4,0,0,0,98,25.57V18a3.09,3.09,0,0,0-2.25-.76Zm2.6,10.39-.3-.1v-1a5.36,5.36,0,0,1-3.16,1.06c-3.1,0-5.1-2.15-5.1-5.49a7.39,7.39,0,0,1,.61-3,5.65,5.65,0,0,1,5.39-3.22A11.73,11.73,0,0,1,98,16.1V13.7a6.2,6.2,0,0,0-.22-2.46,1.3,1.3,0,0,0-1-.39h-.29v-.5h.24A22,22,0,0,0,99.15,10a6.07,6.07,0,0,0,1.12-.26h.11l.2.12V10c-.08.93-.09,2.92-.09,4.41v9.21a6.45,6.45,0,0,0,.22,2.51,1.34,1.34,0,0,0,1,.41H102v.6h-.24a16.12,16.12,0,0,0-2.19.24,5.64,5.64,0,0,0-1.15.26h-.07Z"/><path class="cls-3" d="M113,25.91l1.15-1.41a4.63,4.63,0,0,0,3.15,1.28c1.3,0,2-.59,2-1.49s-.76-1.25-1.82-1.7l-1.6-.7a3.35,3.35,0,0,1-2.38-3.11c0-1.89,1.66-3.35,4-3.35a5.31,5.31,0,0,1,3.66,1.46L120,18.29a3.86,3.86,0,0,0-2.5-1c-1.1,0-1.8.5-1.8,1.35s.88,1.23,1.86,1.64l1.58.65a3.26,3.26,0,0,1,2.38,3.18c0,1.91-1.59,3.52-4.25,3.52A5.88,5.88,0,0,1,113,25.91Z"/><path class="cls-3" d="M123,21.57c0-3.86,2.42-6.14,5.41-6.14a4.62,4.62,0,0,1,3.4,1.49l-1.14,1.32a3,3,0,0,0-2.23-.94c-1.87,0-3.24,1.58-3.24,4.21s1.24,4.27,3.21,4.27a3.21,3.21,0,0,0,2.48-1.13L132,25.92a4.69,4.69,0,0,1-3.72,1.72C125.36,27.64,123,25.47,123,21.57Z"/><path class="cls-3" d="M134,15.64h2.14v4.72h4.69V15.64H143V27.42h-2.14V22.23h-4.69v5.19H134Z"/><path class="cls-3" d="M145.34,21.48c0-3.8,2.13-6,5.2-6s5.21,2.25,5.21,6-2.13,6.16-5.21,6.16S145.34,25.29,145.34,21.48Zm8.21,0c0-2.61-1.19-4.18-3-4.18s-3,1.57-3,4.18,1.17,4.3,3,4.3S153.55,24.11,153.55,21.48Z"/><path class="cls-3" d="M157.49,21.48c0-3.8,2.13-6,5.21-6s5.2,2.25,5.2,6-2.13,6.16-5.2,6.16S157.49,25.29,157.49,21.48Zm8.21,0c0-2.61-1.19-4.18-3-4.18s-3,1.57-3,4.18,1.17,4.3,3,4.3,3-1.67,3-4.3Z"/><path class="cls-3" d="M170.25,15.64h2.15v10h4.86v1.8h-7Z"/><path class="cls-3" d="M182.91,15.64h2.28l3.53,6.49a23.58,23.58,0,0,1,1.21,2.66H190c-.12-1.26-.27-2.7-.27-4V15.64h2V27.42h-2.29l-3.53-6.48a26.56,26.56,0,0,1-1.2-2.67h-.07c.12,1.23.27,2.69.27,4v5.15h-2Z"/><path class="cls-3" d="M197,15.64h2.52l3.82,11.78h-2.27l-.9-3.15h-3.91l-.9,3.15h-2.18Zm-.25,7h2.95l-.39-1.4c-.38-1.24-.72-2.59-1.07-3.87h-.07c-.3,1.29-.65,2.63-1,3.87Z"/><path class="cls-3" d="M204.78,15.64h2.52l2,5.77c.26.75.47,1.44.69,2.3h.07c.22-.86.4-1.55.65-2.3l2-5.77h2.52V27.42h-2V22.05a34.75,34.75,0,0,1,.32-3.81h-.07l-.94,2.84-1.91,5.26h-1.4l-1.87-5.26-.94-2.84h-.07a34.75,34.75,0,0,1,.32,3.81v5.37h-1.94Z"/><path class="cls-3" d="M218.22,15.64h7.11v1.8h-5v3h4.21v1.8h-4.21v3.42h5.15v1.8h-7.3Z"/><path class="cls-3" d="M16.26,45.67v-10h2.51A4.64,4.64,0,0,1,22.31,37a5.22,5.22,0,0,1,1.21,3.69,6.7,6.7,0,0,1-.31,2.13,4.26,4.26,0,0,1-.9,1.59,4,4,0,0,1-1.47,1,5.47,5.47,0,0,1-2,.34Zm1.27-1h1.15a3.26,3.26,0,0,0,2.64-1,4.54,4.54,0,0,0,.88-3,4.26,4.26,0,0,0-.88-2.92,3.3,3.3,0,0,0-2.64-1H17.53Z"/><path class="cls-3" d="M28.55,45.86a3.71,3.71,0,0,1-1.4-.27A3.39,3.39,0,0,1,26,44.82a3.64,3.64,0,0,1-.76-1.21A4.65,4.65,0,0,1,25,42a4.36,4.36,0,0,1,.28-1.64A3.75,3.75,0,0,1,26,39.12a3.36,3.36,0,0,1,1.06-.77,3.11,3.11,0,0,1,2.5,0,2.33,2.33,0,0,1,.94.7,3.3,3.3,0,0,1,.57,1.1,5,5,0,0,1,.2,1.44V42a1.82,1.82,0,0,1,0,.33h-5A2.87,2.87,0,0,0,27,44.2a2.29,2.29,0,0,0,1.73.7,3.08,3.08,0,0,0,1-.16,4.69,4.69,0,0,0,.87-.43l.44.83a7.37,7.37,0,0,1-1.09.54A3.88,3.88,0,0,1,28.55,45.86Zm-2.34-4.5h4a2.7,2.7,0,0,0-.48-1.72,1.66,1.66,0,0,0-1.36-.59,2,2,0,0,0-.76.15,2.1,2.1,0,0,0-.65.45,2.57,2.57,0,0,0-.48.73A3.32,3.32,0,0,0,26.21,41.36Z"/><path class="cls-3" d="M33.11,48.81V38.24h1l.11.85h0a5.91,5.91,0,0,1,1.11-.73,2.89,2.89,0,0,1,1.26-.31,2.84,2.84,0,0,1,1.28.27,2.42,2.42,0,0,1,.91.77,3.51,3.51,0,0,1,.56,1.19,5.92,5.92,0,0,1,.19,1.57,5.1,5.1,0,0,1-.26,1.69,4,4,0,0,1-.7,1.26,3,3,0,0,1-1,.79,2.86,2.86,0,0,1-1.22.27,2.61,2.61,0,0,1-1-.23,6.47,6.47,0,0,1-1-.63v3.81Zm3.08-4A1.77,1.77,0,0,0,37,44.6a2,2,0,0,0,.68-.58,2.89,2.89,0,0,0,.44-.92,4.31,4.31,0,0,0,.16-1.24,6,6,0,0,0-.1-1.12,2.4,2.4,0,0,0-.35-.86,1.57,1.57,0,0,0-.61-.56,1.88,1.88,0,0,0-.9-.2,2,2,0,0,0-1,.26,5.23,5.23,0,0,0-1,.75V44a3.17,3.17,0,0,0,1,.6,2.46,2.46,0,0,0,.84.2Z"/><path class="cls-3" d="M43.06,45.86a2.25,2.25,0,0,1-1.55-.55,2,2,0,0,1-.62-1.57A2,2,0,0,1,42,41.87,9.07,9.07,0,0,1,45.47,41a3.23,3.23,0,0,0-.07-.69,1.82,1.82,0,0,0-.23-.6,1.36,1.36,0,0,0-.47-.42,1.68,1.68,0,0,0-.76-.16,3.12,3.12,0,0,0-1.21.25,6.49,6.49,0,0,0-1,.55L41.24,39a8.44,8.44,0,0,1,1.27-.65,4.13,4.13,0,0,1,1.66-.32,2.26,2.26,0,0,1,2,.84,3.63,3.63,0,0,1,.61,2.22v4.56h-1l-.11-.88h0a6.68,6.68,0,0,1-1.15.75A3,3,0,0,1,43.06,45.86Zm.37-1a2.07,2.07,0,0,0,1-.26,4.55,4.55,0,0,0,1-.74V41.8a12,12,0,0,0-1.57.29,4.51,4.51,0,0,0-1,.39,1.61,1.61,0,0,0-.57.53,1.24,1.24,0,0,0-.17.65,1,1,0,0,0,.38.92,1.54,1.54,0,0,0,.93.27Z"/><path class="cls-3" d="M48.94,45.67V38.24h1l.11,1.34h0A3.43,3.43,0,0,1,51,38.47a1.92,1.92,0,0,1,1.19-.42,1.8,1.8,0,0,1,.79.16l-.24,1.1-.34-.09H52a1.59,1.59,0,0,0-1,.38,3.12,3.12,0,0,0-.9,1.33V45.7Z"/><path class="cls-3" d="M57.24,45.86a2.47,2.47,0,0,1-1-.19,1.71,1.71,0,0,1-.66-.5,1.92,1.92,0,0,1-.36-.78,4.79,4.79,0,0,1-.11-1V39.27H54v-1l1.16-.07.16-2.08h1v2.08h2v1h-2v4.13a2,2,0,0,0,.25,1.07,1,1,0,0,0,.9.37,1.54,1.54,0,0,0,.43-.06,2.83,2.83,0,0,0,.41-.14l.25,1a5.12,5.12,0,0,1-.67.19A3.3,3.3,0,0,1,57.24,45.86Z"/><path class="cls-3" d="M60.05,45.67V38.24h1l.11,1.07h0a5.06,5.06,0,0,1,1.06-.9,2.3,2.3,0,0,1,1.25-.36,2.12,2.12,0,0,1,1.34.38,2.22,2.22,0,0,1,.71,1,6.58,6.58,0,0,1,1.17-1A2.25,2.25,0,0,1,68,38a2,2,0,0,1,1.7.74A3.54,3.54,0,0,1,70.23,41v4.71H69.07V41.12a2.68,2.68,0,0,0-.34-1.52,1.18,1.18,0,0,0-1-.47,2.78,2.78,0,0,0-1.87,1.15v5.38H64.57V41.12a2.53,2.53,0,0,0-.34-1.52,1.16,1.16,0,0,0-1.05-.47,2.69,2.69,0,0,0-1.87,1.15v5.38Z"/><path class="cls-3" d="M75.74,45.86a3.71,3.71,0,0,1-1.4-.27,3.31,3.31,0,0,1-1.89-2,4.86,4.86,0,0,1,0-3.28,3.4,3.4,0,0,1,1.81-2,3.11,3.11,0,0,1,2.5,0,2.57,2.57,0,0,1,.93.7,3.32,3.32,0,0,1,.58,1.1,5,5,0,0,1,.2,1.44v.39a1.82,1.82,0,0,1,0,.33h-5a2.87,2.87,0,0,0,.74,1.89,2.33,2.33,0,0,0,1.74.7,3.08,3.08,0,0,0,1-.16,4.07,4.07,0,0,0,.86-.43l.44.83a6.81,6.81,0,0,1-1.08.54A3.87,3.87,0,0,1,75.74,45.86Zm-2.34-4.5h4a2.7,2.7,0,0,0-.48-1.72,1.63,1.63,0,0,0-1.35-.59,2,2,0,0,0-.76.15,1.85,1.85,0,0,0-.65.45,2.57,2.57,0,0,0-.48.73A3.06,3.06,0,0,0,73.4,41.36Z"/><path class="cls-3" d="M80.3,45.67V38.24h1l.1,1.07h0a6.5,6.5,0,0,1,1.12-.9,2.63,2.63,0,0,1,1.37-.36,2,2,0,0,1,1.72.74A3.62,3.62,0,0,1,86.16,41v4.71H85V41.13a2.68,2.68,0,0,0-.33-1.52,1.22,1.22,0,0,0-1.08-.47,1.88,1.88,0,0,0-1,.29,6.31,6.31,0,0,0-1,.86v5.38Z"/><path class="cls-3" d="M91,45.86a2.47,2.47,0,0,1-1-.19,1.71,1.71,0,0,1-.66-.5,1.92,1.92,0,0,1-.36-.78,4.79,4.79,0,0,1-.11-1V39.27h-1.1v-1l1.16-.07.16-2.08h1v2.08h2v1h-2v4.13a1.91,1.91,0,0,0,.26,1.07,1,1,0,0,0,.89.37,1.54,1.54,0,0,0,.43-.06,2.83,2.83,0,0,0,.41-.14l.25,1a5.12,5.12,0,0,1-.67.19A2.94,2.94,0,0,1,91,45.86Z"/><path class="cls-3" d="M96.82,45.67v-10h1.32l3.63,6.3,1.08,2.08h.06c0-.51-.06-1-.1-1.58s0-1.09,0-1.62V35.67H104v10h-1.32L99,39.35l-1.08-2.06h-.07c0,.51.08,1,.12,1.55s0,1,0,1.58v5.25Z"/><path class="cls-3" d="M108.07,45.86a2.25,2.25,0,0,1-1.55-.55,2,2,0,0,1-.62-1.57A2.07,2.07,0,0,1,107,41.87a9.16,9.16,0,0,1,3.48-.91,4,4,0,0,0-.07-.69,2.22,2.22,0,0,0-.24-.6,1.27,1.27,0,0,0-.47-.42,1.61,1.61,0,0,0-.75-.16,3,3,0,0,0-1.21.25,5.4,5.4,0,0,0-1,.55l-.49-.87a8.44,8.44,0,0,1,1.27-.65,4,4,0,0,1,1.65-.32,2.26,2.26,0,0,1,2,.84,3.64,3.64,0,0,1,.62,2.22v4.56h-1l-.11-.88h0a6.6,6.6,0,0,1-1.14.75A2.93,2.93,0,0,1,108.07,45.86Zm.37-1a2.07,2.07,0,0,0,1-.26,4.8,4.8,0,0,0,1-.74V41.8a12,12,0,0,0-1.57.29,4.33,4.33,0,0,0-1,.39,1.58,1.58,0,0,0-.56.53,1.25,1.25,0,0,0-.18.65,1.07,1.07,0,0,0,.38.92,1.61,1.61,0,0,0,.93.27Z"/><path class="cls-3" d="M114,45.67V38.24h1l.11,1.07h0a4.87,4.87,0,0,1,1.07-.9,2.27,2.27,0,0,1,1.24-.36,2.12,2.12,0,0,1,1.34.38,2.22,2.22,0,0,1,.71,1,6.58,6.58,0,0,1,1.17-1,2.32,2.32,0,0,1,1.28-.39,2,2,0,0,1,1.71.74,3.54,3.54,0,0,1,.56,2.17v4.71H123V41.12a2.53,2.53,0,0,0-.34-1.52,1.18,1.18,0,0,0-1-.47,2.73,2.73,0,0,0-1.86,1.15v5.38h-1.26V41.12a2.68,2.68,0,0,0-.33-1.52,1.21,1.21,0,0,0-1.06-.47,2.78,2.78,0,0,0-1.87,1.15v5.38Z"/><path class="cls-3" d="M129.63,45.86a3.71,3.71,0,0,1-1.4-.27,3.39,3.39,0,0,1-1.13-.77,3.64,3.64,0,0,1-.76-1.21,4.59,4.59,0,0,1-.27-1.64,4.36,4.36,0,0,1,.28-1.64,3.75,3.75,0,0,1,.75-1.24,3.36,3.36,0,0,1,1.06-.77,3.11,3.11,0,0,1,2.5,0,2.33,2.33,0,0,1,.94.7,3.3,3.3,0,0,1,.57,1.1,5,5,0,0,1,.2,1.44V42a1.82,1.82,0,0,1,0,.33h-5a2.87,2.87,0,0,0,.74,1.89,2.29,2.29,0,0,0,1.73.7,3.08,3.08,0,0,0,1-.16,4.69,4.69,0,0,0,.87-.43l.44.83a7.37,7.37,0,0,1-1.09.54A3.85,3.85,0,0,1,129.63,45.86Zm-2.34-4.5h4a2.7,2.7,0,0,0-.48-1.72,1.66,1.66,0,0,0-1.36-.59,2,2,0,0,0-.76.15,2.1,2.1,0,0,0-.65.45,2.57,2.57,0,0,0-.48.73A3.32,3.32,0,0,0,127.29,41.36Z"/></svg>