<svg id="Layer_1" data-name="Layer 1" xmlns="http://www.w3.org/2000/svg" viewBox="0 0 240 60"><defs><style>.cls-1{fill:#231f20;}.cls-2{fill:none;stroke:#231f20;stroke-miterlimit:10;stroke-width:0.72px;}.cls-3{fill:#a90533;}</style></defs><path class="cls-1" d="M12.81,40.79H14v5.49h2.67v1H12.81Z"/><path class="cls-1" d="M17.41,44c0-2.09,1.17-3.33,2.86-3.33s2.87,1.24,2.87,3.33S22,47.39,20.27,47.39,17.41,46.1,17.41,44Zm4.52,0c0-1.43-.66-2.3-1.66-2.3s-1.65.87-1.65,2.3.64,2.37,1.65,2.37S21.93,45.45,21.93,44Z"/><path class="cls-1" d="M24.51,40.79h1.26l1.94,3.57a12.78,12.78,0,0,1,.66,1.46h0c-.07-.69-.15-1.48-.15-2.19V40.79h1.1v6.48H28.1L26.16,43.7c-.23-.43-.45-1-.66-1.46h0c.07.67.15,1.48.15,2.2v2.83h-1.1Z"/><path class="cls-1" d="M30.81,44.05a3.07,3.07,0,0,1,2.74-3.36,1.83,1.83,0,0,1,.33,0,2.64,2.64,0,0,1,2,.83l-.63.72A1.7,1.7,0,0,0,34,41.7c-1.14,0-1.91.88-1.91,2.32s.68,2.35,2,2.35a1.46,1.46,0,0,0,.9-.28V44.72h-1.2v-1H36v2.87a3.14,3.14,0,0,1-5.2-2.54Z"/><path class="cls-1" d="M38.88,46.44l.63-.77a2.6,2.6,0,0,0,1.73.7c.72,0,1.11-.33,1.11-.82s-.41-.69-1-.93l-.88-.39a1.87,1.87,0,0,1-1.31-1.66,2,2,0,0,1,2.14-1.85h0a2.87,2.87,0,0,1,2,.81l-.63.77a2.14,2.14,0,0,0-1.38-.55c-.6,0-1,.28-1,.75s.49.67,1,.9l.87.35a1.81,1.81,0,0,1,1.31,1.76c0,1.05-.87,1.93-2.34,1.93A3.2,3.2,0,0,1,38.88,46.44Z"/><path class="cls-1" d="M44.54,44.05c0-2.12,1.33-3.38,3-3.38a2.52,2.52,0,0,1,1.87.83l-.62.72a1.73,1.73,0,0,0-1.23-.52c-1,0-1.78.88-1.78,2.32s.68,2.35,1.76,2.35a1.79,1.79,0,0,0,1.37-.63l.63.71a2.62,2.62,0,0,1-2,.94C45.84,47.39,44.54,46.2,44.54,44.05Z"/><path class="cls-1" d="M50.74,40.79h1.18v2.6h2.57v-2.6h1.18v6.48H54.49V44.42H51.92v2.85H50.74Z"/><path class="cls-1" d="M57.12,44c0-2.09,1.17-3.33,2.86-3.33s2.87,1.24,2.87,3.33S61.68,47.39,60,47.39,57.12,46.1,57.12,44Zm4.52,0c0-1.43-.66-2.3-1.66-2.3s-1.65.87-1.65,2.3S59,46.37,60,46.37,61.64,45.45,61.64,44Z"/><path class="cls-1" d="M64,44c0-2.09,1.17-3.33,2.86-3.33s2.87,1.24,2.87,3.33-1.17,3.39-2.87,3.39S64,46.1,64,44Zm4.52,0c0-1.43-.66-2.3-1.66-2.3s-1.65.87-1.65,2.3.64,2.37,1.65,2.37,1.61-.92,1.61-2.37Z"/><path class="cls-1" d="M70.88,40.79h1.18v5.49h2.67v1H70.88Z"/><path class="cls-1" d="M77.85,40.79h1.26l1.94,3.57a14.85,14.85,0,0,1,.67,1.46h0c-.06-.69-.14-1.48-.14-2.19V40.79h1.1v6.48H81.45L79.51,43.7a14.85,14.85,0,0,1-.67-1.46h0c.07.67.15,1.48.15,2.2v2.83h-1.1Z"/><path class="cls-1" d="M85.84,40.79h1.39l2.1,6.48H88.08l-.49-1.7H85.44l-.5,1.73h-1.2Zm-.14,3.83h1.63l-.22-.78c-.21-.68-.4-1.42-.58-2.13h0c-.17.72-.36,1.45-.57,2.13Z"/><path class="cls-1" d="M90.27,40.79h1.38L92.76,44c.14.42.26.79.38,1.27h0c.12-.48.21-.85.35-1.27l1.11-3.17H96v6.48H94.94v-3a18.59,18.59,0,0,1,.18-2.1h0l-.52,1.56-1,2.9h-.77l-1-2.9-.51-1.56h0a18.57,18.57,0,0,1,.17,2.1v3H90.27Z"/><path class="cls-1" d="M97.79,40.79h3.91v1H99v1.63h2.32v1H99V46.3h2.83v1h-4Z"/><path class="cls-1" d="M104.72,44c0-2.09,1.17-3.33,2.86-3.33s2.87,1.24,2.87,3.33-1.17,3.39-2.87,3.39S104.72,46.1,104.72,44Zm4.52,0c0-1.43-.66-2.3-1.66-2.3s-1.65.87-1.65,2.3.64,2.37,1.65,2.37S109.24,45.45,109.24,44Z"/><path class="cls-1" d="M111.89,40.79h2.19c1.36,0,2.4.48,2.4,1.93a1.82,1.82,0,0,1-1.28,1.85l1.53,2.69h-1.31L114,44.75h-1v2.52h-1.18Zm2.07,3c.88,0,1.36-.36,1.36-1.09s-.48-1-1.36-1h-.89v2.08Z"/><path class="cls-1" d="M121,40.79h1.39l2.1,6.48h-1.25l-.5-1.73h-2.15l-.49,1.73h-1.2Zm-.14,3.83h1.63l-.22-.78c-.21-.68-.4-1.42-.59-2.13h0c-.16.72-.35,1.45-.56,2.13Z"/><path class="cls-1" d="M126.87,46.44l.63-.77a2.6,2.6,0,0,0,1.74.7c.71,0,1.11-.33,1.11-.82s-.42-.69-1-.93l-.89-.39a1.84,1.84,0,0,1-1.3-1.71,2,2,0,0,1,2.14-1.85h0a2.87,2.87,0,0,1,2,.81l-.64.77a2.09,2.09,0,0,0-1.37-.55c-.61,0-1,.28-1,.75s.48.67,1,.9l.87.35a1.81,1.81,0,0,1,1.3,1.76,2.06,2.06,0,0,1-2.17,1.95l-.16,0A3.25,3.25,0,0,1,126.87,46.44Z"/><path class="cls-1" d="M132.87,40.79h3.91v1h-2.73v1.63h2.31v1h-2.31V46.3h2.83v1h-4Z"/><path class="cls-1" d="M137.76,44.05c0-2.12,1.33-3.38,3-3.38a2.52,2.52,0,0,1,1.87.83l-.62.72a1.65,1.65,0,0,0-1.23-.52c-1,0-1.78.88-1.78,2.32s.68,2.35,1.76,2.35a1.79,1.79,0,0,0,1.37-.63l.63.71a2.62,2.62,0,0,1-2,.94C139.06,47.39,137.76,46.2,137.76,44.05Z"/><path class="cls-1" d="M143.43,44c0-2.09,1.17-3.33,2.86-3.33s2.87,1.24,2.87,3.33-1.17,3.39-2.87,3.39S143.43,46.1,143.43,44ZM148,44c0-1.43-.66-2.3-1.66-2.3s-1.65.87-1.65,2.3.64,2.37,1.65,2.37S148,45.45,148,44Z"/><path class="cls-1" d="M150.54,40.79h1.26l1.94,3.57c.23.43.45,1,.66,1.46h0c-.07-.69-.15-1.48-.15-2.19V40.79h1.1v6.48h-1.26l-1.94-3.57a12.78,12.78,0,0,1-.66-1.46h0c.07.67.15,1.48.15,2.2v2.83h-1.1Z"/><path class="cls-1" d="M157.16,40.79h1.73a2.85,2.85,0,0,1,3.17,2.53,2.58,2.58,0,0,1,0,.68c0,2.16-1.19,3.27-3.11,3.27h-1.79Zm1.65,5.53c1.29,0,2-.72,2-2.32s-.74-2.25-2-2.25h-.47v4.57Z"/><path class="cls-1" d="M164.88,46.44l.63-.77a2.6,2.6,0,0,0,1.73.7c.72,0,1.11-.33,1.11-.82s-.41-.69-1-.93l-.88-.39a1.85,1.85,0,0,1-1.31-1.71,2,2,0,0,1,2.14-1.85h0a2.87,2.87,0,0,1,2,.81l-.63.77a2.14,2.14,0,0,0-1.38-.55c-.6,0-1,.28-1,.75s.49.67,1,.9l.87.35a1.81,1.81,0,0,1,1.31,1.76c0,1-.87,1.93-2.34,1.93A3.23,3.23,0,0,1,164.88,46.44Z"/><path class="cls-1" d="M170.54,44.05c0-2.12,1.33-3.38,3-3.38a2.52,2.52,0,0,1,1.87.83l-.62.72a1.73,1.73,0,0,0-1.23-.52c-1,0-1.78.88-1.78,2.32s.68,2.35,1.76,2.35a1.79,1.79,0,0,0,1.37-.63l.63.71a2.62,2.62,0,0,1-2,.94C171.84,47.39,170.54,46.2,170.54,44.05Z"/><path class="cls-1" d="M176.74,40.79h1.18v2.6h2.57v-2.6h1.18v6.48h-1.18V44.42h-2.57v2.85h-1.18Z"/><path class="cls-1" d="M183.12,44c0-2.09,1.17-3.33,2.86-3.33s2.87,1.24,2.87,3.33-1.17,3.39-2.87,3.39S183.12,46.1,183.12,44Zm4.52,0c0-1.43-.66-2.3-1.66-2.3s-1.65.87-1.65,2.3.64,2.37,1.65,2.37S187.64,45.45,187.64,44Z"/><path class="cls-1" d="M190,44c0-2.09,1.17-3.33,2.86-3.33s2.87,1.24,2.87,3.33-1.17,3.39-2.87,3.39S190,46.1,190,44Zm4.52,0c0-1.43-.66-2.3-1.66-2.3s-1.65.87-1.65,2.3.64,2.37,1.65,2.37,1.61-.92,1.61-2.37Z"/><path class="cls-1" d="M197.12,40.79h1.18v5.49H201v1h-3.85Z"/><path class="cls-1" d="M203.85,40.79h1.26l1.94,3.57a14.85,14.85,0,0,1,.67,1.46h0c-.06-.69-.14-1.48-.14-2.19V40.79h1.1v6.48h-1.26l-1.94-3.57a14.85,14.85,0,0,1-.67-1.46h0c.07.67.15,1.48.15,2.2v2.83h-1.1Z"/><path class="cls-1" d="M211.84,40.79h1.39l2.1,6.48h-1.25l-.49-1.73h-2.15l-.5,1.73h-1.2Zm-.14,3.83h1.63l-.22-.78c-.21-.68-.4-1.42-.58-2.13h0c-.17.72-.36,1.45-.57,2.13Z"/><path class="cls-1" d="M216.27,40.79h1.38L218.76,44c.14.42.26.79.38,1.27h0c.12-.48.21-.85.35-1.27l1.11-3.17H222v6.48h-1.09v-3a18.59,18.59,0,0,1,.18-2.1h0l-.52,1.56-1,2.9h-.77l-1-2.9-.51-1.56h0a18.57,18.57,0,0,1,.17,2.1v3h-1.06Z"/><path class="cls-1" d="M223.79,40.79h3.91v1H225v1.63h2.32v1H225V46.3h2.83v1h-4Z"/><line class="cls-2" x1="103.99" y1="30.56" x2="103.99" y2="12.56"/><path class="cls-3" d="M38.25,24.62a12.18,12.18,0,0,0-2.48.94,1.9,1.9,0,0,0-1,1.77A1.51,1.51,0,0,0,36.11,29a1.37,1.37,0,0,0,.35,0,3.14,3.14,0,0,0,1.78-.52V24.62Zm-2.71,5.95c-3.06,0-3.3-2.32-3.3-3a3,3,0,0,1,2.18-3c2-.74,2.45-.82,3.83-1.26V23a3.3,3.3,0,0,0-.13-1.25A2,2,0,0,0,36,20.4a2.49,2.49,0,0,0-2.16,1.18l-.12.23-.57-.34.06-.17a3.79,3.79,0,0,1,3.81-2.38,3.48,3.48,0,0,1,3.24,1.42,5.59,5.59,0,0,1,.51,2.93v4.37c0,.8.13,1.41.8,1.41a.52.52,0,0,0,.36-.11l.19-.15.37.42-.12.16a2.77,2.77,0,0,1-2.31,1.2,1.66,1.66,0,0,1-1.73-1.14A3.8,3.8,0,0,1,35.54,30.57Z"/><path class="cls-3" d="M16.82,30.57A11.44,11.44,0,0,1,13.1,30L12.93,30V26.73h.67V27a2.35,2.35,0,0,0,.51,1.37,3.78,3.78,0,0,0,2.62.87c2.15,0,3.16-.82,3.16-2.57,0-1.5-.93-2.12-2.21-3l-.21-.14-1.35-.9c-1.88-1.24-2.83-2.24-2.83-4.23,0-1,.36-4.16,5.1-4.16a22.86,22.86,0,0,1,3.51.27h.2v3.31h-.58v-.21A2,2,0,0,0,21,16.21a3.85,3.85,0,0,0-2.53-.67c-2.51,0-2.8,1.29-2.8,2.25,0,1.34.68,1.79,2.17,2.77l1.71,1.14c1.46,1,2.84,1.89,2.84,4.31,0,4.09-3.82,4.53-5.47,4.53Z"/><path class="cls-3" d="M28.05,30.57c-1.75,0-2.72-.63-3.15-2a10,10,0,0,1-.18-2.31V20.57H23.28v-.44l.14-.06a4.44,4.44,0,0,0,1.27-.72,8,8,0,0,0,1.85-2.29l.26-.43h.49v2.54h3.85v1.4H27.29v5.94c0,1.77.33,2.78,2,2.78A3.13,3.13,0,0,0,30.67,29l.23-.12.2.46-.09.11a3.73,3.73,0,0,1-3,1.19Z"/><path class="cls-3" d="M43.42,30.46v-.53h.22a1.52,1.52,0,0,0,1-.47c.35-.39.37-1.35.37-3.28V23c0-1.39,0-2-.22-2.28a1.3,1.3,0,0,0-1-.39h-.31v-.71h.43a12.24,12.24,0,0,0,2-.22A3.56,3.56,0,0,0,47.1,19l.13-.06.22.13v.9a5.53,5.53,0,0,1,3.28-1.08,3.49,3.49,0,0,1,3.75,2.68,12.15,12.15,0,0,1,.14,2v3.3c0,1.86.08,2.39.43,2.71a1.59,1.59,0,0,0,.87.32h.22v.52h-.56c-.81,0-1.51-.08-2.24-.08a24.35,24.35,0,0,0-2.56.1h-.27v-.52h.21a1.6,1.6,0,0,0,.93-.38,3.41,3.41,0,0,0,.42-2V25.1A23.75,23.75,0,0,0,52,22.57a2.13,2.13,0,0,0-2.1-2.16l-.3,0a4.41,4.41,0,0,0-2.11.47v5.94c0,1.86.07,2.39.42,2.71a1.66,1.66,0,0,0,.88.32H49v.52h-.6c-.78,0-1.46-.08-2.18-.08a24.92,24.92,0,0,0-2.59.1h-.26Z"/><path class="cls-3" d="M57.52,30.46v-.54h.22a1.47,1.47,0,0,0,1-.47c.35-.39.37-1.34.37-3.27V20.57H57.64v-.63l.15-.06a6,6,0,0,0,1.32-.7,18.8,18.8,0,0,1,.17-3c.45-2.33,2-3.52,4.53-3.52a4.55,4.55,0,0,1,2.76.87l.09.07v.24l-1.12,1.55H65.3l-.06-.14a2,2,0,0,0-1.9-1.34,1.7,1.7,0,0,0-1.14.41c-.49.49-.57,1.21-.57,2.66v2.18h2.52v1.41H61.63v6.27a6.27,6.27,0,0,0,.24,2.51c.32.48,1.28.51,1.56.51h.24v.6h-.25c-1.24-.07-2.17-.1-2.84-.1-.93,0-1.87,0-2.8.1Z"/><path class="cls-3" d="M70.66,20.16a2.36,2.36,0,0,0-1.6.51c-.91.76-1.37,2.15-1.37,4.12,0,.76.14,4.56,2.92,4.56a2.46,2.46,0,0,0,1.61-.51c.9-.76,1.36-2.15,1.36-4.12C73.58,24,73.44,20.16,70.66,20.16Zm-.14,10.49c-3.45,0-5.51-2.14-5.51-5.74,0-2.8,1.5-6.06,5.74-6.06,3.45,0,5.51,2.15,5.51,5.75,0,2.79-1.5,6-5.74,6Z"/><path class="cls-3" d="M77.35,30.46v-.57h.23a1.46,1.46,0,0,0,1-.46c.35-.39.36-1.32.36-3.25V23c0-1.39,0-2-.21-2.28a1.3,1.3,0,0,0-1-.39h-.31v-.71h.43a11.22,11.22,0,0,0,2-.21A5.69,5.69,0,0,0,81.06,19L81.2,19l.2.1v1A3.72,3.72,0,0,1,84,19a2.76,2.76,0,0,1,1.89.63l.08.07v.36l-1,1.74h-.46l-.07-.11a2,2,0,0,0-1.82-.9,2.18,2.18,0,0,0-1.24.35v5.7a5.83,5.83,0,0,0,.25,2.49c.32.47,1.27.51,1.56.51h.23v.62h-.24c-1.25-.07-2.18-.1-2.84-.1-.93,0-1.87,0-2.8.1h-.19Z"/><path class="cls-3" d="M92.51,20.23c-2.2,0-3.27,1.51-3.27,4.61,0,1.25.35,4.17,3.63,4.17H93a3.39,3.39,0,0,0,1.79-.46V21a3.11,3.11,0,0,0-2.26-.76Zm2.61,10.39-.3-.1v-1a5.36,5.36,0,0,1-3.16,1.06c-3.1,0-5.11-2.15-5.11-5.49a7.57,7.57,0,0,1,.62-3,5.64,5.64,0,0,1,5.39-3.22,11.73,11.73,0,0,1,2.21.21v-2.4a6.2,6.2,0,0,0-.22-2.46,1.3,1.3,0,0,0-1-.39h-.31v-.5h.24A22,22,0,0,0,95.9,13,6.07,6.07,0,0,0,97,12.75h.11l.19.12V13c-.08.93-.09,2.92-.09,4.41v9.18a6.45,6.45,0,0,0,.22,2.51,1.34,1.34,0,0,0,1,.41h.31v.6h-.24a16.12,16.12,0,0,0-2.19.24,5.88,5.88,0,0,0-1.16.26h-.1Z"/><path class="cls-1" d="M110.43,30.4v-10h2.51a4.64,4.64,0,0,1,3.54,1.28,5.22,5.22,0,0,1,1.21,3.69,7,7,0,0,1-.31,2.14,4.55,4.55,0,0,1-.9,1.59,4,4,0,0,1-1.47,1,5.48,5.48,0,0,1-2,.35Zm1.27-1h1.15a3.25,3.25,0,0,0,2.64-1.06,4.48,4.48,0,0,0,.88-3,4.31,4.31,0,0,0-.88-2.92,3.35,3.35,0,0,0-2.64-1H111.7Z"/><path class="cls-1" d="M122.72,30.57a3.71,3.71,0,0,1-1.4-.27,3.22,3.22,0,0,1-1.13-.76,3.44,3.44,0,0,1-.76-1.22,4.6,4.6,0,0,1-.28-1.64,4.37,4.37,0,0,1,.29-1.64,3.54,3.54,0,0,1,.75-1.23,3.24,3.24,0,0,1,1.06-.78,3.1,3.1,0,0,1,1.24-.26,3,3,0,0,1,1.26.24,2.57,2.57,0,0,1,.93.7,3.37,3.37,0,0,1,.58,1.11,4.62,4.62,0,0,1,.2,1.43v.39a1.82,1.82,0,0,1,0,.33h-5a2.87,2.87,0,0,0,.74,1.89,2.31,2.31,0,0,0,1.74.7,2.83,2.83,0,0,0,1-.16,4.56,4.56,0,0,0,.86-.42l.45.82a5.53,5.53,0,0,1-1.09.54A3.72,3.72,0,0,1,122.72,30.57Zm-2.34-4.5h4a2.65,2.65,0,0,0-.49-1.72,1.63,1.63,0,0,0-1.35-.59,2,2,0,0,0-.76.15,2.23,2.23,0,0,0-.65.45,2.72,2.72,0,0,0-.48.73,3.38,3.38,0,0,0-.27,1Z"/><path class="cls-1" d="M127.28,33.57V23h1l.1.86h.05a5.5,5.5,0,0,1,1.11-.74,2.75,2.75,0,0,1,1.26-.3,2.92,2.92,0,0,1,1.27.26,2.45,2.45,0,0,1,.92.77,3.51,3.51,0,0,1,.56,1.19,5.92,5.92,0,0,1,.19,1.57,5.1,5.1,0,0,1-.26,1.69,3.81,3.81,0,0,1-.7,1.26,3,3,0,0,1-1,.79,2.86,2.86,0,0,1-1.22.27,2.61,2.61,0,0,1-1-.23,5,5,0,0,1-1-.63v3.85Zm3.07-4a1.9,1.9,0,0,0,.85-.2,2,2,0,0,0,.68-.58,2.94,2.94,0,0,0,.44-.93,4.31,4.31,0,0,0,.16-1.24,6,6,0,0,0-.11-1.12,2.42,2.42,0,0,0-.37-.93,1.57,1.57,0,0,0-.61-.56,1.88,1.88,0,0,0-.9-.2,2.07,2.07,0,0,0-1,.26,6.69,6.69,0,0,0-1,.75v3.9a3.32,3.32,0,0,0,1,.61A2.57,2.57,0,0,0,130.35,29.57Z"/><path class="cls-1" d="M137.24,30.57a2.25,2.25,0,0,1-1.55-.55,2,2,0,0,1-.62-1.56,2.07,2.07,0,0,1,1.09-1.88,9.11,9.11,0,0,1,3.47-.91,3.23,3.23,0,0,0-.07-.69,1.6,1.6,0,0,0-.24-.59,1.1,1.1,0,0,0-.46-.42,1.56,1.56,0,0,0-.76-.16,3.11,3.11,0,0,0-1.21.24,6.49,6.49,0,0,0-1,.55l-.49-.87a8.44,8.44,0,0,1,1.27-.65,4.21,4.21,0,0,1,1.65-.31,2.26,2.26,0,0,1,2,.83,3.68,3.68,0,0,1,.61,2.23v4.56h-1l-.11-.89h0a6.73,6.73,0,0,1-1.15.76A3,3,0,0,1,137.24,30.57Zm.37-1a2.06,2.06,0,0,0,1-.25,5.23,5.23,0,0,0,1-.75V26.51a12,12,0,0,0-1.57.29,4,4,0,0,0-1,.4,1.61,1.61,0,0,0-.57.53,1.25,1.25,0,0,0-.18.65,1,1,0,0,0,.39.91A1.55,1.55,0,0,0,137.61,29.57Z"/><path class="cls-1" d="M143.12,30.4V23h1l.11,1.35h0a3.25,3.25,0,0,1,.93-1.12,1.86,1.86,0,0,1,1.18-.41,2,2,0,0,1,.8.15l-.25,1.1-.33-.09a2.54,2.54,0,0,0-.39,0,1.71,1.71,0,0,0-1,.38,3.18,3.18,0,0,0-.9,1.33v4.78Z"/><path class="cls-1" d="M151.41,30.57a2.46,2.46,0,0,1-1-.18,1.76,1.76,0,0,1-1-1.29,4.79,4.79,0,0,1-.11-1V24h-1.1V23l1.16-.08.16-2.08h1V23h2v1h-2V28.1a2,2,0,0,0,.25,1.06,1,1,0,0,0,.9.37,1.54,1.54,0,0,0,.43-.06,2.8,2.8,0,0,0,.41-.13l.25.94a5.12,5.12,0,0,1-.67.19A3,3,0,0,1,151.41,30.57Z"/><path class="cls-1" d="M154.22,30.4V23h1l.11,1.07h0a4.52,4.52,0,0,1,1.06-.89,2.3,2.3,0,0,1,1.25-.36,2.12,2.12,0,0,1,1.34.37,2.22,2.22,0,0,1,.71,1,5.9,5.9,0,0,1,1.17-1,2.25,2.25,0,0,1,1.28-.39,2,2,0,0,1,1.7.73,3.54,3.54,0,0,1,.56,2.17v4.72h-1.26V25.83a2.68,2.68,0,0,0-.33-1.52,1.22,1.22,0,0,0-1-.47A2.75,2.75,0,0,0,159.94,25v5.39h-1.25V25.83a2.68,2.68,0,0,0-.34-1.52,1.21,1.21,0,0,0-1.06-.47A2.73,2.73,0,0,0,155.43,25v5.39Z"/><path class="cls-1" d="M169.91,30.57a3.71,3.71,0,0,1-1.4-.27,3.26,3.26,0,0,1-1.14-.76,3.66,3.66,0,0,1-.75-1.22,5,5,0,0,1,0-3.28,3.81,3.81,0,0,1,.75-1.23,3.18,3.18,0,0,1,1.07-.78,2.94,2.94,0,0,1,1.24-.26,3,3,0,0,1,1.26.24,2.57,2.57,0,0,1,.93.7,3.37,3.37,0,0,1,.58,1.11,4.93,4.93,0,0,1,.19,1.43v.39a1.82,1.82,0,0,1,0,.33h-5a2.87,2.87,0,0,0,.74,1.89,2.28,2.28,0,0,0,1.74.7,2.83,2.83,0,0,0,1-.16A4.56,4.56,0,0,0,172,29l.44.82a5.45,5.45,0,0,1-1.08.54A3.87,3.87,0,0,1,169.91,30.57Zm-2.35-4.5h4a2.7,2.7,0,0,0-.48-1.72,1.63,1.63,0,0,0-1.35-.59,2,2,0,0,0-.76.15,2.23,2.23,0,0,0-.65.45,2.37,2.37,0,0,0-.48.73,3.12,3.12,0,0,0-.28,1Z"/><path class="cls-1" d="M174.46,30.4V23h1l.11,1.07h0a5.7,5.7,0,0,1,1.12-.89,2.63,2.63,0,0,1,1.37-.36,2,2,0,0,1,1.72.73,3.62,3.62,0,0,1,.55,2.17V30.4h-1.26V25.85a2.68,2.68,0,0,0-.33-1.52,1.25,1.25,0,0,0-1.08-.47,1.88,1.88,0,0,0-1,.29,6.31,6.31,0,0,0-1,.86V30.4Z"/><path class="cls-1" d="M185.16,30.57a2.46,2.46,0,0,1-1-.18,1.76,1.76,0,0,1-1-1.29,4.79,4.79,0,0,1-.11-1V24H182V23l1.16-.08.16-2.08h1V23h2v1h-2V28.1a1.88,1.88,0,0,0,.26,1.06,1,1,0,0,0,.89.37,1.54,1.54,0,0,0,.43-.06,2.8,2.8,0,0,0,.41-.13l.25.94a5.12,5.12,0,0,1-.67.19A3,3,0,0,1,185.16,30.57Z"/><path class="cls-1" d="M191,30.4v-10h1.32l3.62,6.3L197,28.78h.06c0-.51-.06-1-.1-1.58s-.05-1.08-.05-1.62V20.4h1.21v10h-1.32l-3.64-6.32L192.1,22H192l.12,1.55c0,.53,0,1.06,0,1.59V30.4Z"/><path class="cls-1" d="M202.25,30.57a2.28,2.28,0,0,1-1.56-.55,2,2,0,0,1-.62-1.56,2.07,2.07,0,0,1,1.09-1.88,9.11,9.11,0,0,1,3.47-.91,4,4,0,0,0-.06-.69,1.79,1.79,0,0,0-.24-.59,1.12,1.12,0,0,0-.47-.42,1.56,1.56,0,0,0-.76-.16,3.1,3.1,0,0,0-1.2.24,5.4,5.4,0,0,0-1,.55l-.49-.87a8.44,8.44,0,0,1,1.27-.65,4.21,4.21,0,0,1,1.65-.31,2.26,2.26,0,0,1,2,.83,3.68,3.68,0,0,1,.61,2.23v4.56h-1l-.1-.89h0a6.73,6.73,0,0,1-1.15.76A2.88,2.88,0,0,1,202.25,30.57Zm.36-1a2.06,2.06,0,0,0,1-.25,5.23,5.23,0,0,0,1-.75V26.51a11.59,11.59,0,0,0-1.56.29,3.61,3.61,0,0,0-1,.4,1.61,1.61,0,0,0-.57.53,1.34,1.34,0,0,0-.17.65,1.05,1.05,0,0,0,.38.91A1.52,1.52,0,0,0,202.61,29.57Z"/><path class="cls-1" d="M208.16,30.4V23h1l.11,1.07h0a4.73,4.73,0,0,1,1.06-.89,2.3,2.3,0,0,1,1.25-.36,2.12,2.12,0,0,1,1.34.37,2.22,2.22,0,0,1,.71,1,6.19,6.19,0,0,1,1.17-1,2.25,2.25,0,0,1,1.28-.39,2,2,0,0,1,1.71.73,3.62,3.62,0,0,1,.55,2.17v4.72h-1.25V25.83a2.6,2.6,0,0,0-.34-1.52,1.19,1.19,0,0,0-1-.47A2.73,2.73,0,0,0,213.89,25v5.39h-1.26V25.83a2.6,2.6,0,0,0-.34-1.52,1.19,1.19,0,0,0-1-.47A2.78,2.78,0,0,0,209.37,25v5.39Z"/><path class="cls-1" d="M223.81,30.57a3.71,3.71,0,0,1-1.4-.27,3.31,3.31,0,0,1-1.13-.76,3.69,3.69,0,0,1-.76-1.22,4.6,4.6,0,0,1-.28-1.64,4.37,4.37,0,0,1,.29-1.64,3.81,3.81,0,0,1,.75-1.23,3.24,3.24,0,0,1,1.06-.78,3.1,3.1,0,0,1,1.24-.26,3,3,0,0,1,1.26.24,2.61,2.61,0,0,1,.94.7,3.35,3.35,0,0,1,.57,1.11,4.62,4.62,0,0,1,.2,1.43v.39a1.82,1.82,0,0,1,0,.33h-5a2.88,2.88,0,0,0,.75,1.89,2.26,2.26,0,0,0,1.73.7,2.83,2.83,0,0,0,1-.16,4.56,4.56,0,0,0,.86-.42l.45.82a5.53,5.53,0,0,1-1.09.54A3.72,3.72,0,0,1,223.81,30.57Zm-2.34-4.5h4a2.65,2.65,0,0,0-.49-1.72,1.63,1.63,0,0,0-1.35-.59,2,2,0,0,0-.76.15,2.23,2.23,0,0,0-.65.45,2.72,2.72,0,0,0-.48.73,3.38,3.38,0,0,0-.27,1Z"/></svg>