<svg id="Layer_1" data-name="Layer 1" xmlns="http://www.w3.org/2000/svg" viewBox="0 0 240 60"><defs><style>.cls-1{fill:none;stroke:#231f20;stroke-miterlimit:10;stroke-width:0.72px;}.cls-2{fill:#a90533;}.cls-3{fill:#231f20;}</style></defs><line class="cls-1" x1="105.71" y1="44.88" x2="105.71" y2="13.68"/><path class="cls-2" d="M38.87,25.83a13.81,13.81,0,0,0-2.49.93,1.9,1.9,0,0,0-1,1.78,1.5,1.5,0,0,0,1.35,1.64,1.37,1.37,0,0,0,.35,0,3.07,3.07,0,0,0,1.79-.52V25.82Zm-2.71,5.94c-3.07,0-3.3-2.33-3.3-3a3,3,0,0,1,2.17-3c2-.74,2.45-.83,3.84-1.26v-.36a3.11,3.11,0,0,0-.14-1.25,2,2,0,0,0-2.07-1.3,2.46,2.46,0,0,0-2.16,1.17l-.12.23-.57-.33.06-.18a3.77,3.77,0,0,1,3.81-2.37,3.55,3.55,0,0,1,3.24,1.41,5.81,5.81,0,0,1,.51,2.93v4.37c0,.8.12,1.42.79,1.42a.56.56,0,0,0,.37-.11l.18-.16.37.43-.12.16a2.73,2.73,0,0,1-2.23,1.25A1.66,1.66,0,0,1,39,30.6a3.79,3.79,0,0,1-2.82,1.17Z"/><path class="cls-2" d="M17.44,31.74a11.53,11.53,0,0,1-3.73-.53l-.17-.06V27.89h.67v.24a2.18,2.18,0,0,0,.51,1.36,3.76,3.76,0,0,0,2.61.87c2.16,0,3.16-.81,3.16-2.56,0-1.5-.93-2.13-2.21-3l-.2-.14-1.35-.9c-1.88-1.25-2.84-2.25-2.84-4.24,0-1,.37-4.15,5.11-4.15a24.15,24.15,0,0,1,3.5.26h.21v3.31h-.57v-.22a2,2,0,0,0-.55-1.37,3.85,3.85,0,0,0-2.53-.67c-2.51,0-2.8,1.29-2.8,2.26,0,1.33.68,1.78,2.17,2.77l1.72,1.13c1.46,1,2.83,1.89,2.83,4.31,0,4.1-3.82,4.54-5.46,4.54Z"/><path class="cls-2" d="M28.66,31.81c-1.75,0-2.71-.62-3.14-2a9.88,9.88,0,0,1-.18-2.3V21.79H23.89v-.45l.15-.06a4.38,4.38,0,0,0,1.26-.72,8.21,8.21,0,0,0,1.86-2.28l.25-.43h.49v2.54h3.85v1.4H27.9v5.93c0,1.77.33,2.79,2,2.79a3.39,3.39,0,0,0,1.4-.34l.23-.12.2.46-.1.11a3.72,3.72,0,0,1-3,1.18Z"/><path class="cls-2" d="M44,31.67v-.5h.22a1.59,1.59,0,0,0,1-.47c.35-.39.37-1.36.37-3.28V24.17a5.23,5.23,0,0,0-.22-2.29,1.39,1.39,0,0,0-1-.39h-.29v-.64h.43a11.22,11.22,0,0,0,2-.21,4,4,0,0,0,1.2-.4l.12-.06.23.13v.9a5.51,5.51,0,0,1,3.27-1.09,3.49,3.49,0,0,1,3.75,2.68,11.16,11.16,0,0,1,.15,2v3.3c0,1.87.07,2.39.42,2.72a1.66,1.66,0,0,0,.88.32h.22v.53h-.56c-.81,0-1.51-.08-2.25-.08s-1.55,0-2.56.09h-.26v-.51h.2a1.62,1.62,0,0,0,.94-.39c.37-.36.38-1.23.41-2V26.39c0-.86,0-1.73-.09-2.59a2.13,2.13,0,0,0-2.1-2.16l-.3,0a4.31,4.31,0,0,0-2.12.48v5.93c0,1.87.08,2.39.43,2.72a1.62,1.62,0,0,0,.87.32h.22v.53H49c-.78,0-1.46-.08-2.17-.08s-1.59,0-2.6.09H44Z"/><path class="cls-2" d="M58.13,31.67v-.5h.22a1.46,1.46,0,0,0,1-.46c.35-.39.36-1.35.36-3.27v-5.6H58.25v-.67l.15-.06a5.07,5.07,0,0,0,1.32-.7,21.56,21.56,0,0,1,.17-3c.45-2.34,2-3.52,4.54-3.52a4.68,4.68,0,0,1,2.76.86l.08.07v.24l-1.12,1.56h-.27l-.06-.14A2,2,0,0,0,64,15.17a1.69,1.69,0,0,0-1.14.4c-.49.49-.57,1.22-.57,2.66v2.19h2.52v1.4H62.24v6.26a5.92,5.92,0,0,0,.25,2.51c.31.48,1.27.52,1.56.52h.23v.6H64c-1.24-.06-2.17-.09-2.83-.09-.84,0-1.8,0-2.81.09h-.26Z"/><path class="cls-2" d="M71.27,21.36a2.37,2.37,0,0,0-1.6.52c-.91.76-1.36,2.14-1.36,4.11,0,.76.14,4.56,2.92,4.56a2.36,2.36,0,0,0,1.6-.51c.91-.76,1.37-2.15,1.37-4.12C74.2,25.16,74.06,21.36,71.27,21.36Zm-.14,10.5c-3.45,0-5.51-2.15-5.51-5.75,0-2.79,1.51-6,5.75-6,3.45,0,5.51,2.15,5.51,5.74,0,2.8-1.51,6.06-5.75,6.06Z"/><path class="cls-2" d="M78,31.67V31.1h.22a1.47,1.47,0,0,0,1-.47c.35-.39.37-1.32.37-3.24V24.17a5.23,5.23,0,0,0-.22-2.29,1.37,1.37,0,0,0-1-.39h-.31v-.68h.43a10.38,10.38,0,0,0,2-.22,5.69,5.69,0,0,0,1.21-.32h.13l.2.1v1a3.71,3.71,0,0,1,2.61-1,2.78,2.78,0,0,1,1.9.63l.07.07v.36l-1,1.74H85.2l-.07-.11a2,2,0,0,0-1.82-.91,2.14,2.14,0,0,0-1.23.36V28.2a6,6,0,0,0,.24,2.49c.32.48,1.28.51,1.56.51h.24v.63h-.25c-1.24-.06-2.17-.09-2.84-.09-.84,0-1.79,0-2.8.09H78Z"/><path class="cls-2" d="M93.13,21.43c-2.21,0-3.28,1.51-3.28,4.61,0,1.26.36,4.18,3.64,4.18h.1a3.49,3.49,0,0,0,1.79-.46V22.17a3.13,3.13,0,0,0-2.25-.76Zm2.61,10.4-.31-.11v-1a5.33,5.33,0,0,1-3.15,1.06c-3.11,0-5.11-2.15-5.11-5.48a7.39,7.39,0,0,1,.61-3,5.67,5.67,0,0,1,5.4-3.23,10.8,10.8,0,0,1,2.2.22v-2.4a6.07,6.07,0,0,0-.22-2.47,1.34,1.34,0,0,0-1-.38h-.3v-.51h.24a22,22,0,0,0,2.42-.32A7.24,7.24,0,0,0,97.64,14h.11l.2.11v.1c-.07.93-.09,2.92-.09,4.42V27.8a6.4,6.4,0,0,0,.22,2.5,1.38,1.38,0,0,0,1,.42h.3v.61h-.23a18,18,0,0,0-2.2.23,5.64,5.64,0,0,0-1.15.26h-.06Z"/><path class="cls-3" d="M13.54,37.17H15l2.3,4.21a17.92,17.92,0,0,1,.78,1.73h0c-.08-.82-.18-1.75-.18-2.59V37.17h1.3v7.65H17.79l-2.3-4.21a17.92,17.92,0,0,1-.78-1.73h-.05c.08.79.18,1.74.18,2.6v3.34h-1.3Z"/><path class="cls-3" d="M22.91,37.17h1.64L27,44.78H25.55L25,42.73H22.43l-.59,2.05H20.43Zm-.16,4.52h1.91l-.25-.92c-.25-.8-.47-1.68-.69-2.51h0c-.2.84-.42,1.71-.67,2.51Z"/><path class="cls-3" d="M28.06,37.17H29.7l1.3,3.7c.16.5.3.94.44,1.5h0c.14-.56.25-1,.42-1.5l1.32-3.7h1.64v7.65H33.58V41.33a20.57,20.57,0,0,1,.21-2.48h0l-.6,1.85L32,44.12H31L29.78,40.7l-.6-1.85h-.05a20.57,20.57,0,0,1,.21,2.48v3.49H28.06Z"/><path class="cls-3" d="M36.87,37.17h4.62v1.17H38.26v1.92H41v1.17H38.26v2.22h3.35v1.17H36.87Z"/><path class="cls-3" d="M42.57,40.92C42.57,38.45,44,37,46,37s3.38,1.46,3.38,3.93-1.38,4-3.38,4S42.57,43.4,42.57,40.92Zm5.33,0c0-1.7-.77-2.71-1.95-2.71s-2,1-2,2.71.76,2.8,2,2.8S47.9,42.63,47.9,40.92Z"/><path class="cls-3" d="M51,37.17h4.6v1.17H52.36v2.14h2.76v1.17H52.36v3.17H51Z"/><path class="cls-3" d="M56.53,43.8l.74-.91a3.1,3.1,0,0,0,2,.83c.85,0,1.31-.39,1.31-1s-.49-.81-1.18-1.1l-1-.46a2.18,2.18,0,0,1-1.54-2A2.34,2.34,0,0,1,59.32,37h.11a3.43,3.43,0,0,1,2.38,1l-.75.91a2.52,2.52,0,0,0-1.63-.64c-.71,0-1.17.32-1.17.87s.57.8,1.2,1.07l1,.42A2.13,2.13,0,0,1,62,42.68C62,43.92,61,45,59.25,45A3.77,3.77,0,0,1,56.53,43.8Z"/><path class="cls-3" d="M63.15,41c0-2.51,1.57-4,3.51-4a3,3,0,0,1,2.21,1l-.74.85a2,2,0,0,0-1.45-.6c-1.22,0-2.1,1-2.1,2.73s.8,2.78,2.08,2.78A2,2,0,0,0,68.27,43l.75.83a3.05,3.05,0,0,1-2.42,1.11C64.68,44.92,63.15,43.52,63.15,41Z"/><path class="cls-3" d="M70.4,37.17h1.39v3h3v-3h1.39v7.65H74.84V41.45h-3v3.37H70.4Z"/><path class="cls-3" d="M77.88,40.92c0-2.47,1.38-3.93,3.38-3.93s3.38,1.46,3.38,3.93-1.38,4-3.38,4S77.88,43.4,77.88,40.92Zm5.33,0c0-1.7-.77-2.71-1.95-2.71s-2,1-2,2.71.77,2.8,2,2.8S83.21,42.63,83.21,40.92Z"/><path class="cls-3" d="M85.88,40.92c0-2.47,1.38-3.93,3.38-3.93s3.38,1.46,3.38,3.93-1.38,4-3.38,4S85.88,43.4,85.88,40.92Zm5.34,0c0-1.7-.78-2.71-2-2.71s-2,1-2,2.71.76,2.8,2,2.8S91.22,42.63,91.22,40.92Z"/><path class="cls-3" d="M94.28,37.17h1.39v6.48h3.16v1.17H94.28Z"/><path class="cls-3" d="M112.46,44.82V34.59H115a4.73,4.73,0,0,1,3.61,1.31,5.31,5.31,0,0,1,1.23,3.76,7.21,7.21,0,0,1-.31,2.17,4.43,4.43,0,0,1-.92,1.62,4,4,0,0,1-1.5,1,5.48,5.48,0,0,1-2,.35Zm1.3-1.06h1.17a3.29,3.29,0,0,0,2.69-1.08,4.59,4.59,0,0,0,.9-3,4.38,4.38,0,0,0-.9-3,3.37,3.37,0,0,0-2.69-1h-1.17Z"/><path class="cls-3" d="M124.94,45a3.46,3.46,0,0,1-1.42-.28,3.26,3.26,0,0,1-1.16-.78,3.55,3.55,0,0,1-.77-1.24,5,5,0,0,1,0-3.34,4,4,0,0,1,.76-1.26,3.54,3.54,0,0,1,1.09-.79,3.07,3.07,0,0,1,1.26-.27,3.19,3.19,0,0,1,1.29.25,2.57,2.57,0,0,1,1,.72,3.15,3.15,0,0,1,.58,1.12,4.59,4.59,0,0,1,.21,1.47V41a1.82,1.82,0,0,1,0,.33h-5.12a3.05,3.05,0,0,0,.76,1.93,2.32,2.32,0,0,0,1.77.71,3.09,3.09,0,0,0,1-.17,4.22,4.22,0,0,0,.88-.43l.45.85a5.7,5.7,0,0,1-1.11.54A3.74,3.74,0,0,1,124.94,45Zm-2.38-4.59h4a2.67,2.67,0,0,0-.49-1.75,1.69,1.69,0,0,0-1.38-.6,1.92,1.92,0,0,0-1.43.61,2.61,2.61,0,0,0-.5.74A3.12,3.12,0,0,0,122.56,40.42Z"/><path class="cls-3" d="M129.54,48V37.24h1.07l.1.87h0a6.52,6.52,0,0,1,1.13-.75,3,3,0,0,1,2.58,0,2.63,2.63,0,0,1,.94.78,3.68,3.68,0,0,1,.57,1.22,6.15,6.15,0,0,1,.19,1.6,5,5,0,0,1-.26,1.72,4,4,0,0,1-.72,1.29,2.84,2.84,0,0,1-2.25,1.08,2.41,2.41,0,0,1-1-.24,5,5,0,0,1-1.06-.64v3.89Zm3.14-4.09a1.89,1.89,0,0,0,.87-.21,2,2,0,0,0,.68-.59,2.83,2.83,0,0,0,.45-1,4.45,4.45,0,0,0,.17-1.26,5.51,5.51,0,0,0-.11-1.14,2.58,2.58,0,0,0-.35-.88,1.81,1.81,0,0,0-.63-.57,1.89,1.89,0,0,0-.91-.2,2.07,2.07,0,0,0-1,.26,5.74,5.74,0,0,0-1.06.77v4a3.68,3.68,0,0,0,1,.61,2.28,2.28,0,0,0,.89.21Z"/><path class="cls-3" d="M139.89,45a2.31,2.31,0,0,1-1.59-.56,2,2,0,0,1-.63-1.6,2.12,2.12,0,0,1,1.11-1.91,9.11,9.11,0,0,1,3.54-.92,3.35,3.35,0,0,0-.07-.71,2,2,0,0,0-.24-.61,1.3,1.3,0,0,0-.48-.42,1.58,1.58,0,0,0-.77-.17,3.26,3.26,0,0,0-1.23.25,7.52,7.52,0,0,0-1,.56L138,38a9.78,9.78,0,0,1,1.29-.66,4.45,4.45,0,0,1,1.69-.32,2.29,2.29,0,0,1,2,.85,3.74,3.74,0,0,1,.63,2.27v4.65h-1.06l-.11-.9h0a6.07,6.07,0,0,1-1.17.77A3,3,0,0,1,139.89,45Zm.37-1a2.07,2.07,0,0,0,1-.26,4.63,4.63,0,0,0,1-.76v-2.1a14.5,14.5,0,0,0-1.6.29,4,4,0,0,0-1,.41,1.67,1.67,0,0,0-.58.54,1.28,1.28,0,0,0-.18.66,1.06,1.06,0,0,0,.39.94,1.66,1.66,0,0,0,1,.25Z"/><path class="cls-3" d="M145.94,44.82V37.24H147l.11,1.37h0a3.57,3.57,0,0,1,.94-1.14,2,2,0,0,1,1.21-.42,1.89,1.89,0,0,1,.81.16l-.25,1.12-.34-.09a2.54,2.54,0,0,0-.39,0,1.72,1.72,0,0,0-1,.39,3.12,3.12,0,0,0-.91,1.35v4.87Z"/><path class="cls-3" d="M154.24,45a2.65,2.65,0,0,1-1-.19,1.87,1.87,0,0,1-.67-.51,2,2,0,0,1-.37-.8,4.79,4.79,0,0,1-.11-1v-4.2H151v-1l1.18-.08.16-2.12h1.08v2.12h2v1h-2v4.22a2,2,0,0,0,.25,1.08,1,1,0,0,0,.92.38,1.54,1.54,0,0,0,.43-.06,3.09,3.09,0,0,0,.43-.14l.25,1c-.21.07-.44.13-.68.19A2.94,2.94,0,0,1,154.24,45Z"/><path class="cls-3" d="M157.11,44.82V37.24h1.06l.11,1.09h.05a5.22,5.22,0,0,1,1.08-.91,2.38,2.38,0,0,1,1.27-.37,2.21,2.21,0,0,1,1.37.38,2.24,2.24,0,0,1,.72,1.07,6.78,6.78,0,0,1,1.2-1,2.32,2.32,0,0,1,1.3-.4,2,2,0,0,1,1.74.75,3.7,3.7,0,0,1,.57,2.22v4.8H166.3v-4.7a2.75,2.75,0,0,0-.34-1.56,1.24,1.24,0,0,0-1.06-.47A2.82,2.82,0,0,0,163,39.31V44.8h-1.28V40.17a2.75,2.75,0,0,0-.34-1.56,1.27,1.27,0,0,0-1.08-.47,2.83,2.83,0,0,0-1.9,1.17V44.8Z"/><path class="cls-3" d="M173.1,45a3.51,3.51,0,0,1-1.43-.28,3.42,3.42,0,0,1-1.92-2,5.12,5.12,0,0,1,0-3.34,4.19,4.19,0,0,1,.77-1.26,3.5,3.5,0,0,1,1.08-.79,3.26,3.26,0,0,1,2.55,0,2.67,2.67,0,0,1,1,.72,3.15,3.15,0,0,1,.58,1.12,4.88,4.88,0,0,1,.2,1.47V41a1.82,1.82,0,0,1,0,.33h-5.12a2.92,2.92,0,0,0,.76,1.93,2.32,2.32,0,0,0,1.77.71,2.84,2.84,0,0,0,1-.17,4.29,4.29,0,0,0,.89-.43l.45.85a5.7,5.7,0,0,1-1.11.54A3.69,3.69,0,0,1,173.1,45Zm-2.39-4.59h4.06a2.67,2.67,0,0,0-.49-1.75,1.69,1.69,0,0,0-1.38-.6,2,2,0,0,0-.77.15,2.22,2.22,0,0,0-.67.46,2.8,2.8,0,0,0-.49.74A3.88,3.88,0,0,0,170.71,40.42Z"/><path class="cls-3" d="M177.75,44.82V37.24h1.06l.11,1.09H179a5.92,5.92,0,0,1,1.14-.91,2.65,2.65,0,0,1,1.4-.37,2,2,0,0,1,1.75.75,3.69,3.69,0,0,1,.56,2.22v4.8h-1.28V40.17a2.84,2.84,0,0,0-.34-1.56,1.3,1.3,0,0,0-1.1-.47,1.86,1.86,0,0,0-1,.3,5.89,5.89,0,0,0-1,.87V44.8Z"/><path class="cls-3" d="M188.65,45a2.65,2.65,0,0,1-1-.19,1.87,1.87,0,0,1-.67-.51,2.17,2.17,0,0,1-.37-.8,4.78,4.78,0,0,1-.1-1v-4.2h-1.13v-1l1.19-.08.15-2.12h1.08v2.12h2v1h-2v4.22a2,2,0,0,0,.26,1.08,1,1,0,0,0,.91.38,1.61,1.61,0,0,0,.44-.06l.42-.14.25,1c-.21.07-.44.13-.68.19A2.72,2.72,0,0,1,188.65,45Z"/><path class="cls-3" d="M194.6,44.82V34.59h1.34l3.7,6.42,1.11,2.13h.06c0-.52-.07-1.06-.1-1.62s-.06-1.1-.06-1.65V34.59h1.23V44.82h-1.34l-3.71-6.44-1.11-2.11h-.06l.12,1.58c0,.54.05,1.08.05,1.62v5.35Z"/><path class="cls-3" d="M206.06,45a2.29,2.29,0,0,1-1.58-.56,2,2,0,0,1-.63-1.6A2.12,2.12,0,0,1,205,40.94,9.11,9.11,0,0,1,208.5,40a4.27,4.27,0,0,0-.07-.71,2,2,0,0,0-.24-.61,1.3,1.3,0,0,0-.48-.42,1.58,1.58,0,0,0-.77-.17,3.26,3.26,0,0,0-1.23.25,7.52,7.52,0,0,0-1,.56l-.5-.89a7.84,7.84,0,0,1,1.29-.66,4.45,4.45,0,0,1,1.69-.32,2.33,2.33,0,0,1,2,.85,3.8,3.8,0,0,1,.62,2.27v4.65h-1.06l-.11-.9h0a7.62,7.62,0,0,1-1.17.77A3,3,0,0,1,206.06,45Zm.38-1a2.07,2.07,0,0,0,1-.26,5.28,5.28,0,0,0,1-.76v-2.1a12.49,12.49,0,0,0-1.6.29,4.32,4.32,0,0,0-1.05.41,1.64,1.64,0,0,0-.57.54,1.28,1.28,0,0,0-.18.66,1.06,1.06,0,0,0,.39.94,1.64,1.64,0,0,0,1,.25Z"/><path class="cls-3" d="M212.1,44.82V37.24h1.06l.11,1.09h0a5.22,5.22,0,0,1,1.08-.91,2.38,2.38,0,0,1,1.27-.37,2,2,0,0,1,2.09,1.45,6.38,6.38,0,0,1,1.2-1,2.32,2.32,0,0,1,1.3-.4,2,2,0,0,1,1.74.75,3.7,3.7,0,0,1,.57,2.22v4.8h-1.28v-4.7a2.74,2.74,0,0,0-.35-1.56,1.24,1.24,0,0,0-1.06-.47,2.83,2.83,0,0,0-1.9,1.17V44.8H216.7V40.17a2.75,2.75,0,0,0-.34-1.56,1.27,1.27,0,0,0-1.08-.47,2.78,2.78,0,0,0-1.9,1.17V44.8Z"/><path class="cls-3" d="M228.06,45a3.51,3.51,0,0,1-1.43-.28,3.22,3.22,0,0,1-1.15-.78,3.57,3.57,0,0,1-.78-1.24,4.73,4.73,0,0,1-.28-1.67,4.52,4.52,0,0,1,.29-1.67,3.82,3.82,0,0,1,.77-1.26,3.39,3.39,0,0,1,1.08-.79,3.23,3.23,0,0,1,2.55,0,2.5,2.5,0,0,1,.95.72,3.17,3.17,0,0,1,.59,1.12,5.21,5.21,0,0,1,.2,1.47V41a1.82,1.82,0,0,1,0,.33h-5.11a3,3,0,0,0,.75,1.93,2.39,2.39,0,0,0,1.77.71,3.09,3.09,0,0,0,1-.17,4.22,4.22,0,0,0,.88-.43l.45.85a5.9,5.9,0,0,1-1.1.54A3.66,3.66,0,0,1,228.06,45Zm-2.39-4.59h4.06a2.73,2.73,0,0,0-.49-1.75,1.68,1.68,0,0,0-1.39-.6,2,2,0,0,0-.77.15,2.18,2.18,0,0,0-.66.46,2.58,2.58,0,0,0-.49.74A3.21,3.21,0,0,0,225.67,40.42Z"/></svg>