<svg id="Layer_1" data-name="Layer 1" xmlns="http://www.w3.org/2000/svg" viewBox="0 0 120 120"><defs><style>.cls-1{fill:#a90533;}.cls-2{fill:none;stroke:#231f20;stroke-miterlimit:10;stroke-width:0.72px;}.cls-3{fill:#231f20;}</style></defs><path class="cls-1" d="M34.08,27.39a12.79,12.79,0,0,0-2.48.94,1.9,1.9,0,0,0-1,1.77,1.51,1.51,0,0,0,1.34,1.65,1.29,1.29,0,0,0,.34,0,3.05,3.05,0,0,0,1.78-.53V27.39Zm-2.7,5.94c-3.06,0-3.3-2.33-3.3-3a3,3,0,0,1,2.18-3c2-.74,2.44-.83,3.82-1.26v-.36A3.33,3.33,0,0,0,34,24.38a2,2,0,0,0-2.07-1.3,2.47,2.47,0,0,0-2.16,1.18l-.12.23L29,24.15l.06-.17A3.78,3.78,0,0,1,32.9,21.6,3.53,3.53,0,0,1,36.13,23,5.73,5.73,0,0,1,36.65,26c0,1,0,2,0,2.93v1.43c0,.8.13,1.42.79,1.42a.57.57,0,0,0,.38-.11l.18-.16.37.43-.12.16A2.75,2.75,0,0,1,36,33.3a1.63,1.63,0,0,1-1.72-1.14,3.83,3.83,0,0,1-2.83,1.17Z"/><path class="cls-1" d="M12.68,33.3A11.17,11.17,0,0,1,9,32.8H8.83V29.54h.66v.24A2.3,2.3,0,0,0,10,31.14a3.78,3.78,0,0,0,2.62.87c2.15,0,3.15-.81,3.15-2.56,0-1.5-.92-2.12-2.2-3l-.21-.14L12,25.41c-1.88-1.24-2.83-2.24-2.83-4.23,0-1,.37-4.15,5.1-4.15a24.28,24.28,0,0,1,3.51.26H18V20.6h-.57v-.23A2,2,0,0,0,16.88,19a3.91,3.91,0,0,0-2.53-.67c-2.51,0-2.8,1.29-2.8,2.26,0,1.33.68,1.78,2.17,2.76l1.71,1.14c1.46,1,2.83,1.89,2.83,4.3,0,4.09-3.81,4.54-5.45,4.54Z"/><path class="cls-1" d="M23.89,33.37c-1.74,0-2.71-.62-3.15-2a9.87,9.87,0,0,1-.17-2.3V23.35H19.12v-.44l.15-.06a4.38,4.38,0,0,0,1.26-.72,7.75,7.75,0,0,0,1.85-2.33l.26-.43h.49v2.54H27v1.4H23.13v5.93c0,1.77.33,2.78,2,2.78a3.26,3.26,0,0,0,1.38-.3l.23-.12.2.46-.1.11a3.69,3.69,0,0,1-3,1.18Z"/><path class="cls-1" d="M39.25,33.22v-.53h.22a1.59,1.59,0,0,0,1-.47c.35-.39.37-1.36.37-3.28V25.7a5.2,5.2,0,0,0-.22-2.28,1.3,1.3,0,0,0-1-.39h-.31v-.65h.43a11.23,11.23,0,0,0,2-.22A3.72,3.72,0,0,0,43,21.8l.13-.07.22.14v.89a5.64,5.64,0,0,1,3.27-1.08,3.49,3.49,0,0,1,3.75,2.67,12.15,12.15,0,0,1,.14,2v3.3c0,1.86.08,2.39.43,2.72a1.53,1.53,0,0,0,.87.31H52v.53h-.55c-.82,0-1.52-.08-2.25-.08s-1.55,0-2.56.09h-.26v-.51h.2a1.71,1.71,0,0,0,.94-.39,3.39,3.39,0,0,0,.41-2v-2.4a22.43,22.43,0,0,0-.1-2.59,2.12,2.12,0,0,0-2.07-2.15l-.32,0a4.41,4.41,0,0,0-2.11.47V29.6c0,1.86.07,2.39.42,2.72a1.53,1.53,0,0,0,.87.31h.22v.53h-.6c-.78,0-1.45-.07-2.17-.07s-1.58,0-2.59.09h-.26Z"/><path class="cls-1" d="M53.34,33.22v-.54h.22a1.46,1.46,0,0,0,1-.46c.35-.39.37-1.35.37-3.27v-5.6H53.46V22.7l.14-.07a5.6,5.6,0,0,0,1.33-.69,20.12,20.12,0,0,1,.17-3c.44-2.33,2-3.51,4.53-3.51a4.65,4.65,0,0,1,2.75.86l.09.07v.24l-1.13,1.56h-.26L61,18a1.94,1.94,0,0,0-1.9-1.33,1.69,1.69,0,0,0-1.14.4c-.49.49-.57,1.22-.57,2.66v2.18H60v1.4H57.48V29.6a5.88,5.88,0,0,0,.25,2.5c.31.48,1.27.51,1.55.51h.24v.61h-.25c-1.24-.06-2.17-.09-2.83-.09-.84,0-1.79,0-2.8.09h-.3Z"/><path class="cls-1" d="M66.47,22.93a2.36,2.36,0,0,0-1.6.51c-.91.76-1.37,2.14-1.37,4.11,0,.76.14,4.56,2.92,4.56A2.36,2.36,0,0,0,68,31.6c.91-.76,1.37-2.14,1.37-4.12C69.39,26.72,69.24,22.93,66.47,22.93Zm-.14,10.49c-3.45,0-5.51-2.15-5.51-5.75,0-2.79,1.5-6.05,5.74-6.05,3.45,0,5.51,2.15,5.51,5.74C72.07,30.16,70.56,33.42,66.33,33.42Z"/><path class="cls-1" d="M73.16,33.22v-.57h.22a1.47,1.47,0,0,0,1-.47c.35-.39.37-1.32.37-3.24V25.7a5.2,5.2,0,0,0-.22-2.28,1.33,1.33,0,0,0-1-.39h-.31v-.68h.43a11.79,11.79,0,0,0,2-.22,5.69,5.69,0,0,0,1.21-.32l.12-.06.21.11v1a3.71,3.71,0,0,1,2.61-1,2.76,2.76,0,0,1,1.89.63l.08.07v.24l-1,1.74h-.46l-.06-.1a2,2,0,0,0-1.82-.91,2.19,2.19,0,0,0-1.24.36V29.6a5.79,5.79,0,0,0,.25,2.48c.31.47,1.27.51,1.55.51h.24v.63H79c-1.24-.06-2.16-.09-2.83-.09-.84,0-1.79,0-2.8.09h-.24Z"/><path class="cls-1" d="M88.31,23C86.1,23,85,24.51,85,27.6c0,1.26.35,4.18,3.63,4.18h.11a3.49,3.49,0,0,0,1.79-.46V23.8A3.13,3.13,0,0,0,88.31,23Zm2.6,10.38-.3-.1v-1a5.23,5.23,0,0,1-3.16,1.06c-3.1,0-5.1-2.15-5.1-5.48a7.39,7.39,0,0,1,.61-3,5.65,5.65,0,0,1,5.39-3.22,11.73,11.73,0,0,1,2.21.21v-2.4A6.21,6.21,0,0,0,90.34,17a1.32,1.32,0,0,0-1-.38H89l0-.51h.24s1.36-.11,2.42-.31a8.15,8.15,0,0,0,1.11-.26H93l.19.11v.11c-.07.93-.09,2.92-.09,4.41v9.21a6.59,6.59,0,0,0,.22,2.5,1.27,1.27,0,0,0,1,.41h.3v.61h-.23a16.1,16.1,0,0,0-2.19.23,6.7,6.7,0,0,0-1.16.26Z"/><line class="cls-2" x1="93.91" y1="59.79" x2="7.96" y2="59.79"/><path class="cls-3" d="M8.5,51.18l.92-1.13a3.68,3.68,0,0,0,2.52,1c1,0,1.61-.47,1.61-1.19s-.6-1-1.45-1.36l-1.28-.56a2.68,2.68,0,0,1-1.9-2.49A2.88,2.88,0,0,1,12,42.79h.09A4.27,4.27,0,0,1,15,44l-.92,1.12a3.14,3.14,0,0,0-2-.79c-.87,0-1.44.4-1.44,1.08s.71,1,1.49,1.31l1.27.52a2.63,2.63,0,0,1,1.9,2.6c0,1.53-1.27,2.81-3.4,2.81A4.69,4.69,0,0,1,8.5,51.18Z"/><path class="cls-3" d="M16.89,47.7c0-3.08,1.93-4.91,4.32-4.91A3.72,3.72,0,0,1,23.94,44L23,45a2.43,2.43,0,0,0-1.79-.75c-1.49,0-2.59,1.27-2.59,3.37s1,3.41,2.56,3.41a2.59,2.59,0,0,0,2-.9l.92,1a3.74,3.74,0,0,1-3,1.37C18.78,52.56,16.89,50.8,16.89,47.7Z"/><path class="cls-3" d="M26.07,43h1.71v3.78h3.74V43h1.72v9.42H31.52V48.24H27.78v4.14H26.07Z"/><path class="cls-3" d="M35.51,47.63c0-3,1.7-4.84,4.16-4.84s4.17,1.8,4.17,4.84-1.7,4.93-4.17,4.93S35.51,50.68,35.51,47.63Zm6.57,0c0-2.09-1-3.34-2.41-3.34s-2.4,1.25-2.4,3.34.94,3.44,2.4,3.44S42.08,49.73,42.08,47.63Z"/><path class="cls-3" d="M45.61,47.63c0-3,1.7-4.84,4.16-4.84s4.16,1.8,4.16,4.84-1.7,4.93-4.16,4.93S45.61,50.68,45.61,47.63Zm6.56,0c0-2.09-1-3.34-2.4-3.34s-2.41,1.25-2.41,3.34.94,3.44,2.41,3.44S52.17,49.73,52.17,47.63Z"/><path class="cls-3" d="M56.19,43H57.9v8h3.89V52.4h-5.6Z"/><path class="cls-3" d="M63.81,43h1.83l2.82,5.19a18.76,18.76,0,0,1,1,2.13h.06c-.1-1-.21-2.16-.21-3.2V43h1.6v9.42H69L66.17,47.2a20.66,20.66,0,0,1-1-2.13h-.06c.1,1,.22,2.14.22,3.19v4.12h-1.6Z"/><path class="cls-3" d="M75.46,43h2l3.06,9.42H78.7L78,49.86H74.86l-.72,2.52H72.4Zm-.2,5.56h2.36L77.3,47.4c-.3-1-.58-2.07-.85-3.1h-.06c-.24,1-.51,2.11-.82,3.1Z"/><path class="cls-3" d="M82.05,43h2l1.61,4.61c.2.61.38,1.16.55,1.85h.06c.17-.69.31-1.24.52-1.85L88.4,43h2v9.42H88.81V48.09A26,26,0,0,1,89.07,45H89l-.75,2.27-1.52,4.21H85.61l-1.5-4.21L83.37,45h-.06a28.3,28.3,0,0,1,.26,3.05v4.29H82Z"/><path class="cls-3" d="M93.18,43h5.69v1.45h-4V46.8h3.37v1.44H94.9V51H99v1.44H93.16Z"/><path d="M10.87,97.86H12.7c1.23,0,2,.46,2,1.59,0,1.59-1.18,2.31-2.84,2.31h-1l-.52,2.6H9.57Zm1.07,3.26c1.33,0,2-.53,2-1.57,0-.75-.52-1.06-1.47-1.06h-1L11,101.12Z"/><path d="M15.09,102.74c0-1.86,1.26-3.31,2.6-3.31a1.3,1.3,0,0,1,1.16.72h0l.19-.6h.62l-1,4.81H18l.07-.71h0a2.43,2.43,0,0,1-1.68.83C15.63,104.48,15.09,103.86,15.09,102.74Zm3.17.18.44-2.12a1.14,1.14,0,0,0-1-.7c-1,0-1.84,1.22-1.84,2.55,0,.83.34,1.22.87,1.22A1.92,1.92,0,0,0,18.26,102.92Z"/><path d="M21.3,99.55h.64l-.12.92h0a1.91,1.91,0,0,1,1.48-1,1.27,1.27,0,0,1,.47.09l-.27.66a1,1,0,0,0-.41-.06c-.49,0-1,.42-1.43,1.21l-.59,3H20.3Z"/><path d="M23.81,102.47a2.87,2.87,0,0,1,2.57-3c1.08,0,1.5.75,1.5,1.74a2.85,2.85,0,0,1-.18,1H24.58c-.17,1.22.48,1.73,1.3,1.73a1.82,1.82,0,0,0,1.09-.37l.27.46a2.33,2.33,0,0,1-1.5.53,1.81,1.81,0,0,1-1.95-1.66A2.07,2.07,0,0,1,23.81,102.47Zm3.36-.92a1.7,1.7,0,0,0,0-.45c0-.54-.23-1.06-.93-1.06a1.83,1.83,0,0,0-1.62,1.51Z"/><path d="M29.48,99.55h.63l-.07.72h0a2.57,2.57,0,0,1,1.67-.84c.81,0,1.15.45,1.15,1.2a2.91,2.91,0,0,1-.08.66l-.62,3.07h-.77l.61-3a2.7,2.7,0,0,0,.08-.57.65.65,0,0,0-.54-.73.54.54,0,0,0-.18,0,2.37,2.37,0,0,0-1.44.86l-.68,3.41h-.76Z"/><path d="M34.12,103.39a4.51,4.51,0,0,1,0-.52l.57-2.71H34l.11-.56.76,0L35.26,98h.65l-.3,1.54h1.22l-.13.61H35.5l-.56,2.74a2.16,2.16,0,0,0,0,.36c0,.4.15.59.58.59a1.17,1.17,0,0,0,.52-.12l.17.51a1.86,1.86,0,0,1-.92.24,1,1,0,0,1-1.16-.81A.87.87,0,0,1,34.12,103.39Z"/><path d="M39.46,102.42a5.63,5.63,0,0,1,.1-.91l.73-3.65h.78l-.74,3.72a3.46,3.46,0,0,0-.09.78c0,.92.41,1.44,1.31,1.44s1.36-.44,1.65-2l.8-4h.76l-.8,4c-.4,2-1.27,2.61-2.45,2.61a1.83,1.83,0,0,1-2-1.61A1.6,1.6,0,0,1,39.46,102.42Z"/><path d="M46.06,99.55h.64l-.08.72h0a2.57,2.57,0,0,1,1.67-.84c.81,0,1.15.45,1.15,1.2a2.91,2.91,0,0,1-.08.66l-.61,3.07H48l.61-3a2.7,2.7,0,0,0,.08-.57.65.65,0,0,0-.54-.73.54.54,0,0,0-.18,0,2.37,2.37,0,0,0-1.44.86l-.67,3.41h-.77Z"/><path d="M51.29,99.55h.76l-1,4.81h-.76Zm.14-1.45a.58.58,0,0,1,.57-.57h0a.45.45,0,0,1,.49.41v0a.57.57,0,0,1-.57.57h0a.45.45,0,0,1-.48-.42Z"/><path d="M53.07,103.39a3.05,3.05,0,0,1,0-.52l.57-2.71H53l.11-.56.75,0,.4-1.54h.64l-.29,1.54h1.22l-.13.61H54.47l-.57,2.74a2.16,2.16,0,0,0,0,.36c0,.4.16.59.59.59a1.13,1.13,0,0,0,.51-.12l.18.51a1.86,1.86,0,0,1-.92.24,1,1,0,0,1-1.18-.78A1.08,1.08,0,0,1,53.07,103.39Z"/><path d="M59.27,97.86h.78l-1.17,5.85h2.74l-.14.65H58Z"/><path d="M62.6,102.47a2.87,2.87,0,0,1,2.57-3c1.08,0,1.5.75,1.5,1.74a2.85,2.85,0,0,1-.18,1H63.37c-.17,1.22.47,1.73,1.3,1.73a1.76,1.76,0,0,0,1.08-.37L66,104a2.33,2.33,0,0,1-1.5.53,1.81,1.81,0,0,1-2-1.66A2.07,2.07,0,0,1,62.6,102.47Zm3.35-.92a1.68,1.68,0,0,0,.06-.45c0-.54-.24-1.06-.93-1.06a1.83,1.83,0,0,0-1.62,1.51Z"/><path d="M67.59,99.55h.76l.34,2.77c.06.48.1,1,.15,1.45h0c.23-.49.47-1,.71-1.45L71,99.55h.76l-2.55,4.81h-.92Z"/><path d="M71.83,102.47a2.87,2.87,0,0,1,2.58-3c1.08,0,1.49.75,1.49,1.74a2.85,2.85,0,0,1-.18,1H72.6c-.16,1.22.48,1.73,1.3,1.73a1.79,1.79,0,0,0,1.09-.37l.28.46a2.38,2.38,0,0,1-1.51.53,1.81,1.81,0,0,1-2-1.66A2.07,2.07,0,0,1,71.83,102.47Zm3.36-.92a1.68,1.68,0,0,0,.06-.45c0-.54-.24-1.06-.93-1.06a1.84,1.84,0,0,0-1.63,1.51Z"/><path d="M76.72,103.8a1.39,1.39,0,0,1,.06-.4L78,97.27h.76l-1.23,6.16a.81.81,0,0,0,0,.22.13.13,0,0,0,.13.15h.17l.06.56a1.1,1.1,0,0,1-.47.1C76.94,104.48,76.72,104.25,76.72,103.8Z"/><path d="M9,77.57V69.3h2.06A3.84,3.84,0,0,1,14,70.36a4.32,4.32,0,0,1,1,3,5.51,5.51,0,0,1-.25,1.76A3.48,3.48,0,0,1,14,76.43a3.33,3.33,0,0,1-1.21.82,4.45,4.45,0,0,1-1.65.29Zm1-.86h1a2.66,2.66,0,0,0,2.17-.87,3.65,3.65,0,0,0,.73-2.45,3.52,3.52,0,0,0-.73-2.4A2.71,2.71,0,0,0,11,70.16H10Z"/><path d="M19.22,77.72a3.05,3.05,0,0,1-1.15-.22,2.69,2.69,0,0,1-.93-.63,2.74,2.74,0,0,1-.63-1,3.81,3.81,0,0,1-.22-1.34,3.74,3.74,0,0,1,.23-1.36,3.05,3.05,0,0,1,.62-1,2.62,2.62,0,0,1,.87-.64,2.43,2.43,0,0,1,1-.22,2.66,2.66,0,0,1,1,.2,2.09,2.09,0,0,1,.77.58,2.63,2.63,0,0,1,.47.91,4,4,0,0,1,.17,1.18v.32a1.31,1.31,0,0,1,0,.28H17.31a2.32,2.32,0,0,0,.61,1.55,1.83,1.83,0,0,0,1.43.57,2.22,2.22,0,0,0,.81-.13,3.09,3.09,0,0,0,.71-.34l.37.68a5.35,5.35,0,0,1-.9.44A3.05,3.05,0,0,1,19.22,77.72ZM17.29,74h3.28a2.19,2.19,0,0,0-.4-1.42,1.38,1.38,0,0,0-1.11-.48,1.51,1.51,0,0,0-.63.13,1.64,1.64,0,0,0-.53.37,2.17,2.17,0,0,0-.4.6,2.87,2.87,0,0,0-.21.8Z"/><path d="M23.05,80.15V71.44h.86l.09.71h0a4.67,4.67,0,0,1,.91-.61,2.46,2.46,0,0,1,1-.25,2.43,2.43,0,0,1,1,.22,2.11,2.11,0,0,1,.76.63,3.13,3.13,0,0,1,.46,1,5.2,5.2,0,0,1,.16,1.3,4,4,0,0,1-.22,1.39,3.12,3.12,0,0,1-.58,1,2.33,2.33,0,0,1-1.85.87,2.1,2.1,0,0,1-.85-.19,4.12,4.12,0,0,1-.85-.52v3.14Zm2.53-3.3a1.45,1.45,0,0,0,.7-.17,1.73,1.73,0,0,0,.56-.48,2.13,2.13,0,0,0,.36-.76,3.72,3.72,0,0,0,.14-1,4.7,4.7,0,0,0-.09-.92A2.13,2.13,0,0,0,27,72.8a1.47,1.47,0,0,0-.5-.46,1.7,1.7,0,0,0-.74-.16,1.78,1.78,0,0,0-.78.21,4.75,4.75,0,0,0-.85.62v3.22a2.54,2.54,0,0,0,.8.49A1.84,1.84,0,0,0,25.58,76.85Z"/><path d="M31.36,77.72a1.82,1.82,0,0,1-1.28-.46A1.63,1.63,0,0,1,29.57,76a1.72,1.72,0,0,1,.89-1.55,7.73,7.73,0,0,1,2.86-.75,2.62,2.62,0,0,0,0-.56,1.49,1.49,0,0,0-.2-.49.92.92,0,0,0-.38-.35,1.37,1.37,0,0,0-.63-.13,2.66,2.66,0,0,0-1,.2,4.44,4.44,0,0,0-.83.45l-.41-.72a7.34,7.34,0,0,1,1-.53,3.7,3.7,0,0,1,1.36-.26,1.9,1.9,0,0,1,1.62.69,3,3,0,0,1,.51,1.83v3.76H33.5l-.09-.73h0a4.91,4.91,0,0,1-1,.62A2.27,2.27,0,0,1,31.36,77.72Zm.3-.84a1.62,1.62,0,0,0,.83-.2,3.78,3.78,0,0,0,.83-.61v-1.7A11.24,11.24,0,0,0,32,74.6a4.31,4.31,0,0,0-.84.33,1.41,1.41,0,0,0-.47.44,1,1,0,0,0-.14.53.85.85,0,0,0,.31.76A1.26,1.26,0,0,0,31.66,76.88Z"/><path d="M36.27,77.57V71.44h.86l.09,1.11h0a2.85,2.85,0,0,1,.77-.92,1.62,1.62,0,0,1,1.63-.21l-.2.9-.28-.07a1.71,1.71,0,0,0-.32,0,1.41,1.41,0,0,0-.81.32,2.47,2.47,0,0,0-.74,1.09V77.6Z"/><path d="M43.18,77.72a1.93,1.93,0,0,1-.82-.15,1.27,1.27,0,0,1-.55-.42,1.69,1.69,0,0,1-.29-.64,3.84,3.84,0,0,1-.09-.83V72.29h-.91v-.78l1-.07.13-1.71h.87v1.71h1.65v.85H42.52v3.4a1.53,1.53,0,0,0,.2.87.8.8,0,0,0,.74.31,1,1,0,0,0,.35,0,1.93,1.93,0,0,0,.34-.11l.2.78c-.16.06-.35.11-.54.16A2.66,2.66,0,0,1,43.18,77.72Z"/><path d="M45.55,77.57V71.44h.86l.08.88h0a4.12,4.12,0,0,1,.88-.73,1.86,1.86,0,0,1,1-.3,1.59,1.59,0,0,1,1.69,1.17,5.42,5.42,0,0,1,1-.85,1.88,1.88,0,0,1,1-.32,1.64,1.64,0,0,1,1.4.61,2.94,2.94,0,0,1,.46,1.78v3.89h-1V73.8a2.12,2.12,0,0,0-.28-1.25,1,1,0,0,0-.85-.38,2.29,2.29,0,0,0-1.54.94v4.44h-1V73.8A2.28,2.28,0,0,0,49,72.55a1,1,0,0,0-.87-.38,2.29,2.29,0,0,0-1.54.94v4.44Z"/><path d="M58.52,77.72a3.07,3.07,0,0,1-1.16-.22,2.69,2.69,0,0,1-.93-.63,3.05,3.05,0,0,1-.62-1,3.6,3.6,0,0,1-.23-1.34,3.74,3.74,0,0,1,.23-1.36,3.05,3.05,0,0,1,.62-1,2.77,2.77,0,0,1,.88-.64,2.43,2.43,0,0,1,1-.22,2.66,2.66,0,0,1,1,.2,2.06,2.06,0,0,1,.76.58,2.66,2.66,0,0,1,.48.91,4,4,0,0,1,.16,1.18v.32a1.31,1.31,0,0,1,0,.28H56.6a2.37,2.37,0,0,0,.61,1.55,1.86,1.86,0,0,0,1.43.57,2.22,2.22,0,0,0,.81-.13,3.94,3.94,0,0,0,.72-.34l.36.68a5.66,5.66,0,0,1-.89.44A3.28,3.28,0,0,1,58.52,77.72ZM56.59,74h3.27a2.25,2.25,0,0,0-.39-1.42,1.4,1.4,0,0,0-1.12-.48,1.47,1.47,0,0,0-.62.13,1.45,1.45,0,0,0-.54.37,2.17,2.17,0,0,0-.4.6,2.54,2.54,0,0,0-.2.8Z"/><path d="M62.32,77.57V71.44h.86l.08.88h0a5.08,5.08,0,0,1,.93-.73,2.13,2.13,0,0,1,1.13-.3,1.66,1.66,0,0,1,1.41.61,3,3,0,0,1,.45,1.78v3.89h-1V73.8a2.12,2.12,0,0,0-.28-1.25,1,1,0,0,0-.88-.38,1.69,1.69,0,0,0-.85.23,5.65,5.65,0,0,0-.83.71v4.44Z"/><path d="M71.18,77.72a2,2,0,0,1-.83-.15,1.39,1.39,0,0,1-.54-.42,1.57,1.57,0,0,1-.3-.64,4.58,4.58,0,0,1-.08-.83V72.29h-.91v-.78l1-.07.12-1.71h.87v1.71h1.65v.85H70.51v3.4a1.47,1.47,0,0,0,.21.87.79.79,0,0,0,.74.31,1,1,0,0,0,.35,0,1.93,1.93,0,0,0,.34-.11l.2.78c-.17.06-.35.11-.55.16A2.58,2.58,0,0,1,71.18,77.72Z"/><path d="M76.12,77.57V69.3H77.2l3,5.19.89,1.72h0A7.37,7.37,0,0,0,81,74.9,7.44,7.44,0,0,1,81,73.57V69.3h1v8.27H80.88l-3-5.21-.9-1.7h0c0,.42.07.85.1,1.28s0,.87,0,1.3v4.33Z"/><path d="M85.46,77.72a1.8,1.8,0,0,1-1.27-.46A1.63,1.63,0,0,1,83.68,76a1.7,1.7,0,0,1,.89-1.55,7.73,7.73,0,0,1,2.86-.75,2.67,2.67,0,0,0-.06-.56,1.28,1.28,0,0,0-.19-.49,1,1,0,0,0-.39-.35,1.33,1.33,0,0,0-.62-.13,2.66,2.66,0,0,0-1,.2,4.44,4.44,0,0,0-.83.45l-.4-.72a7.94,7.94,0,0,1,1-.53,3.7,3.7,0,0,1,1.36-.26A1.9,1.9,0,0,1,88,72a3,3,0,0,1,.51,1.83v3.76h-.86l-.09-.73h0a5.27,5.27,0,0,1-.94.62A2.34,2.34,0,0,1,85.46,77.72Zm.31-.84a1.62,1.62,0,0,0,.83-.2,3.78,3.78,0,0,0,.83-.61v-1.7a11.24,11.24,0,0,0-1.29.23,4.4,4.4,0,0,0-.85.33,1.3,1.3,0,0,0-.46.44,1,1,0,0,0-.15.53.86.86,0,0,0,.32.76A1.26,1.26,0,0,0,85.77,76.88Z"/><path d="M90.42,77.57V71.44h.86l.09.88h0a4.68,4.68,0,0,1,.87-.73,2,2,0,0,1,1-.3,1.61,1.61,0,0,1,1.69,1.17,5.84,5.84,0,0,1,1-.85,2,2,0,0,1,1-.32,1.66,1.66,0,0,1,1.41.61,2.94,2.94,0,0,1,.46,1.78v3.89h-1V73.8a2.28,2.28,0,0,0-.28-1.25,1,1,0,0,0-.86-.38,2.29,2.29,0,0,0-1.54.94v4.44h-1V73.8a2.12,2.12,0,0,0-.28-1.25,1,1,0,0,0-.86-.38,2.29,2.29,0,0,0-1.54.94v4.44Z"/><path d="M103.4,77.72a3.05,3.05,0,0,1-1.15-.22,2.69,2.69,0,0,1-.93-.63,2.74,2.74,0,0,1-.63-1,3.81,3.81,0,0,1-.22-1.34,3.74,3.74,0,0,1,.23-1.36,3.05,3.05,0,0,1,.62-1,2.62,2.62,0,0,1,.87-.64,2.43,2.43,0,0,1,1-.22,2.66,2.66,0,0,1,1,.2,2.09,2.09,0,0,1,.77.58,2.63,2.63,0,0,1,.47.91,4,4,0,0,1,.17,1.18v.32a1.31,1.31,0,0,1,0,.28h-4.13a2.32,2.32,0,0,0,.61,1.55,1.83,1.83,0,0,0,1.43.57,2.22,2.22,0,0,0,.81-.13,3.09,3.09,0,0,0,.71-.34l.37.68a5.35,5.35,0,0,1-.9.44A3.16,3.16,0,0,1,103.4,77.72ZM101.47,74h3.28a2.19,2.19,0,0,0-.4-1.42,1.38,1.38,0,0,0-1.11-.48,1.47,1.47,0,0,0-.62.13,1.45,1.45,0,0,0-.54.37,2.17,2.17,0,0,0-.4.6,2.87,2.87,0,0,0-.21.8Z"/><path d="M11.31,91.22a2.74,2.74,0,0,1-2-.84,3.05,3.05,0,0,1-.62-1,4,4,0,0,1,0-2.72,3.05,3.05,0,0,1,.62-1,2.76,2.76,0,0,1,3.89-.11l.11.11a3.05,3.05,0,0,1,.62,1,4.09,4.09,0,0,1,0,2.72,3.05,3.05,0,0,1-.62,1A2.74,2.74,0,0,1,11.31,91.22Zm0-.86a1.55,1.55,0,0,0,1.28-.65A2.42,2.42,0,0,0,13,89a3.81,3.81,0,0,0,.12-1A3.42,3.42,0,0,0,13,87a2.6,2.6,0,0,0-.36-.75A1.68,1.68,0,0,0,12,85.8a1.65,1.65,0,0,0-1.44,0,1.73,1.73,0,0,0-.56.48,2.17,2.17,0,0,0-.36.75,3.76,3.76,0,0,0-.13,1,3.4,3.4,0,0,0,.13,1,2,2,0,0,0,.36.74,1.55,1.55,0,0,0,1.28.65Z"/><path d="M15.78,91.07V84.94h.86l.09.88h0a5,5,0,0,1,.92-.73,2.13,2.13,0,0,1,1.13-.3,1.62,1.62,0,0,1,1.42.61,3,3,0,0,1,.44,1.78v3.89h-1V87.32a2.12,2.12,0,0,0-.28-1.25,1,1,0,0,0-.88-.38,1.63,1.63,0,0,0-.84.23,5.65,5.65,0,0,0-.83.71v4.44Z"/><path d="M28.39,91.22A3.24,3.24,0,0,1,27,90.91a3.11,3.11,0,0,1-1.11-.86,4.07,4.07,0,0,1-.73-1.36,5.76,5.76,0,0,1-.25-1.8,5.68,5.68,0,0,1,.25-1.78,4.13,4.13,0,0,1,.73-1.33A3.06,3.06,0,0,1,27,82.94a3.67,3.67,0,0,1,2.86,0A3.36,3.36,0,0,1,31,83.8a4.07,4.07,0,0,1,.73,1.34A5.56,5.56,0,0,1,32,86.9a5.77,5.77,0,0,1-.26,1.8A4.07,4.07,0,0,1,31,90.06a3.18,3.18,0,0,1-1.13.86A3.15,3.15,0,0,1,28.39,91.22Zm0-.92a2.05,2.05,0,0,0,1-.24,2.31,2.31,0,0,0,.77-.69,3.47,3.47,0,0,0,.49-1.07,4.79,4.79,0,0,0,.18-1.41,4.63,4.63,0,0,0-.18-1.38,3.47,3.47,0,0,0-.49-1.05,2.57,2.57,0,0,0-.77-.66,2.29,2.29,0,0,0-2,0,2.57,2.57,0,0,0-.77.66,3.25,3.25,0,0,0-.49,1.05A4.63,4.63,0,0,0,26,86.89a4.79,4.79,0,0,0,.18,1.41,3.16,3.16,0,0,0,.49,1.07,2.22,2.22,0,0,0,.77.69A2.05,2.05,0,0,0,28.39,90.3Z"/><path d="M33.64,91.07V84.94h.85l.09.88h0a5,5,0,0,1,.92-.73,2.13,2.13,0,0,1,1.13-.3,1.62,1.62,0,0,1,1.42.61,3,3,0,0,1,.45,1.78v3.89h-1V87.32a2.27,2.27,0,0,0-.27-1.25,1,1,0,0,0-.89-.38,1.63,1.63,0,0,0-.84.23,5.65,5.65,0,0,0-.83.71v4.44Z"/><path d="M43,91.22A3.07,3.07,0,0,1,41.84,91a2.69,2.69,0,0,1-.93-.63,3.05,3.05,0,0,1-.62-1A3.6,3.6,0,0,1,40.06,88a3.74,3.74,0,0,1,.23-1.36,3.05,3.05,0,0,1,.62-1,2.77,2.77,0,0,1,.88-.64,2.43,2.43,0,0,1,1-.22,2.66,2.66,0,0,1,1,.2,2.06,2.06,0,0,1,.76.58,2.66,2.66,0,0,1,.48.91,4,4,0,0,1,.16,1.18V88a1.31,1.31,0,0,1,0,.28H41.06a2.37,2.37,0,0,0,.61,1.55,1.86,1.86,0,0,0,1.43.57,2.22,2.22,0,0,0,.81-.13,3.94,3.94,0,0,0,.72-.34l.36.68a5.66,5.66,0,0,1-.89.44A3.16,3.16,0,0,1,43,91.22Zm-1.93-3.71h3.27A2.25,2.25,0,0,0,44,86.09a1.4,1.4,0,0,0-1.12-.48,1.47,1.47,0,0,0-.62.13,1.45,1.45,0,0,0-.54.37,1.83,1.83,0,0,0-.39.6,2.49,2.49,0,0,0-.17.8Z"/><path d="M51.75,91.22a2.74,2.74,0,0,1-2-.84,3.08,3.08,0,0,1-.63-1,4.09,4.09,0,0,1,0-2.72,3.26,3.26,0,0,1,.63-1,2.74,2.74,0,0,1,3.87-.12l.13.12a3.26,3.26,0,0,1,.63,1,4.09,4.09,0,0,1,0,2.72,3.08,3.08,0,0,1-.63,1A2.74,2.74,0,0,1,51.75,91.22Zm0-.86a1.62,1.62,0,0,0,.72-.17,1.44,1.44,0,0,0,.56-.48,2,2,0,0,0,.36-.74,3.72,3.72,0,0,0,0-2,2.17,2.17,0,0,0-.36-.75,1.53,1.53,0,0,0-.56-.48,1.62,1.62,0,0,0-.72-.17,1.46,1.46,0,0,0-.71.17,1.53,1.53,0,0,0-.56.48,2.17,2.17,0,0,0-.36.75,3.72,3.72,0,0,0,0,2,2,2,0,0,0,.36.74A1.56,1.56,0,0,0,51.75,90.36Z"/><path d="M56.23,91.07V84.94h.85l.09,1.11h0a2.7,2.7,0,0,1,.76-.92,1.63,1.63,0,0,1,1-.34,1.61,1.61,0,0,1,.65.13l-.2.9-.27-.07a1.71,1.71,0,0,0-.32,0,1.41,1.41,0,0,0-.81.32,2.47,2.47,0,0,0-.74,1.09V91.1Z"/><path d="M64.88,91.07V83.68H62.39V82.8h6v.88h-2.5v7.39Z"/><path d="M69.92,91.07l-1.7-6.13h1.06l.91,3.54c.06.3.13.58.19.86s.11.56.17.84h0c.07-.28.14-.57.2-.85s.14-.56.22-.85l.94-3.54h1l1,3.54c.08.3.15.58.22.86l.21.84h0c.07-.28.13-.56.19-.84s.12-.56.19-.86l.89-3.54h1L75,91.07H73.74l-.89-3.29c-.07-.3-.14-.59-.2-.87s-.14-.59-.21-.9h0c-.07.31-.14.61-.2.9s-.15.59-.23.88l-.86,3.28Z"/><path d="M80.27,91.22a2.74,2.74,0,0,1-2-.84,3.05,3.05,0,0,1-.62-1,4.09,4.09,0,0,1,0-2.72,3.05,3.05,0,0,1,.62-1,2.76,2.76,0,0,1,3.89-.11l.11.11a3.05,3.05,0,0,1,.62,1,4,4,0,0,1,0,2.72,3.05,3.05,0,0,1-.62,1A2.74,2.74,0,0,1,80.27,91.22Zm0-.86a1.55,1.55,0,0,0,1.28-.65,2,2,0,0,0,.36-.74A3.4,3.4,0,0,0,82,88a3.76,3.76,0,0,0-.13-1,2.17,2.17,0,0,0-.36-.75A1.79,1.79,0,0,0,81,85.8a1.65,1.65,0,0,0-1.44,0,1.73,1.73,0,0,0-.56.48,2.6,2.6,0,0,0-.36.75,3.42,3.42,0,0,0-.12,1,3.81,3.81,0,0,0,.12,1,2.42,2.42,0,0,0,.36.74,1.55,1.55,0,0,0,1.28.65Z"/><path d="M87.36,91.07V82.8h1v7.37H92v.9Z"/><path d="M93.93,83.68a.69.69,0,0,1-.51-.19.64.64,0,0,1-.08-.91l.08-.09a.81.81,0,0,1,1,0,.65.65,0,0,1,.08.92.3.3,0,0,1-.08.08A.69.69,0,0,1,93.93,83.68Zm-.53,7.39V84.94h1v6.13Z"/><path d="M96.51,91.07V84.94h.86l.09.88h0a5,5,0,0,1,.92-.73,2.13,2.13,0,0,1,1.13-.3,1.62,1.62,0,0,1,1.42.61,3,3,0,0,1,.44,1.78v3.89h-1V87.32a2.12,2.12,0,0,0-.28-1.25,1,1,0,0,0-.88-.38,1.63,1.63,0,0,0-.84.23,5.65,5.65,0,0,0-.83.71v4.44Z"/><path d="M105.9,91.22a3.05,3.05,0,0,1-1.15-.22,2.83,2.83,0,0,1-.94-.63,3.05,3.05,0,0,1-.62-1A3.6,3.6,0,0,1,103,88a3.55,3.55,0,0,1,.24-1.36,3,3,0,0,1,.61-1,2.77,2.77,0,0,1,.88-.64,2.43,2.43,0,0,1,1-.22,2.66,2.66,0,0,1,1,.2,2.09,2.09,0,0,1,.77.58,2.81,2.81,0,0,1,.47.91,4,4,0,0,1,.16,1.18v.6H104a2.33,2.33,0,0,0,.62,1.55,1.83,1.83,0,0,0,1.43.57,2.22,2.22,0,0,0,.81-.13,3.57,3.57,0,0,0,.71-.34l.37.68a5.35,5.35,0,0,1-.9.44A3.16,3.16,0,0,1,105.9,91.22ZM104,87.51h3.28a2.19,2.19,0,0,0-.4-1.42,1.38,1.38,0,0,0-1.11-.48,1.51,1.51,0,0,0-.63.13,1.5,1.5,0,0,0-.53.37,1.86,1.86,0,0,0-.4.6A2.32,2.32,0,0,0,104,87.51Z"/><path d="M111.25,91.22A3.26,3.26,0,0,1,110,91a3.68,3.68,0,0,1-1-.61l.52-.69a4,4,0,0,0,.82.53,2.29,2.29,0,0,0,1,.2,1.26,1.26,0,0,0,.91-.28.85.85,0,0,0,.3-.68.61.61,0,0,0-.13-.41,1.18,1.18,0,0,0-.32-.31,2.3,2.3,0,0,0-.44-.23l-.51-.21c-.22-.07-.44-.16-.65-.25a2.39,2.39,0,0,1-.59-.36,1.75,1.75,0,0,1-.42-.48,1.29,1.29,0,0,1-.17-.67,1.65,1.65,0,0,1,.15-.69,1.59,1.59,0,0,1,.41-.55,2.2,2.2,0,0,1,.67-.37,3.29,3.29,0,0,1,.88-.13,3,3,0,0,1,1.06.2,3.36,3.36,0,0,1,.84.49l-.49.66a4,4,0,0,0-.66-.39,1.88,1.88,0,0,0-.74-.15,1.23,1.23,0,0,0-.85.26.86.86,0,0,0-.27.62.7.7,0,0,0,.11.37.92.92,0,0,0,.31.28,1.9,1.9,0,0,0,.43.21l.51.2.66.26a2.55,2.55,0,0,1,.6.35,1.78,1.78,0,0,1,.44.51,1.45,1.45,0,0,1,.17.73,1.71,1.71,0,0,1-.15.71,1.76,1.76,0,0,1-.43.58,1.94,1.94,0,0,1-.7.39A3,3,0,0,1,111.25,91.22Z"/></svg>