<svg id="Layer_1" data-name="Layer 1" xmlns="http://www.w3.org/2000/svg" viewBox="0 0 240 60"><defs><style>.cls-1{fill:#231f20;}.cls-2{fill:none;stroke:#231f20;stroke-miterlimit:10;stroke-width:0.72px;}.cls-3{fill:#a90533;}</style></defs><path class="cls-1" d="M110.43,29.82v-4l-3.07-6.27h1.39l1.32,2.88.49,1.11c.15.37.32.74.49,1.12h.07c.17-.38.35-.75.53-1.12s.34-.73.5-1.11l1.31-2.88h1.35l-3.07,6.27v4Z"/><path class="cls-1" d="M118.25,30.05a3.41,3.41,0,0,1-1.34-.27A3.17,3.17,0,0,1,115.8,29a3.71,3.71,0,0,1-.78-1.25,4.55,4.55,0,0,1-.28-1.67,4.67,4.67,0,0,1,.28-1.7,3.87,3.87,0,0,1,.78-1.25,3.07,3.07,0,0,1,1.11-.78,3.44,3.44,0,0,1,2.67,0,3.07,3.07,0,0,1,1.11.78,3.87,3.87,0,0,1,.78,1.25,4.68,4.68,0,0,1,.29,1.7,4.56,4.56,0,0,1-.29,1.67,3.71,3.71,0,0,1-.78,1.25,3.17,3.17,0,0,1-1.11.77A3.36,3.36,0,0,1,118.25,30.05Zm0-1.06a1.9,1.9,0,0,0,.88-.21,1.93,1.93,0,0,0,.7-.6,2.74,2.74,0,0,0,.44-.91,3.91,3.91,0,0,0,.16-1.18,4,4,0,0,0-.16-1.2,2.84,2.84,0,0,0-.44-.93,1.84,1.84,0,0,0-.7-.6,2,2,0,0,0-1.77,0,1.93,1.93,0,0,0-.7.6,2.84,2.84,0,0,0-.44.93,4,4,0,0,0-.16,1.2,3.91,3.91,0,0,0,.16,1.18,2.74,2.74,0,0,0,.44.91,1.93,1.93,0,0,0,.7.6A2,2,0,0,0,118.25,29Z"/><path class="cls-1" d="M125.82,30.05a2,2,0,0,1-1.77-.75,3.7,3.7,0,0,1-.55-2.22v-4.8h1.29v4.63a2.62,2.62,0,0,0,.34,1.55,1.22,1.22,0,0,0,1.08.48,1.94,1.94,0,0,0,1.05-.3,5,5,0,0,0,1-1V22.26h1.28v7.56h-1.06l-.11-1.18h0a5.35,5.35,0,0,1-1.12,1A2.49,2.49,0,0,1,125.82,30.05Z"/><path class="cls-1" d="M131.9,29.82V22.24H133l.11,1.37h0a3.57,3.57,0,0,1,.94-1.14,2,2,0,0,1,1.21-.42,1.86,1.86,0,0,1,.81.16l-.25,1.12-.34-.09h-.39a1.66,1.66,0,0,0-1,.39,3.08,3.08,0,0,0-.92,1.35v4.84Z"/><path class="cls-1" d="M140.52,29.82V19.63h2.56a4.7,4.7,0,0,1,3.61,1.31,5.3,5.3,0,0,1,1.23,3.76,7.26,7.26,0,0,1-.31,2.17,4.55,4.55,0,0,1-.92,1.63,4.12,4.12,0,0,1-1.5,1,5.69,5.69,0,0,1-2,.35Zm1.3-1.06H143a3.29,3.29,0,0,0,2.69-1.08,4.56,4.56,0,0,0,.9-3,4.37,4.37,0,0,0-.9-3,3.34,3.34,0,0,0-2.69-1h-1.17Z"/><path class="cls-1" d="M153,30.05a3.86,3.86,0,0,1-1.43-.27,3.57,3.57,0,0,1-1.16-.79,3.64,3.64,0,0,1-.77-1.24,4.49,4.49,0,0,1-.28-1.66,4.61,4.61,0,0,1,.29-1.68,4,4,0,0,1,.76-1.26,3.54,3.54,0,0,1,1.09-.79,3.07,3.07,0,0,1,1.26-.27,3.19,3.19,0,0,1,1.29.25,2.5,2.5,0,0,1,.95.72,3.32,3.32,0,0,1,.58,1.12,4.55,4.55,0,0,1,.21,1.47v.4a1.82,1.82,0,0,1,0,.33h-5.12a3.05,3.05,0,0,0,.76,1.93,2.35,2.35,0,0,0,1.77.71,3.37,3.37,0,0,0,1-.16,5.52,5.52,0,0,0,.88-.43l.45.84a5.7,5.7,0,0,1-1.11.54A3.82,3.82,0,0,1,153,30.05Zm-2.39-4.59h4a2.67,2.67,0,0,0-.49-1.75,1.66,1.66,0,0,0-1.38-.6,1.92,1.92,0,0,0-1.43.61,2.8,2.8,0,0,0-.49.74,3.38,3.38,0,0,0-.17,1Z"/><path class="cls-1" d="M157.7,33.06V22.28h1.06l.11.87h0A6,6,0,0,1,160,22.4a3,3,0,0,1,2.58,0,2.48,2.48,0,0,1,.94.79,3.54,3.54,0,0,1,.57,1.21,6.15,6.15,0,0,1,.19,1.6,5.34,5.34,0,0,1-.26,1.73A4,4,0,0,1,163.3,29a3,3,0,0,1-1,.81,3,3,0,0,1-1.24.27,2.45,2.45,0,0,1-1.06-.27,5.08,5.08,0,0,1-1.05-.64v3.89ZM160.84,29a1.82,1.82,0,0,0,.86-.21,2.07,2.07,0,0,0,.69-.59,3.07,3.07,0,0,0,.45-1A4.5,4.5,0,0,0,163,26a6.2,6.2,0,0,0-.11-1.14,2.8,2.8,0,0,0-.35-.88,1.81,1.81,0,0,0-.63-.57,1.92,1.92,0,0,0-.91-.2,2.07,2.07,0,0,0-1,.26,6.16,6.16,0,0,0-1,.77v4a3.53,3.53,0,0,0,1,.61A2.63,2.63,0,0,0,160.84,29Z"/><path class="cls-1" d="M167.92,30.05a2.29,2.29,0,0,1-1.58-.56,2,2,0,0,1-.64-1.59A2.12,2.12,0,0,1,166.81,26a9.11,9.11,0,0,1,3.54-.92,3.35,3.35,0,0,0-.07-.71,1.58,1.58,0,0,0-.24-.6,1.29,1.29,0,0,0-.47-.43,1.62,1.62,0,0,0-.78-.17,3.26,3.26,0,0,0-1.23.25,7.52,7.52,0,0,0-1,.56l-.5-.89a10.57,10.57,0,0,1,1.3-.66,4.19,4.19,0,0,1,1.68-.32,2.3,2.3,0,0,1,2,.85,3.73,3.73,0,0,1,.63,2.27v4.61h-1.06l-.11-.9h0a6.07,6.07,0,0,1-1.17.77A2.9,2.9,0,0,1,167.92,30.05Zm.37-1a2.32,2.32,0,0,0,1-.26,4.63,4.63,0,0,0,1-.76v-2.1a11,11,0,0,0-1.6.3,3.61,3.61,0,0,0-1,.4,1.58,1.58,0,0,0-.58.54,1.28,1.28,0,0,0-.18.66,1.06,1.06,0,0,0,.39.94,1.59,1.59,0,0,0,1,.25Z"/><path class="cls-1" d="M174,29.82V22.24h1.06l.11,1.37h.05a3.57,3.57,0,0,1,.94-1.14,2,2,0,0,1,1.21-.42,1.89,1.89,0,0,1,.81.16l-.25,1.12-.34-.09h-.39a1.72,1.72,0,0,0-1,.39,3.12,3.12,0,0,0-.91,1.35v4.84Z"/><path class="cls-1" d="M182.37,30.05a2.47,2.47,0,0,1-1-.19,1.76,1.76,0,0,1-.67-.51,2,2,0,0,1-.37-.8,4.86,4.86,0,0,1-.11-1v-4.2H179.1v-1l1.18-.08.16-2.12h1.08v2.12h2v1h-2v4.22a1.94,1.94,0,0,0,.25,1.08,1,1,0,0,0,.92.38,1.54,1.54,0,0,0,.43-.06,3.45,3.45,0,0,0,.42-.14l.25,1c-.21.07-.43.13-.68.19A3.08,3.08,0,0,1,182.37,30.05Z"/><path class="cls-1" d="M185.22,29.82V22.24h1.06l.11,1.09h0a5.27,5.27,0,0,1,1.09-.91,2.22,2.22,0,0,1,1.27-.37,2.14,2.14,0,0,1,1.36.38,2.34,2.34,0,0,1,.73,1.07,6.65,6.65,0,0,1,1.19-1,2.35,2.35,0,0,1,1.31-.4,2,2,0,0,1,1.74.75,3.62,3.62,0,0,1,.56,2.22v4.75h-1.27V25.19a2.71,2.71,0,0,0-.35-1.55,1.22,1.22,0,0,0-1.06-.48,2.78,2.78,0,0,0-1.9,1.17v5.49h-1.28V25.19a2.78,2.78,0,0,0-.34-1.55,1.26,1.26,0,0,0-1.08-.48,2.78,2.78,0,0,0-1.9,1.17v5.49Z"/><path class="cls-1" d="M201.11,30.05a3.81,3.81,0,0,1-1.42-.27,3.42,3.42,0,0,1-1.16-.79,3.64,3.64,0,0,1-.77-1.24,4.49,4.49,0,0,1-.28-1.66,4.57,4.57,0,0,1,.29-1.68,3.86,3.86,0,0,1,.76-1.26,3.54,3.54,0,0,1,1.09-.79,3.07,3.07,0,0,1,1.26-.27,3.19,3.19,0,0,1,1.29.25,2.57,2.57,0,0,1,1,.72,3.32,3.32,0,0,1,.58,1.12,4.55,4.55,0,0,1,.21,1.47v.4a1.82,1.82,0,0,1,0,.33h-5.12a3.05,3.05,0,0,0,.76,1.93,2.35,2.35,0,0,0,1.77.71,3.37,3.37,0,0,0,1-.16,5.52,5.52,0,0,0,.88-.43l.45.84a5.7,5.7,0,0,1-1.11.54A3.74,3.74,0,0,1,201.11,30.05Zm-2.38-4.59h4.05a2.67,2.67,0,0,0-.49-1.75,1.66,1.66,0,0,0-1.38-.6,1.92,1.92,0,0,0-1.43.61,2.36,2.36,0,0,0-.5.74A3.42,3.42,0,0,0,198.73,25.46Z"/><path class="cls-1" d="M205.67,29.82V22.24h1.06l.11,1.09h0a5.56,5.56,0,0,1,1.14-.91,2.56,2.56,0,0,1,1.4-.37,2,2,0,0,1,1.75.75,3.69,3.69,0,0,1,.56,2.22v4.8h-1.28V25.19a2.71,2.71,0,0,0-.35-1.55,1.22,1.22,0,0,0-1.09-.48,1.78,1.78,0,0,0-1,.3,5.89,5.89,0,0,0-1,.87v5.49Z"/><path class="cls-1" d="M216.48,30.05a2.47,2.47,0,0,1-1-.19,1.76,1.76,0,0,1-.67-.51,2,2,0,0,1-.37-.8,4.86,4.86,0,0,1-.11-1v-4.2h-1.12v-1l1.18-.08.16-2.12h1.08v2.12h2v1h-2v4.22a1.94,1.94,0,0,0,.25,1.08,1,1,0,0,0,.92.38,1.54,1.54,0,0,0,.43-.06,3.45,3.45,0,0,0,.42-.14l.25,1c-.2.07-.43.13-.67.19A3.16,3.16,0,0,1,216.48,30.05Z"/><path class="cls-1" d="M108.78,45.46V35.23h1.34l3.7,6.42,1.1,2.13H115c0-.52-.07-1.06-.11-1.62s0-1.1,0-1.64V35.23h1.23V45.46h-1.34L111,39l-1.11-2.11h-.06c0,.52.08,1,.11,1.59s.06,1.07.06,1.61v5.35Z"/><path class="cls-1" d="M120.24,45.65a2.29,2.29,0,0,1-1.58-.56A2,2,0,0,1,118,43.5a2.11,2.11,0,0,1,1.1-1.92,9,9,0,0,1,3.55-.92,4.17,4.17,0,0,0-.07-.71,1.59,1.59,0,0,0-.25-.6,1.29,1.29,0,0,0-.47-.43,1.58,1.58,0,0,0-.77-.17,3.09,3.09,0,0,0-1.24.25,6.61,6.61,0,0,0-1,.57l-.5-.89a8.87,8.87,0,0,1,1.3-.67,4.19,4.19,0,0,1,1.68-.32,2.36,2.36,0,0,1,2,.85,3.83,3.83,0,0,1,.64,2.28v4.65h-1.06l-.11-.9h0a6.07,6.07,0,0,1-1.17.77A2.92,2.92,0,0,1,120.24,45.65Zm.38-1a2.32,2.32,0,0,0,1-.26,5.23,5.23,0,0,0,1-.75V41.53a11,11,0,0,0-1.6.3,4.54,4.54,0,0,0-1,.4,1.76,1.76,0,0,0-.58.54,1.28,1.28,0,0,0-.18.66,1,1,0,0,0,.4.94,1.54,1.54,0,0,0,1,.25Z"/><path class="cls-1" d="M126.27,45.46V37.88h1.06l.11,1.09h0a5.27,5.27,0,0,1,1.09-.91,2.38,2.38,0,0,1,1.27-.37,2.14,2.14,0,0,1,1.36.38,2.34,2.34,0,0,1,.73,1.07,6.65,6.65,0,0,1,1.19-1,2.35,2.35,0,0,1,1.31-.4,2,2,0,0,1,1.74.75,3.69,3.69,0,0,1,.56,2.22v4.8h-1.27V40.82a2.71,2.71,0,0,0-.35-1.55,1.22,1.22,0,0,0-1.06-.48,2.78,2.78,0,0,0-1.9,1.17v5.49h-1.28V40.82a2.78,2.78,0,0,0-.34-1.55,1.26,1.26,0,0,0-1.08-.48,2.78,2.78,0,0,0-1.9,1.17v5.49Z"/><path class="cls-1" d="M142.21,45.65a3.86,3.86,0,0,1-1.43-.27,3.77,3.77,0,0,1-1.15-.78,3.64,3.64,0,0,1-.77-1.24,5.19,5.19,0,0,1,0-3.35,4.19,4.19,0,0,1,.77-1.26,3.22,3.22,0,0,1,1.08-.78,2.94,2.94,0,0,1,1.27-.28,3.32,3.32,0,0,1,1.28.25,2.47,2.47,0,0,1,1,.72,3.17,3.17,0,0,1,.59,1.12,4.88,4.88,0,0,1,.2,1.47v.4a1.82,1.82,0,0,1,0,.33h-5.12a2.94,2.94,0,0,0,.76,1.93,2.35,2.35,0,0,0,1.77.71,3.08,3.08,0,0,0,1-.16,4.78,4.78,0,0,0,.88-.43l.46.84a6.33,6.33,0,0,1-1.11.54A3.74,3.74,0,0,1,142.21,45.65Zm-2.39-4.59h4.06a2.67,2.67,0,0,0-.49-1.75,1.66,1.66,0,0,0-1.38-.6,2,2,0,0,0-.77.15,2.06,2.06,0,0,0-.67.46,2.8,2.8,0,0,0-.49.74A3.43,3.43,0,0,0,139.82,41.06Z"/><path class="cls-1" d="M152.82,45.65a3.41,3.41,0,0,1-1.34-.27,3.17,3.17,0,0,1-1.11-.77,3.68,3.68,0,0,1-.77-1.25,4.52,4.52,0,0,1-.29-1.67,4.68,4.68,0,0,1,.29-1.7,3.84,3.84,0,0,1,.77-1.25,3.2,3.2,0,0,1,1.11-.78,3.41,3.41,0,0,1,1.34-.27,3.36,3.36,0,0,1,1.33.27,3.48,3.48,0,0,1,1.12.78A3.84,3.84,0,0,1,156,40a4.68,4.68,0,0,1,.29,1.7,4.56,4.56,0,0,1-.29,1.67,3.68,3.68,0,0,1-.77,1.25,3.45,3.45,0,0,1-1.12.77A3.36,3.36,0,0,1,152.82,45.65Zm0-1.06a2,2,0,0,0,.89-.21,2.1,2.1,0,0,0,.69-.6,2.87,2.87,0,0,0,.45-.91,4.71,4.71,0,0,0,.15-1.18,4.81,4.81,0,0,0-.15-1.2,2.92,2.92,0,0,0-.45-.92,2,2,0,0,0-.69-.61,2,2,0,0,0-1.78,0,2.16,2.16,0,0,0-.7.61,2.79,2.79,0,0,0-.44.92,4.4,4.4,0,0,0-.16,1.2,4.3,4.3,0,0,0,.16,1.18,2.74,2.74,0,0,0,.44.91,2.24,2.24,0,0,0,.7.6A2,2,0,0,0,152.82,44.59Z"/><path class="cls-1" d="M158.26,45.46V37.88h1.06l.11,1.09h0a5.62,5.62,0,0,1,1.15-.91,2.61,2.61,0,0,1,1.39-.37,2,2,0,0,1,1.76.75,3.69,3.69,0,0,1,.55,2.22v4.8H163V40.82a2.62,2.62,0,0,0-.34-1.55,1.22,1.22,0,0,0-1.09-.48,1.86,1.86,0,0,0-1,.3,6.93,6.93,0,0,0-1,.87v5.49Z"/><path class="cls-1" d="M172.35,45.46V36.32h-3.09V35.23h7.49v1.09h-3.09v9.14Z"/><path class="cls-1" d="M178.45,45.46l-2.11-7.58h1.31l1.13,4.38c.08.37.16.72.23,1.06s.15.7.22,1h.06c.09-.35.17-.71.25-1s.17-.7.27-1.06L181,37.88h1.25l1.18,4.38c.09.37.19.72.27,1.06s.18.7.26,1H184q.13-.52.24-1c.07-.34.15-.69.23-1.06l1.11-4.38h1.22l-2,7.58h-1.56l-1.09-4.07c-.1-.36-.18-.72-.26-1.08s-.16-.72-.26-1.1h-.06c-.08.38-.17.75-.25,1.11s-.18.72-.28,1.09l-1.06,4Z"/><path class="cls-1" d="M191.17,45.65a3.41,3.41,0,0,1-1.34-.27,3.17,3.17,0,0,1-1.11-.77,3.71,3.71,0,0,1-.78-1.25,4.55,4.55,0,0,1-.28-1.67,4.67,4.67,0,0,1,.28-1.7,3.87,3.87,0,0,1,.78-1.25,3.2,3.2,0,0,1,1.11-.78,3.44,3.44,0,0,1,2.67,0,3.2,3.2,0,0,1,1.11.78,3.87,3.87,0,0,1,.78,1.25,4.68,4.68,0,0,1,.29,1.7,4.56,4.56,0,0,1-.29,1.67,3.71,3.71,0,0,1-.78,1.25,3.17,3.17,0,0,1-1.11.77A3.36,3.36,0,0,1,191.17,45.65Zm0-1.06a1.9,1.9,0,0,0,.88-.21,1.93,1.93,0,0,0,.7-.6,2.74,2.74,0,0,0,.44-.91,3.91,3.91,0,0,0,.16-1.18,4,4,0,0,0-.16-1.2,2.79,2.79,0,0,0-.44-.92,1.87,1.87,0,0,0-.7-.61,2,2,0,0,0-1.77,0,1.87,1.87,0,0,0-.7.61,2.79,2.79,0,0,0-.44.92,4,4,0,0,0-.16,1.2,3.91,3.91,0,0,0,.16,1.18,2.74,2.74,0,0,0,.44.91,1.93,1.93,0,0,0,.7.6A2,2,0,0,0,191.17,44.59Z"/><path class="cls-1" d="M199.82,45.46V35.23h1.3v9.12h4.48v1.11Z"/><path class="cls-1" d="M207.89,36.32a1,1,0,0,1-.63-.23.76.76,0,0,1-.26-.6.73.73,0,0,1,.26-.6,1,1,0,0,1,1.26,0,.76.76,0,0,1,.26.6.79.79,0,0,1-.26.6A1,1,0,0,1,207.89,36.32Zm-.66,9.14V37.88h1.28v7.58Z"/><path class="cls-1" d="M210.87,45.46V37.88h1.06L212,39h0a6.31,6.31,0,0,1,1.15-.91,2.65,2.65,0,0,1,1.4-.37,2,2,0,0,1,1.75.75,3.69,3.69,0,0,1,.56,2.22v4.8h-1.28V40.82a2.71,2.71,0,0,0-.35-1.55,1.22,1.22,0,0,0-1.09-.48,1.78,1.78,0,0,0-1,.3,5.89,5.89,0,0,0-1,.87v5.49Z"/><path class="cls-1" d="M222.41,45.65a3.86,3.86,0,0,1-1.43-.27,3.77,3.77,0,0,1-1.15-.78,3.64,3.64,0,0,1-.77-1.24,5.19,5.19,0,0,1,0-3.35,4.19,4.19,0,0,1,.77-1.26,3.22,3.22,0,0,1,1.08-.78,2.94,2.94,0,0,1,1.27-.28,3.32,3.32,0,0,1,1.28.25,2.57,2.57,0,0,1,1,.72,3.52,3.52,0,0,1,.54,1.16,4.88,4.88,0,0,1,.2,1.47v.4a1.82,1.82,0,0,1,0,.33H220a2.94,2.94,0,0,0,.76,1.93,2.35,2.35,0,0,0,1.77.71,3.08,3.08,0,0,0,1-.16,4.78,4.78,0,0,0,.88-.43l.46.84a6.33,6.33,0,0,1-1.11.54A3.85,3.85,0,0,1,222.41,45.65ZM220,41.06h4.06a2.67,2.67,0,0,0-.49-1.75,1.66,1.66,0,0,0-1.38-.6,2,2,0,0,0-.77.15,2.06,2.06,0,0,0-.67.46,2.8,2.8,0,0,0-.49.74A3.43,3.43,0,0,0,220,41.06Z"/><path class="cls-1" d="M229.1,45.65a4.06,4.06,0,0,1-1.54-.3,5.31,5.31,0,0,1-1.28-.75l.64-.85a4.77,4.77,0,0,0,1,.65,2.79,2.79,0,0,0,1.21.25,1.62,1.62,0,0,0,1.12-.34,1.12,1.12,0,0,0,.38-.85.86.86,0,0,0-.16-.51,1.41,1.41,0,0,0-.39-.38,3,3,0,0,0-.56-.29L228.9,42c-.27-.09-.54-.2-.81-.32a3.38,3.38,0,0,1-.73-.44,2.13,2.13,0,0,1-.52-.6,1.56,1.56,0,0,1-.2-.82,2.26,2.26,0,0,1,.17-.85,2,2,0,0,1,.52-.69,2.52,2.52,0,0,1,.82-.45,3.11,3.11,0,0,1,1.09-.17,3.52,3.52,0,0,1,1.32.25,3.94,3.94,0,0,1,1,.61l-.61.81a3.68,3.68,0,0,0-.81-.48,2.08,2.08,0,0,0-.92-.19,1.51,1.51,0,0,0-1.06.33,1,1,0,0,0-.33.76.7.7,0,0,0,.14.46,1.37,1.37,0,0,0,.37.35,3.36,3.36,0,0,0,.54.26l.63.24.82.33a3.24,3.24,0,0,1,.74.43,2.06,2.06,0,0,1,.54.63,1.79,1.79,0,0,1,.21.91,2.19,2.19,0,0,1-.18.87,2,2,0,0,1-.53.72,2.42,2.42,0,0,1-.87.49A3.67,3.67,0,0,1,229.1,45.65Z"/><line class="cls-2" x1="102.03" y1="45.55" x2="102.03" y2="14.35"/><path class="cls-3" d="M35.18,26.49a12.79,12.79,0,0,0-2.48.94,1.9,1.9,0,0,0-1,1.78,1.5,1.5,0,0,0,1.35,1.62,1.37,1.37,0,0,0,.35,0,3,3,0,0,0,1.78-.52V26.49Zm-2.71,6c-3.06,0-3.3-2.33-3.3-3a3,3,0,0,1,2.18-3c2-.74,2.45-.83,3.83-1.26v-.36a3.35,3.35,0,0,0-.13-1.26A2,2,0,0,0,33,22.31a2.47,2.47,0,0,0-2.16,1.18l-.13.23-.56-.34.05-.17A3.79,3.79,0,0,1,34,20.7a3.53,3.53,0,0,1,3.24,1.42,5.67,5.67,0,0,1,.51,2.93v4.37c0,.8.12,1.42.79,1.42a.55.55,0,0,0,.37-.12l.18-.15.37.42-.12.16A2.73,2.73,0,0,1,37,32.41a1.65,1.65,0,0,1-1.74-1.14,3.81,3.81,0,0,1-2.83,1.17Z"/><path class="cls-3" d="M13.76,32.41A11.24,11.24,0,0,1,10,31.87H9.86V28.61h.67v.21a2.19,2.19,0,0,0,.52,1.36,3.76,3.76,0,0,0,2.61.87c2.16,0,3.16-.81,3.16-2.57,0-1.49-.93-2.12-2.21-3l-.2-.15-1.36-.9c-1.88-1.24-2.83-2.24-2.83-4.23,0-1,.37-4.15,5.1-4.15a22.94,22.94,0,0,1,3.51.26H19v3.31h-.58v-.23A2,2,0,0,0,17.9,18a3.85,3.85,0,0,0-2.53-.67c-2.51,0-2.8,1.29-2.8,2.26,0,1.33.68,1.78,2.17,2.76l1.72,1.14c1.45,1,2.83,1.89,2.83,4.31,0,4.09-3.82,4.54-5.46,4.54Z"/><path class="cls-3" d="M25,32.48c-1.75,0-2.71-.63-3.14-2a9.88,9.88,0,0,1-.18-2.3V22.45H20.21V22l.15-.06a4.63,4.63,0,0,0,1.26-.72,7.87,7.87,0,0,0,1.85-2.29l.26-.43h.49v2.54h3.85v1.4H24.22v5.94c0,1.77.33,2.78,2,2.78a3.32,3.32,0,0,0,1.39-.31l.23-.12.2.46-.1.11a3.69,3.69,0,0,1-3,1.19Z"/><path class="cls-3" d="M40.36,32.34v-.52h.21a1.58,1.58,0,0,0,1-.46c.35-.4.37-1.36.37-3.28V24.82c0-1.39,0-2-.23-2.29a1.3,1.3,0,0,0-1-.39H40.4V21.5h.43a13.43,13.43,0,0,0,2-.21A3.82,3.82,0,0,0,44,20.88l.13-.06.23.14v.86a5.5,5.5,0,0,1,3.27-1.08c2,0,3.37,1,3.75,2.68a11.16,11.16,0,0,1,.15,2v3.3c0,1.86.07,2.39.42,2.72a1.7,1.7,0,0,0,.87.31h.23v.53h-.56c-.82,0-1.51-.08-2.25-.08s-1.55,0-2.56.09h-.26v-.47h.2a1.7,1.7,0,0,0,.94-.38,3.48,3.48,0,0,0,.41-2V27.05q0-1.29-.09-2.58a2.13,2.13,0,0,0-2.1-2.16l-.3,0a4.47,4.47,0,0,0-2.12.47v5.94c0,1.86.08,2.39.43,2.72a1.53,1.53,0,0,0,.87.31h.22v.53h-.6c-.78,0-1.46-.07-2.17-.07s-1.59,0-2.6.09h-.25Z"/><path class="cls-3" d="M54.45,32.34v-.52h.22a1.58,1.58,0,0,0,1-.46C56,31,56,30,56,28.09V22.48H54.57v-.66l.15-.06a6,6,0,0,0,1.32-.7,21.47,21.47,0,0,1,.17-3c.45-2.33,2-3.52,4.54-3.52a4.52,4.52,0,0,1,2.75.87l.09.07v.24l-1.12,1.56H62.2l-.07-.14a1.92,1.92,0,0,0-1.9-1.33,1.69,1.69,0,0,0-1.14.4c-.49.49-.57,1.22-.57,2.66v2.18H61v1.4H58.56v6.27a6.27,6.27,0,0,0,.24,2.51c.32.48,1.28.51,1.56.51h.24v.61h-.25c-1.24-.06-2.17-.09-2.84-.09-.83,0-1.79,0-2.8.09h-.26Z"/><path class="cls-3" d="M67.59,22a2.36,2.36,0,0,0-1.6.51c-.91.76-1.37,2.15-1.37,4.12,0,.76.14,4.56,2.93,4.56a2.36,2.36,0,0,0,1.6-.51c.9-.76,1.36-2.15,1.36-4.12C70.51,25.83,70.37,22,67.59,22Zm-.14,10.49c-3.45,0-5.51-2.14-5.51-5.74,0-2.8,1.5-6.06,5.75-6.06,3.45,0,5.51,2.15,5.51,5.75,0,2.79-1.51,6-5.75,6Z"/><path class="cls-3" d="M74.29,32.34v-.58h.22a1.57,1.57,0,0,0,1-.47c.35-.39.37-1.32.37-3.24V24.82a5.23,5.23,0,0,0-.22-2.29,1.3,1.3,0,0,0-1-.39h-.3v-.68h.42a12.24,12.24,0,0,0,2-.22A5.69,5.69,0,0,0,78,20.92l.13-.06.2.11v1A3.72,3.72,0,0,1,81,20.82a2.67,2.67,0,0,1,1.89.64l.08.07v.35l-1,1.75h-.46l-.07-.11a2,2,0,0,0-1.82-.91,2.06,2.06,0,0,0-1.23.36v5.69a6.18,6.18,0,0,0,.24,2.49c.32.47,1.28.51,1.56.51h.24v.63h-.25c-1.24-.06-2.17-.09-2.84-.09-.84,0-1.79,0-2.8.09h-.26Z"/><path class="cls-3" d="M89.44,22.1c-2.2,0-3.27,1.51-3.27,4.61,0,1.25.35,4.18,3.63,4.18h.11a3.4,3.4,0,0,0,1.79-.47v-7.6a3.07,3.07,0,0,0-2.26-.76Zm2.61,10.39-.3-.1v-.95a5.36,5.36,0,0,1-3.16,1.06c-3.1,0-5.11-2.15-5.11-5.49a7.57,7.57,0,0,1,.62-3,5.64,5.64,0,0,1,5.39-3.22A11.73,11.73,0,0,1,91.7,21V18.6a6.2,6.2,0,0,0-.22-2.46,1.3,1.3,0,0,0-1-.39h-.3v-.51h.24c.81-.07,1.62-.17,2.42-.32A6.07,6.07,0,0,0,94,14.66h.11l.2.12v0c-.08.93-.09,2.92-.09,4.41v9.22A6.4,6.4,0,0,0,94.4,31a1.34,1.34,0,0,0,1,.41h.31V32H95.5a14.66,14.66,0,0,0-2.19.23,5.64,5.64,0,0,0-1.15.26h-.11Z"/><path class="cls-1" d="M9.8,37.82h1.49L13.58,42c.28.52.54,1.13.79,1.73h0c-.08-.82-.17-1.75-.17-2.59V37.82h1.3v7.65H14.05l-2.29-4.21A18,18,0,0,1,11,39.53h0c.08.79.17,1.74.17,2.6v3.34H9.8Z"/><path class="cls-1" d="M19.17,37.82h1.64l2.48,7.65H21.82l-.59-2H18.7l-.59,2H16.69ZM19,42.31h1.92l-.26-.92c-.24-.8-.46-1.68-.69-2.51h0c-.2.84-.43,1.71-.67,2.51Z"/><path class="cls-1" d="M24.32,37.82H26l1.31,3.74c.17.5.31.94.45,1.5h0c.14-.56.26-1,.42-1.5l1.32-3.74h1.63v7.65H29.85V42a20.73,20.73,0,0,1,.21-2.49h0l-.61,1.85-1.24,3.42H27.3L26,41.32l-.61-1.85h0A20.73,20.73,0,0,1,25.6,42v3.48H24.32Z"/><path class="cls-1" d="M33.13,37.82h4.63V39H34.53v1.92h2.73v1.17H34.53V44.3h3.34v1.17H33.13Z"/><path class="cls-1" d="M38.82,41.58c0-2.47,1.39-3.93,3.39-3.93s3.38,1.46,3.38,3.93-1.38,4-3.38,4S38.82,44.06,38.82,41.58Zm5.34,0c0-1.7-.77-2.71-1.95-2.71s-2,1-2,2.71.76,2.8,2,2.8S44.16,43.29,44.16,41.58Z"/><path class="cls-1" d="M47.22,37.82h4.64V39H48.62v2.14h2.76V42.3H48.62v3.17h-1.4Z"/><path class="cls-1" d="M52.78,44.46l.75-.91a3,3,0,0,0,2,.83c.84,0,1.31-.39,1.31-1s-.49-.81-1.18-1.1l-1-.46a2.18,2.18,0,0,1-1.55-2,2.34,2.34,0,0,1,2.48-2.19h.1a3.41,3.41,0,0,1,2.37,1l-.75.91a2.5,2.5,0,0,0-1.62-.64c-.72,0-1.17.32-1.17.87s.57.8,1.2,1.07l1,.42a2.13,2.13,0,0,1,1.55,2.07c0,1.24-1,2.28-2.77,2.28A3.85,3.85,0,0,1,52.78,44.46Z"/><path class="cls-1" d="M59.4,41.64c0-2.51,1.57-4,3.52-4a3,3,0,0,1,2.21,1l-.74.85a2,2,0,0,0-1.45-.6c-1.22,0-2.11,1-2.11,2.73s.81,2.78,2.09,2.78a2.11,2.11,0,0,0,1.61-.74l.75.83a3.05,3.05,0,0,1-2.42,1.11C60.94,45.58,59.4,44.18,59.4,41.64Z"/><path class="cls-1" d="M66.66,37.82h1.39v3h3v-3h1.4v7.65h-1.4V42.1h-3v3.37H66.66Z"/><path class="cls-1" d="M74.13,41.58c0-2.47,1.39-3.93,3.39-3.93s3.38,1.46,3.38,3.93-1.38,4-3.38,4S74.13,44.06,74.13,41.58Zm5.34,0c0-1.7-.77-2.71-2-2.71s-2,1-2,2.71.76,2.8,2,2.8S79.47,43.29,79.47,41.58Z"/><path class="cls-1" d="M82.14,41.58c0-2.47,1.38-3.93,3.38-3.93s3.38,1.46,3.38,3.93-1.38,4-3.38,4S82.14,44.06,82.14,41.58Zm5.33,0c0-1.7-.77-2.71-2-2.71s-2,1-2,2.71.77,2.8,2,2.8S87.47,43.29,87.47,41.58Z"/><path class="cls-1" d="M90.54,37.82h1.39V44.3h3.16v1.17H90.54Z"/></svg>