<svg id="Layer_1" data-name="Layer 1" xmlns="http://www.w3.org/2000/svg" viewBox="0 0 120 120"><defs><style>.cls-1{fill:#a90533;}.cls-2{fill:#231f20;}</style></defs><path class="cls-1" d="M40.44,53.39a12.18,12.18,0,0,0-2.48.94,1.88,1.88,0,0,0-1,1.77,1.5,1.5,0,0,0,1.34,1.64h.34a3.13,3.13,0,0,0,1.78-.53V53.39Zm-2.7,5.94c-3.06,0-3.3-2.33-3.3-3a3,3,0,0,1,2.17-3c2-.74,2.45-.83,3.83-1.26v-.36a3.28,3.28,0,0,0-.13-1.25,2,2,0,0,0-2.07-1.3,2.41,2.41,0,0,0-2.16,1.18l-.08.12-.57-.34.06-.17a3.74,3.74,0,0,1,3.8-2.38A3.5,3.5,0,0,1,42.53,49,5.81,5.81,0,0,1,43,51.92v4.36c0,.8.13,1.42.79,1.42a.7.7,0,0,0,.37-.11l.19-.16.37.43-.12.15a2.77,2.77,0,0,1-2.24,1.26,1.64,1.64,0,0,1-1.72-1.14,3.91,3.91,0,0,1-2.83,1.17Z"/><path class="cls-1" d="M19,59.3a11.5,11.5,0,0,1-3.73-.54h-.16V55.5h.67v.24a2.35,2.35,0,0,0,.51,1.36,3.88,3.88,0,0,0,2.62.87c2.15,0,3.15-.81,3.15-2.56,0-1.5-.92-2.12-2.2-3l-.21-.14-1.35-.9c-1.88-1.24-2.83-2.24-2.83-4.23,0-1,.36-4.15,5.1-4.15a21.62,21.62,0,0,1,3.5.26h.21v3.31h-.57v-.23A2,2,0,0,0,23.16,45a3.78,3.78,0,0,0-2.52-.67c-2.51,0-2.81,1.29-2.81,2.26,0,1.33.69,1.78,2.18,2.76l1.65,1.14c1.45,1,2.83,1.89,2.83,4.3,0,4.09-3.82,4.54-5.46,4.54Z"/><path class="cls-1" d="M30.25,59.37c-1.75,0-2.72-.62-3.15-2a9.87,9.87,0,0,1-.17-2.3V49.35H25.48v-.44l.15-.06a5.08,5.08,0,0,0,1.26-.72,7.87,7.87,0,0,0,1.85-2.29l.25-.43h.5V48h3.84v1.4H29.49v5.93c0,1.77.33,2.78,2,2.78a3.6,3.6,0,0,0,1.38-.3l.23-.12.2.46-.1.11a3.76,3.76,0,0,1-3,1.18Z"/><path class="cls-1" d="M45.61,59.22v-.53h.22a1.64,1.64,0,0,0,1-.47c.35-.39.37-1.36.37-3.28V51.71a5.18,5.18,0,0,0-.2-2.25,1.3,1.3,0,0,0-1-.39h-.31v-.65h.44a13.45,13.45,0,0,0,2-.22,4.06,4.06,0,0,0,1.19-.39l.13-.07.22.14v.89a5.5,5.5,0,0,1,3.27-1.08,3.48,3.48,0,0,1,3.74,2.67,11.16,11.16,0,0,1,.15,2v3.3c0,1.86.08,2.39.43,2.72a1.7,1.7,0,0,0,.87.31h.22v.53h-.56c-.81,0-1.51-.08-2.24-.08s-1.55,0-2.56.09h-.26v-.51h.2a1.79,1.79,0,0,0,.94-.39,3.4,3.4,0,0,0,.41-2v-2.4a22.34,22.34,0,0,0-.1-2.59,2.13,2.13,0,0,0-2.11-2.15,1.42,1.42,0,0,0-.29,0,4.41,4.41,0,0,0-2.11.47v5.93c0,1.86.08,2.39.43,2.72a1.7,1.7,0,0,0,.87.31h.22v.53h-.6c-.78,0-1.46-.07-2.17-.07s-1.58,0-2.6.09h-.25Z"/><path class="cls-1" d="M59.7,59.22v-.54h.21a1.56,1.56,0,0,0,1-.46c.35-.39.36-1.35.36-3.27v-5.6H59.8v-.63l.15-.07A5.93,5.93,0,0,0,61.27,48a21.39,21.39,0,0,1,.18-3c.44-2.33,2-3.51,4.52-3.51a4.54,4.54,0,0,1,2.76.86l.09.07v.24L67.7,44.18h-.27L67.37,44a1.93,1.93,0,0,0-1.9-1.33,1.6,1.6,0,0,0-1.14.4c-.49.49-.57,1.22-.57,2.66V48h2.52v1.4H63.8v6.27a6.22,6.22,0,0,0,.24,2.5c.32.48,1.28.51,1.56.51h.24v.61h-.25c-1.24-.06-2.17-.09-2.83-.09-.84,0-1.8,0-2.81.09H59.7Z"/><path class="cls-1" d="M72.83,48.93a2.41,2.41,0,0,0-1.61.51c-.9.76-1.36,2.14-1.36,4.11,0,.76.14,4.56,2.92,4.56a2.47,2.47,0,0,0,1.6-.51c.9-.76,1.36-2.14,1.36-4.12C75.74,52.72,75.6,48.93,72.83,48.93Zm-.15,10.53c-3.44,0-5.5-2.15-5.5-5.75,0-2.79,1.5-6,5.74-6,3.45,0,5.51,2.15,5.51,5.74,0,2.8-1.51,6.06-5.75,6.06Z"/><path class="cls-1" d="M79.52,59.22v-.57h.22a1.57,1.57,0,0,0,1-.47c.35-.39.37-1.32.37-3.24V51.71c0-1.38,0-2-.23-2.28a1.3,1.3,0,0,0-1-.39h-.31v-.68H80a12.24,12.24,0,0,0,2-.22,5.69,5.69,0,0,0,1.21-.32l.13-.06.2.11v1a3.71,3.71,0,0,1,2.61-1,2.69,2.69,0,0,1,1.9.63l.07.07v.35l-1,1.74h-.46l-.07-.1a2,2,0,0,0-1.81-.91,2,2,0,0,0-1.24.36V55.7a5.8,5.8,0,0,0,.25,2.48c.31.47,1.27.51,1.55.51h.24v.63h-.25c-1.24-.06-2.17-.09-2.83-.09-.84,0-1.79,0-2.8.09h-.26Z"/><path class="cls-1" d="M94.66,49c-2.2,0-3.27,1.51-3.27,4.6,0,1.26.35,4.18,3.63,4.18h.1a3.55,3.55,0,0,0,1.8-.46V49.76A3.07,3.07,0,0,0,94.66,49Zm2.61,10.38-.31-.1v-1a5.33,5.33,0,0,1-3.15,1.06c-3.1,0-5.1-2.15-5.1-5.48a7.32,7.32,0,0,1,.61-3,5.64,5.64,0,0,1,5.39-3.22,10.28,10.28,0,0,1,2.21.21V45.46A6.18,6.18,0,0,0,96.7,43a1.25,1.25,0,0,0-1-.38h-.31v-.51h.24c.05,0,1.36-.11,2.42-.31a10,10,0,0,0,1.11-.26h.11l.2.11v.11c-.08.93-.09,2.92-.09,4.41v9.21a6.41,6.41,0,0,0,.22,2.5,1.34,1.34,0,0,0,1,.41h.3v.61h-.24a14.66,14.66,0,0,0-2.19.23,5,5,0,0,0-1.15.26h0Z"/><path class="cls-2" d="M14.86,77.18l.92-1.12a3.82,3.82,0,0,0,2.53,1c1,0,1.61-.48,1.61-1.2s-.61-1-1.46-1.35L17.18,74a2.72,2.72,0,0,1-1.9-2.5c0-1.51,1.33-2.67,3.17-2.67a4.18,4.18,0,0,1,2.92,1.16l-.92,1.13a3,3,0,0,0-2-.8c-.88,0-1.44.41-1.44,1.08s.7,1,1.48,1.31l1.27.52a2.63,2.63,0,0,1,1.9,2.55c0,1.53-1.27,2.81-3.4,2.81A4.73,4.73,0,0,1,14.86,77.18Z"/><path class="cls-2" d="M23.26,73.71c0-3.08,1.93-4.91,4.32-4.91A3.63,3.63,0,0,1,30.3,70L29.39,71a2.41,2.41,0,0,0-1.78-.75c-1.5,0-2.59,1.27-2.59,3.37s1,3.42,2.56,3.42a2.6,2.6,0,0,0,2-.91l.92,1a3.81,3.81,0,0,1-3,1.37C25.15,78.56,23.26,76.83,23.26,73.71Z"/><path class="cls-2" d="M32.43,69h1.72v3.77h3.74V69H39.6v9.42H37.89V74.24H34.15v4.15H32.43Z"/><path class="cls-2" d="M41.88,73.64c0-3,1.7-4.84,4.16-4.84s4.16,1.8,4.16,4.84S48.5,78.56,46,78.56,41.88,76.69,41.88,73.64Zm6.57,0c0-2.09-1-3.35-2.41-3.35s-2.41,1.26-2.41,3.35.94,3.44,2.41,3.44S48.45,75.74,48.45,73.64Z"/><path class="cls-2" d="M52,73.64c0-3,1.7-4.84,4.16-4.84s4.17,1.8,4.17,4.84-1.7,4.92-4.17,4.92S52,76.69,52,73.64Zm6.57,0c0-2.09-1-3.35-2.41-3.35s-2.4,1.26-2.4,3.35.93,3.44,2.4,3.44,2.38-1.34,2.38-3.44Z"/><path class="cls-2" d="M62.55,69h1.72v8h3.89v1.44H62.55Z"/><path class="cls-2" d="M70.17,69H72l2.83,5.18a22,22,0,0,1,1,2.14h.06c-.1-1-.22-2.16-.22-3.2V69h1.6v9.42H75.4L72.58,73.2a22.82,22.82,0,0,1-1-2.13h0c.1,1,.21,2.15.21,3.2v4.12h-1.6Z"/><path class="cls-2" d="M81.82,69h2l3,9.42H85l-.72-2.52H81.16l-.72,2.52H78.7Zm-.2,5.56H84l-.31-1.12c-.31-1-.58-2.08-.85-3.1h-.06c-.25,1-.52,2.1-.82,3.1Z"/><path class="cls-2" d="M88.42,69h2L92,73.58c.2.6.37,1.15.54,1.84h.06c.17-.69.32-1.24.52-1.84L94.77,69h2v9.42H95.19V74.1A26,26,0,0,1,95.45,71h-.06l-.75,2.28-1.53,4.2H92l-1.5-4.2L89.75,71h-.06A26,26,0,0,1,90,74.1v4.29H88.4Z"/><path class="cls-2" d="M99.55,69h5.69v1.49h-4v2.36h3.37v1.44h-3.37V77h4.12v1.44H99.53Z"/></svg>