<svg id="Layer_1" data-name="Layer 1" xmlns="http://www.w3.org/2000/svg" viewBox="0 0 240 60"><defs><style>.cls-1{fill:none;stroke:#231f20;stroke-miterlimit:10;stroke-width:0.72px;}.cls-2{fill:#a90533;}.cls-3{fill:#231f20;}</style></defs><line class="cls-1" x1="106.52" y1="38.94" x2="106.52" y2="20.94"/><path class="cls-2" d="M40.79,33a14.65,14.65,0,0,0-2.49.94,1.91,1.91,0,0,0-1,1.78,1.49,1.49,0,0,0,1.34,1.65,1.45,1.45,0,0,0,.36,0,3,3,0,0,0,1.79-.53Zm-2.71,6c-3.07,0-3.3-2.33-3.3-3A3,3,0,0,1,37,33c2-.74,2.45-.83,3.84-1.26v-.36a3.18,3.18,0,0,0-.14-1.26,2,2,0,0,0-2.07-1.3A2.47,2.47,0,0,0,36.42,30l-.12.23-.57-.34.06-.17a3.75,3.75,0,0,1,3.81-2.37,3.53,3.53,0,0,1,3.24,1.3,5.7,5.7,0,0,1,.51,2.93c0,1,0,2.06-.05,2.93V36c0,.8.12,1.42.79,1.42a.63.63,0,0,0,.37-.12l.18-.16.37.42-.12.16a2.71,2.71,0,0,1-2.23,1.26,1.63,1.63,0,0,1-1.73-1.13A3.82,3.82,0,0,1,38.1,39Z"/><path class="cls-2" d="M19.36,38.92a11,11,0,0,1-3.73-.54h-.17V35.12h.66v.24a2.18,2.18,0,0,0,.51,1.36,3.76,3.76,0,0,0,2.61.87c2.16,0,3.16-.81,3.16-2.56,0-1.5-.93-2.13-2.21-3l-.2-.14L18.64,31c-1.88-1.25-2.84-2.25-2.84-4.24,0-1,.37-4.15,5.11-4.15a24.15,24.15,0,0,1,3.5.26h.21v3.31H24V26a2,2,0,0,0-.55-1.37,3.85,3.85,0,0,0-2.53-.67c-2.51,0-2.8,1.29-2.8,2.26,0,1.33.68,1.78,2.17,2.77L22,30.07c1.46,1,2.83,1.89,2.83,4.31,0,4.1-3.82,4.54-5.46,4.54Z"/><path class="cls-2" d="M30.58,39c-1.75,0-2.71-.63-3.14-2a9.79,9.79,0,0,1-.18-2.3V29H25.81v-.44l.15-.06a4.38,4.38,0,0,0,1.26-.72,8.11,8.11,0,0,0,1.86-2.29l.25-.43h.49v2.54h3.85V29H29.82V34.9c0,1.77.33,2.78,2,2.78a3.34,3.34,0,0,0,1.39-.3l.23-.12.2.46-.1.11a3.69,3.69,0,0,1-3,1.18Z"/><path class="cls-2" d="M46,38.85v-.54h.22a1.46,1.46,0,0,0,1-.46c.35-.39.37-1.36.37-3.28V31.34a5.23,5.23,0,0,0-.22-2.29,1.43,1.43,0,0,0-1-.39H46V28h.43a12.21,12.21,0,0,0,2-.2,3.65,3.65,0,0,0,1.2-.42h.12l.23.13v.89a5.64,5.64,0,0,1,3.27-1.08A3.49,3.49,0,0,1,57,30a11.3,11.3,0,0,1,.15,2v3.3c0,1.86.07,2.39.42,2.72a1.57,1.57,0,0,0,.88.31h.22v.53h-.56c-.81,0-1.51-.08-2.24-.08s-1.56,0-2.57.09H53v-.53h.2a1.64,1.64,0,0,0,.94-.39c.37-.37.38-1.23.41-2V33.57q0-1.29-.09-2.58a2.12,2.12,0,0,0-2.1-2.15h-.3a4.59,4.59,0,0,0-2.12.47v5.94c0,1.86.08,2.39.43,2.72a1.53,1.53,0,0,0,.87.31h.22v.53h-.6c-.78,0-1.46-.07-2.17-.07s-1.59,0-2.6.09H46Z"/><path class="cls-2" d="M60.05,38.85V38.3h.22a1.48,1.48,0,0,0,1-.46c.35-.39.36-1.35.36-3.27V29H60.17v-.63l.15,0a5.39,5.39,0,0,0,1.32-.7,23,23,0,0,1,.17-3c.45-2.33,2-3.51,4.54-3.51a4.48,4.48,0,0,1,2.76.86l.08.07v.24l-1.12,1.55H67.8l-.06-.14a2,2,0,0,0-1.91-1.33,1.69,1.69,0,0,0-1.14.4c-.49.49-.57,1.22-.57,2.67v2.18h2.52V29H64.16v6.27a5.94,5.94,0,0,0,.25,2.51c.31.48,1.27.51,1.56.51h.23v.61H66c-1.24-.06-2.17-.09-2.83-.09-.84,0-1.8,0-2.81.09h-.26Z"/><path class="cls-2" d="M73.19,28.54a2.42,2.42,0,0,0-1.6.52c-.91.76-1.36,2.15-1.36,4.12,0,.76.14,4.56,2.92,4.56a2.42,2.42,0,0,0,1.6-.52c.91-.76,1.37-2.15,1.37-4.12C76.12,32.34,76,28.54,73.19,28.54ZM73.05,39c-3.45,0-5.51-2.15-5.51-5.75,0-2.79,1.51-6.05,5.75-6.05,3.45,0,5.51,2.15,5.51,5.75C78.8,35.79,77.29,39,73.05,39Z"/><path class="cls-2" d="M79.89,38.85v-.57h.22a1.47,1.47,0,0,0,1-.47c.35-.39.37-1.32.37-3.24V31.34a5.23,5.23,0,0,0-.22-2.29,1.37,1.37,0,0,0-1-.39H80V28h.43a11.23,11.23,0,0,0,2-.22,4.71,4.71,0,0,0,1.21-.32l.13-.06.2.11v1a3.8,3.8,0,0,1,2.61-1,2.78,2.78,0,0,1,1.9.63l.07.07v.35l-1,1.75H87L87,30.18a2,2,0,0,0-1.82-.91,2.21,2.21,0,0,0-1.23.36v5.69a6.16,6.16,0,0,0,.24,2.49c.32.47,1.28.51,1.56.51H86V39h-.25c-1.24-.06-2.17-.09-2.84-.09-.84,0-1.79,0-2.8.09h-.26Z"/><path class="cls-2" d="M95.05,28.65c-2.21,0-3.28,1.52-3.28,4.61,0,1.27.36,4.18,3.64,4.18h.1A3.48,3.48,0,0,0,97.3,37V29.42A3.14,3.14,0,0,0,95.05,28.65Zm2.6,10.41-.3-.12v-1A5.23,5.23,0,0,1,94.19,39c-3.1,0-5.1-2.15-5.1-5.48a7.39,7.39,0,0,1,.61-3,5.64,5.64,0,0,1,5.39-3.23,11,11,0,0,1,2.21.22V25.1a6.21,6.21,0,0,0-.22-2.46,1.33,1.33,0,0,0-1-.39h-.29v-.51H96a22,22,0,0,0,2.42-.32,6.24,6.24,0,0,0,1.12-.25h.11l.2.12v.11c-.08.93-.09,2.92-.09,4.41V35a6.4,6.4,0,0,0,.22,2.5,1.27,1.27,0,0,0,1,.41h.31v.61h-.24a20.07,20.07,0,0,0-2.19.23,6.39,6.39,0,0,0-1.15.26h-.11Z"/><path class="cls-3" d="M112.28,37.28l1.15-1.4a4.67,4.67,0,0,0,3.15,1.27c1.3,0,2-.58,2-1.5s-.76-1.23-1.82-1.69l-1.6-.7a3.36,3.36,0,0,1-2.38-3.11c0-1.9,1.66-3.34,4-3.34a5.29,5.29,0,0,1,3.66,1.44l-1.18,1.4a3.91,3.91,0,0,0-2.5-1c-1.1,0-1.8.5-1.8,1.35s.88,1.22,1.86,1.64l1.58.65a3.28,3.28,0,0,1,2.38,3.18c0,1.92-1.59,3.52-4.25,3.52A5.88,5.88,0,0,1,112.28,37.28Z"/><path class="cls-3" d="M122.3,32.94c0-3.86,2.42-6.13,5.41-6.13a4.57,4.57,0,0,1,3.4,1.48L130,29.65a3,3,0,0,0-2.23-.94c-1.87,0-3.24,1.58-3.24,4.21s1.24,4.27,3.21,4.27a3.22,3.22,0,0,0,2.48-1.14l1.15,1.28A4.68,4.68,0,0,1,127.65,39C124.66,39,122.3,36.85,122.3,32.94Z"/><path class="cls-3" d="M133.3,27h2.14v4.73h4.69V27h2.14V38.79h-2.14V33.65h-4.69v5.2H133.3Z"/><path class="cls-3" d="M144.64,32.85c0-3.8,2.13-6,5.21-6s5.2,2.25,5.2,6S152.92,39,149.85,39,144.64,36.65,144.64,32.85Zm8.21,0c0-2.62-1.19-4.18-3-4.18s-3,1.56-3,4.18,1.17,4.3,3,4.3S152.85,35.47,152.85,32.85Z"/><path class="cls-3" d="M156.79,32.85c0-3.8,2.13-6,5.21-6s5.2,2.25,5.2,6S165.07,39,162,39,156.79,36.65,156.79,32.85Zm8.21,0c0-2.62-1.19-4.18-3-4.18s-3,1.56-3,4.18,1.17,4.3,3,4.3S165,35.47,165,32.85Z"/><path class="cls-3" d="M169.55,27h2.15V37h4.86v1.81h-7Z"/><path class="cls-3" d="M182.21,27h2.28L188,33.5a26.85,26.85,0,0,1,1.21,2.67h.07c-.13-1.27-.27-2.7-.27-4V27h2V38.79h-2.29l-3.53-6.48A27.76,27.76,0,0,1,184,29.65h-.07c.12,1.24.27,2.68.27,4v5.16h-2Z"/><path class="cls-3" d="M196.3,27h2.52l3.82,11.78h-2.27l-.9-3.15h-3.91l-.9,3.15h-2.18Zm-.25,7H199l-.39-1.4c-.38-1.23-.72-2.6-1.07-3.87h-.07c-.3,1.29-.65,2.63-1,3.87Z"/><path class="cls-3" d="M204.08,27h2.52l2,5.77c.26.76.47,1.44.69,2.3h.07c.22-.87.4-1.55.65-2.3L212,27h2.52V38.79h-2V33.42a35,35,0,0,1,.32-3.81h-.07l-.94,2.84L210,37.71h-1.4l-1.87-5.26-.94-2.84h-.07a35,35,0,0,1,.32,3.81v5.37H204.1Z"/><path class="cls-3" d="M217.52,27h7.11v1.81h-5v3h4.21v1.8h-4.21V37h5.14v1.8h-7.29Z"/></svg>