<svg id="Layer_1" data-name="Layer 1" xmlns="http://www.w3.org/2000/svg" viewBox="0 0 120 120"><defs><style>.cls-1{fill:#a90533;}.cls-2{fill:none;stroke:#231f20;stroke-miterlimit:10;stroke-width:0.72px;}.cls-3,.cls-4,.cls-5,.cls-6{isolation:isolate;}.cls-3{font-size:14.4px;fill:#231f20;font-family:SourceSansPro-Semibold, Source Sans Pro;font-weight:600;letter-spacing:0.03em;}.cls-4,.cls-5,.cls-6{font-size:12.6px;font-family:SourceSansPro-Regular, Source Sans Pro;}.cls-5{letter-spacing:-0.01em;}.cls-6{letter-spacing:-0.1em;}.cls-7{letter-spacing:-0.07em;}</style></defs><path class="cls-1" d="M33.88,31.61a12.79,12.79,0,0,0-2.48.94,1.89,1.89,0,0,0-1,1.78A1.5,1.5,0,0,0,31.75,36h.33a3.12,3.12,0,0,0,1.78-.52V31.61Zm-2.7,5.94c-3.06,0-3.3-2.32-3.3-3a3,3,0,0,1,2.18-3c2-.74,2.44-.83,3.82-1.26v-.36a3.28,3.28,0,0,0-.13-1.25,2,2,0,0,0-2.07-1.3,2.42,2.42,0,0,0-2.16,1.18l-.12.22-.57-.33.06-.18A3.75,3.75,0,0,1,32.7,25.9a3.5,3.5,0,0,1,3.23,1.31,5.54,5.54,0,0,1,.52,3v4.37c0,.8.13,1.41.79,1.41a.57.57,0,0,0,.38-.11l.18-.15.37.42-.12.16a2.77,2.77,0,0,1-2.24,1.26A1.63,1.63,0,0,1,34,36.38a3.87,3.87,0,0,1-2.83,1.17Z"/><path class="cls-1" d="M12.48,37.52A11.81,11.81,0,0,1,8.75,37H8.58V33.72h.66V34a2.35,2.35,0,0,0,.51,1.36,3.84,3.84,0,0,0,2.62.86c2.15,0,3.15-.81,3.15-2.56,0-1.49-.92-2.12-2.2-3l-.21-.14-1.35-.9c-1.88-1.25-2.83-2.24-2.83-4.23,0-1,.37-4.15,5.1-4.15a21.74,21.74,0,0,1,3.51.26h.2v3.3h-.57v-.22a2,2,0,0,0-.62-1.33A3.87,3.87,0,0,0,14,22.53c-2.51,0-2.8,1.28-2.8,2.25,0,1.33.68,1.78,2.17,2.77l1.71,1.13c1.46,1,2.83,1.89,2.83,4.31,0,4.09-3.81,4.53-5.45,4.53Z"/><path class="cls-1" d="M23.69,37.6c-1.74,0-2.71-.63-3.15-2a10.44,10.44,0,0,1-.17-2.3V27.58H18.92v-.47l.15-.05a5.08,5.08,0,0,0,1.26-.72,8.18,8.18,0,0,0,1.85-2.29l.26-.43h.49v2.59h3.85v1.4H22.93v5.93c0,1.77.33,2.78,2,2.78A3.27,3.27,0,0,0,26.31,36l.23-.12.2.46-.1.11a3.72,3.72,0,0,1-3,1.19Z"/><path class="cls-1" d="M39.05,37.45v-.53h.22a1.52,1.52,0,0,0,1-.47c.35-.39.37-1.35.37-3.27V29.93a5.22,5.22,0,0,0-.22-2.29,1.3,1.3,0,0,0-1-.38h-.31v-.65h.43a12.24,12.24,0,0,0,2-.22,4.08,4.08,0,0,0,1.19-.4l.13-.06.22.13V27a5.45,5.45,0,0,1,3.27-1.09,3.49,3.49,0,0,1,3.75,2.68,12.15,12.15,0,0,1,.14,2v3.3c0,1.86.08,2.39.43,2.71a1.71,1.71,0,0,0,.87.32h.22v.52h-.55c-.82,0-1.52-.08-2.25-.08a21.91,21.91,0,0,0-2.56.1h-.26V36.9h.2a1.81,1.81,0,0,0,.94-.38,3.48,3.48,0,0,0,.41-2V32.13a22.09,22.09,0,0,0-.1-2.58,2.12,2.12,0,0,0-2.08-2.16,1.56,1.56,0,0,0-.31,0,4.19,4.19,0,0,0-2.11.48v5.93c0,1.86.07,2.39.42,2.71a1.71,1.71,0,0,0,.87.32h.22v.52H44c-.78,0-1.45-.08-2.17-.08a22.43,22.43,0,0,0-2.59.1H39Z"/><path class="cls-1" d="M53.14,37.45V36.9h.22a1.52,1.52,0,0,0,1-.47c.35-.39.37-1.34.37-3.26v-5.6H53.26v-.64l.14-.06a6.45,6.45,0,0,0,1.33-.69,18.74,18.74,0,0,1,.17-3c.44-2.33,2-3.51,4.53-3.51a4.52,4.52,0,0,1,2.75.86l.09.07v.24l-1.13,1.55h-.26l-.07-.14a1.93,1.93,0,0,0-1.9-1.33,1.64,1.64,0,0,0-1.14.4c-.49.49-.57,1.21-.57,2.66v2.23h2.52v1.4H57.2v6.26a5.94,5.94,0,0,0,.25,2.51c.31.48,1.27.51,1.55.51h.24v.6H59c-1.24-.07-2.17-.1-2.83-.1a26.2,26.2,0,0,0-2.8.1h-.26Z"/><path class="cls-1" d="M66.27,27.15a2.32,2.32,0,0,0-1.6.52c-.91.76-1.37,2.14-1.37,4.11,0,.76.14,4.56,2.92,4.56a2.49,2.49,0,0,0,1.6-.51c.91-.77,1.37-2.15,1.37-4.12C69.19,31,69,27.15,66.27,27.15Zm-.14,10.49c-3.45,0-5.51-2.14-5.51-5.74,0-2.79,1.5-6,5.74-6,3.45,0,5.51,2.15,5.51,5.74,0,2.79-1.51,6-5.74,6Z"/><path class="cls-1" d="M73,37.45v-.57h.22a1.51,1.51,0,0,0,1-.46c.35-.39.37-1.32.37-3.24V29.93a5.22,5.22,0,0,0-.22-2.29,1.34,1.34,0,0,0-1-.38h-.09L73,27.21v-.69h.43a13.43,13.43,0,0,0,2-.21A7.19,7.19,0,0,0,76.64,26l.12-.06L77,26v1a3.63,3.63,0,0,1,2.61-1,2.66,2.66,0,0,1,1.89.63l.08.07v.36l-1,1.74h-.46L80,28.72a2,2,0,0,0-1.82-.91,2.11,2.11,0,0,0-1.24.36v5.69a5.86,5.86,0,0,0,.25,2.49c.31.47,1.27.51,1.55.51H79v.62h-.25c-1.24-.07-2.16-.1-2.83-.1a26.2,26.2,0,0,0-2.8.1h-.26Z"/><path class="cls-1" d="M88.11,27.21c-2.21,0-3.28,1.5-3.28,4.6,0,1.25.35,4.17,3.63,4.17h.11a3.49,3.49,0,0,0,1.79-.46V28a3.08,3.08,0,0,0-2.25-.75Zm2.6,10.38-.3-.1v-1a5.5,5.5,0,0,1-3.16,1.06c-3.1,0-5.1-2.15-5.1-5.48a7.32,7.32,0,0,1,.61-3,5.63,5.63,0,0,1,5.39-3.23,10.29,10.29,0,0,1,2.21.22v-2.4a6.18,6.18,0,0,0-.22-2.46,1.3,1.3,0,0,0-1-.39h-.31v-.5h.24c.81-.07,1.62-.18,2.42-.32a8.13,8.13,0,0,0,1.11-.25h.12l.19.12V20c-.07.93-.09,2.92-.09,4.41v9.21a6.61,6.61,0,0,0,.22,2.5,1.34,1.34,0,0,0,1,.41h.3v.6h-.23a16.12,16.12,0,0,0-2.19.24,4.72,4.72,0,0,0-1.16.25l-.1,0Z"/><line class="cls-2" x1="93.71" y1="64.02" x2="7.76" y2="64.02"/><text class="cls-3" transform="translate(7.75 56.61)">SCHOOLNAME</text><text class="cls-4" transform="translate(7.69 81.8)">Dep</text><text class="cls-4" transform="translate(28.71 81.8)">ar</text><text class="cls-4" transform="translate(40.02 81.8)">tment</text><text class="cls-5" transform="translate(74.78 81.8)">Na</text><text class="cls-4" transform="translate(89.19 81.8)">me</text><text class="cls-4" transform="translate(7.69 95.3)">on One or</text><text class="cls-6" transform="translate(61.83 95.3)">T<tspan class="cls-7" x="5.44" y="0">w</tspan></text><text class="cls-4" transform="translate(76.66 95.3)">o Line</text><text class="cls-4" transform="translate(108.42 95.3)">s</text></svg>