<svg id="Signature_Templates" data-name="Signature Templates" xmlns="http://www.w3.org/2000/svg" viewBox="0 0 160.12 34.31"><defs><style>.cls-1{fill:#a90533;}</style></defs><g id="logo"><path class="cls-1" d="M42.28,33.83c-5.7,0-6.14-4.32-6.14-5.65a5.62,5.62,0,0,1,4-5.65c3.75-1.38,4.55-1.54,7.13-2.35v-.67a6.06,6.06,0,0,0-.25-2.33,3.79,3.79,0,0,0-3.85-2.42,4.55,4.55,0,0,0-4,2.2l-.23.42-1.06-.63.11-.32C38.53,14.79,40.6,12,45.11,12c2.93,0,4.84.84,6,2.63.89,1.43,1,3.4,1,5.46,0,1.81-.05,3.82-.09,5.45,0,1.12,0,2.08,0,2.67,0,1.49.24,2.64,1.48,2.64a.94.94,0,0,0,.68-.21l.34-.29.7.79-.23.3c-1.14,1.37-2.22,2.34-4.16,2.34a3.06,3.06,0,0,1-3.22-2.13A7.1,7.1,0,0,1,42.28,33.83Zm5-11a24.05,24.05,0,0,0-4.62,1.75,3.51,3.51,0,0,0-1.83,3.3,2.78,2.78,0,0,0,3.13,3,5.64,5.64,0,0,0,3.32-1Z"/><path class="cls-1" d="M7.47,33.78a21.42,21.42,0,0,1-6.94-1l-.31-.1V31.16c0-2,0-2.84-.09-3.48L.07,26.62H1.31l0,.44a4.19,4.19,0,0,0,1,2.54c.89,1,3,1.62,4.87,1.62,4,0,5.87-1.51,5.87-4.77,0-2.79-1.73-3.95-4.11-5.56l-.38-.26L6,19C2.53,16.64.75,14.78.75,11.08c0-1.82.69-7.73,9.5-7.73a42.64,42.64,0,0,1,6.52.49l.38.07v.37s0,1.16,0,2.4c0,1,0,1.84,0,2.72l0,.66H16.09l0-.41a3.7,3.7,0,0,0-1-2.54c-.84-.85-2.72-1.25-4.7-1.25-4.67,0-5.22,2.4-5.22,4.2,0,2.48,1.27,3.32,4.05,5.15l3.18,2.11c2.72,1.81,5.27,3.52,5.27,8C17.62,33,10.52,33.78,7.47,33.78Z"/><path class="cls-1" d="M28.34,33.91c-3.25,0-5.05-1.16-5.85-3.75a18.05,18.05,0,0,1-.33-4.29c0-3.36,0-6.05.06-9.17l0-1.47H19.47V14.4l.27-.11A8.26,8.26,0,0,0,22.09,13,15.05,15.05,0,0,0,25.54,8.7L26,7.9h.92v4.72h7.16v2.61H26.93v11c0,3.29.61,5.18,3.74,5.18a6.12,6.12,0,0,0,2.57-.57l.43-.23.37.86-.18.2C33.79,31.8,32.16,33.91,28.34,33.91Z"/><path class="cls-1" d="M56.94,33.65v-1l.41,0a2.85,2.85,0,0,0,1.86-.87c.65-.73.69-2.52.69-6.1v-6c0-2.58,0-3.69-.41-4.25a2.45,2.45,0,0,0-1.89-.72l-.17,0-.41,0v-1.2l.48,0h.32a22.68,22.68,0,0,0,3.8-.4,7,7,0,0,0,2.22-.75l.24-.11.41.24v1.67a10.37,10.37,0,0,1,6.09-2c3.8,0,6.27,1.78,7,5a21.93,21.93,0,0,1,.27,3.76V27c0,3.46.14,4.44.79,5.05a3,3,0,0,0,1.62.59l.42,0v1l-1-.06c-1.51-.07-2.81-.14-4.18-.14-1.55,0-2.89,0-4.77.17l-.48,0v-1l.37-.06a3,3,0,0,0,1.75-.71c.68-.68.71-2.3.77-3.7,0-.23,0-.47,0-.72,0-.79,0-2.44,0-3.65A43.33,43.33,0,0,0,73,19c-.31-2.72-1.73-4-4.46-4a8,8,0,0,0-3.93.89V27c0,3.46.14,4.44.79,5.05a3,3,0,0,0,1.62.59l.41,0v1l-1.11-.06c-1.46-.08-2.72-.14-4.05-.14-1.52,0-2.94,0-4.82.17Z"/><path class="cls-1" d="M83.16,33.65v-1l.41,0a2.85,2.85,0,0,0,1.87-.87c.65-.72.68-2.5.68-6.08V15.23H83.38V14.05l.27-.11a10,10,0,0,0,2.47-1.31,36.89,36.89,0,0,1,.31-5.57C87.26,2.72,90.1.52,94.87.52A8.54,8.54,0,0,1,100,2.12l.16.13.07.45L98.14,5.6h-.5l-.12-.27A3.6,3.6,0,0,0,94,2.86a3.08,3.08,0,0,0-2.11.76C91,4.53,90.8,5.88,90.8,8.56v4.06h4.68v2.61H90.8V26.89c0,2.77.09,4.12.46,4.67.58.88,2.37.95,2.9.95h.44v1.12l-.46,0c-2.32-.12-4-.17-5.28-.17-1.56,0-3.34,0-5.22.17Z"/><path class="cls-1" d="M107.33,34c-6.41,0-10.24-4-10.24-10.69,0-5.19,2.8-11.26,10.69-11.26,6.42,0,10.25,4,10.25,10.69C118,27.94,115.23,34,107.33,34Zm.27-19.52a4.46,4.46,0,0,0-3,.95c-1.69,1.42-2.54,4-2.54,7.66,0,1.42.26,8.48,5.44,8.48a4.48,4.48,0,0,0,3-.95c1.68-1.41,2.54-4,2.54-7.66C113,21.54,112.77,14.48,107.6,14.48Z"/><path class="cls-1" d="M120.05,33.65V32.58l.41,0a2.73,2.73,0,0,0,1.87-.87c.66-.72.68-2.45.68-6v-6c0-2.58,0-3.69-.4-4.25a2.45,2.45,0,0,0-1.89-.72l-.17,0-.4,0V13.34h.79a21.47,21.47,0,0,0,3.8-.4,10.05,10.05,0,0,0,2.25-.6l.25-.11.37.19v1.83a6.94,6.94,0,0,1,4.86-2A5.12,5.12,0,0,1,136,13.48l.14.14v.66l-1.77,3.24h-.85l-.13-.2A3.76,3.76,0,0,0,130,15.63a3.91,3.91,0,0,0-2.29.67V26.89c0,2.77.09,4.08.45,4.62.6.89,2.38.95,2.9.95h.44v1.17l-.46,0c-2.31-.12-4-.17-5.28-.17-1.56,0-3.33,0-5.21.17Z"/><path class="cls-1" d="M153.1,33.94l-.56-.19V32a10,10,0,0,1-5.87,2c-5.78,0-9.51-4-9.51-10.21a13.87,13.87,0,0,1,1.15-5.65c1.76-3.82,5.42-6,10-6a20.24,20.24,0,0,1,4.11.41V8c0-2.62,0-4-.41-4.58a2.46,2.46,0,0,0-1.85-.72H150l-.4,0,.1-1h.44a43.11,43.11,0,0,0,4.5-.59,13.84,13.84,0,0,0,2.08-.47L157,.59l.36.21,0,.21c-.14,1.73-.16,5.44-.16,8.21V26.36c0,2.56,0,4.14.41,4.65a2.44,2.44,0,0,0,1.85.77l.17,0h.4v1.13h-.44a32.9,32.9,0,0,0-4.09.43,10.58,10.58,0,0,0-2.14.49Zm-4.85-19.33c-4.1,0-6.1,2.8-6.1,8.57,0,2.34.67,7.77,6.77,7.77h.19a6.5,6.5,0,0,0,3.34-.86V16A5.85,5.85,0,0,0,148.25,14.61Z"/></g></svg>