<svg id="Layer_1" data-name="Layer 1" xmlns="http://www.w3.org/2000/svg" viewBox="0 0 240 60"><defs><style>.cls-1{fill:#231f20;}.cls-2{fill:none;stroke:#231f20;stroke-miterlimit:10;stroke-width:0.72px;}.cls-3{fill:#a90533;}</style></defs><path class="cls-1" d="M109.94,38.78v-10h2.51A4.61,4.61,0,0,1,116,30.06a5.22,5.22,0,0,1,1.21,3.69,7,7,0,0,1-.31,2.13,4.26,4.26,0,0,1-.9,1.59,4,4,0,0,1-1.47,1,5.68,5.68,0,0,1-2,.34Zm1.27-1h1.15a3.29,3.29,0,0,0,2.64-1,4.56,4.56,0,0,0,.88-3,4.26,4.26,0,0,0-.88-2.92,3.3,3.3,0,0,0-2.64-1h-1.15Z"/><path class="cls-1" d="M122.23,39a3.71,3.71,0,0,1-1.4-.27,3.39,3.39,0,0,1-1.13-.77,3.64,3.64,0,0,1-.76-1.21,4.6,4.6,0,0,1-.28-1.64,4.37,4.37,0,0,1,.29-1.64,3.75,3.75,0,0,1,.75-1.24,3.21,3.21,0,0,1,1.06-.77,3.11,3.11,0,0,1,2.5,0,2.4,2.4,0,0,1,.94.7,3.3,3.3,0,0,1,.57,1.1,5,5,0,0,1,.2,1.44v.39a1.82,1.82,0,0,1,0,.33h-5a2.88,2.88,0,0,0,.75,1.89,2.33,2.33,0,0,0,1.73.7,3.37,3.37,0,0,0,1-.16,4.61,4.61,0,0,0,.86-.43l.45.83a7.37,7.37,0,0,1-1.09.54A3.9,3.9,0,0,1,122.23,39Zm-2.34-4.5h4a2.56,2.56,0,0,0-.49-1.72,1.63,1.63,0,0,0-1.35-.59,2,2,0,0,0-.76.15,2,2,0,0,0-.65.45,2.57,2.57,0,0,0-.48.73A3.32,3.32,0,0,0,119.89,34.47Z"/><path class="cls-1" d="M126.79,41.92V31.35h1l.11.85h0a5.46,5.46,0,0,1,1.11-.73,2.76,2.76,0,0,1,1.26-.31,2.79,2.79,0,0,1,1.27.27,2.37,2.37,0,0,1,.92.77,3.43,3.43,0,0,1,.56,1.19,5.92,5.92,0,0,1,.19,1.57,5.14,5.14,0,0,1-.26,1.69,4.11,4.11,0,0,1-.7,1.26,3,3,0,0,1-1,.79A2.86,2.86,0,0,1,130,39a2.61,2.61,0,0,1-1-.23,6.47,6.47,0,0,1-1-.63v3.81Zm3.07-4a1.78,1.78,0,0,0,.85-.21,2,2,0,0,0,.68-.58,3.12,3.12,0,0,0,.44-.92A4.35,4.35,0,0,0,132,35a6,6,0,0,0-.11-1.12,2.38,2.38,0,0,0-.34-.86,1.57,1.57,0,0,0-.61-.56,2,2,0,0,0-1.85.06,5.23,5.23,0,0,0-1,.75v3.87a3.17,3.17,0,0,0,1,.6,2.64,2.64,0,0,0,.78.2Z"/><path class="cls-1" d="M136.74,39a2.3,2.3,0,0,1-1.55-.55,2,2,0,0,1-.62-1.57A2,2,0,0,1,135.66,35a8.72,8.72,0,0,1,3.47-.91,3.17,3.17,0,0,0-.07-.69,1.58,1.58,0,0,0-.24-.6,1.24,1.24,0,0,0-.46-.42,1.68,1.68,0,0,0-.76-.16,3,3,0,0,0-1.21.25,5.74,5.74,0,0,0-1,.55l-.49-.87a6.92,6.92,0,0,1,1.27-.65,4,4,0,0,1,1.65-.32,2.26,2.26,0,0,1,2,.84,3.63,3.63,0,0,1,.61,2.22v4.56h-1l-.11-.88h0a6.68,6.68,0,0,1-1.15.75A2.83,2.83,0,0,1,136.74,39Zm.37-1a2.19,2.19,0,0,0,1-.26,4.55,4.55,0,0,0,1-.74V34.91a10.57,10.57,0,0,0-1.57.29,3.71,3.71,0,0,0-1,.39,1.61,1.61,0,0,0-.57.53,1.22,1.22,0,0,0-.18.65,1,1,0,0,0,.39.92,1.61,1.61,0,0,0,.93.27Z"/><path class="cls-1" d="M142.62,38.78V31.35h1l.11,1.34h0a3.43,3.43,0,0,1,.93-1.11,1.87,1.87,0,0,1,1.18-.42,1.82,1.82,0,0,1,.8.16l-.25,1.1-.33-.09a1.21,1.21,0,0,0-.38,0,1.59,1.59,0,0,0-1,.38,3.06,3.06,0,0,0-.9,1.33v4.77Z"/><path class="cls-1" d="M150.91,39a2.65,2.65,0,0,1-1-.19,1.81,1.81,0,0,1-.66-.5,1.92,1.92,0,0,1-.36-.78,4.86,4.86,0,0,1-.11-1V32.38h-1.1v-1l1.16-.07.16-2.08h1.05v2.08h2v1h-2v4.13a2,2,0,0,0,.25,1.07,1,1,0,0,0,.9.37,1.54,1.54,0,0,0,.43-.06l.41-.14.25,1c-.22.07-.44.14-.67.19A3.38,3.38,0,0,1,150.91,39Z"/><path class="cls-1" d="M153.72,38.78V31.35h1l.11,1.07h0a5.06,5.06,0,0,1,1.06-.9,2.22,2.22,0,0,1,1.25-.36,2.06,2.06,0,0,1,1.34.38,2.17,2.17,0,0,1,.71,1,6.19,6.19,0,0,1,1.17-1,2.25,2.25,0,0,1,1.28-.39,2,2,0,0,1,1.7.74,3.57,3.57,0,0,1,.66,2.22v4.71h-1.25V34.28a2.68,2.68,0,0,0-.34-1.52,1.15,1.15,0,0,0-1-.47,2.75,2.75,0,0,0-1.87,1.15v5.38h-1.25V34.28a2.53,2.53,0,0,0-.34-1.52,1.17,1.17,0,0,0-1-.47A2.69,2.69,0,0,0,155,33.44v5.38Z"/><path class="cls-1" d="M169.41,39a3.71,3.71,0,0,1-1.4-.27,3.36,3.36,0,0,1-1.89-2,4.39,4.39,0,0,1-.28-1.64,4.56,4.56,0,0,1,.28-1.64,3.75,3.75,0,0,1,.75-1.24,3.25,3.25,0,0,1,1.07-.77,3.11,3.11,0,0,1,2.5,0,2.36,2.36,0,0,1,.93.7,3.23,3.23,0,0,1,.58,1.1,5,5,0,0,1,.2,1.44V35a1.82,1.82,0,0,1,0,.33h-5a2.87,2.87,0,0,0,.74,1.89,2.37,2.37,0,0,0,1.74.7,3.37,3.37,0,0,0,1-.16,4.61,4.61,0,0,0,.86-.43l.44.83a6.81,6.81,0,0,1-1.08.54A4.14,4.14,0,0,1,169.41,39Zm-2.34-4.5h4a2.7,2.7,0,0,0-.48-1.72,1.63,1.63,0,0,0-1.35-.59,2,2,0,0,0-.76.15,1.73,1.73,0,0,0-.65.45,2.57,2.57,0,0,0-.48.73A3.06,3.06,0,0,0,167.07,34.47Z"/><path class="cls-1" d="M174,38.78V31.35h1l.1,1.07h0a5.67,5.67,0,0,1,1.12-.9,2.53,2.53,0,0,1,1.37-.36,2,2,0,0,1,1.72.74,3.59,3.59,0,0,1,.55,2.17v4.71H178.6V34.24a2.68,2.68,0,0,0-.33-1.52,1.22,1.22,0,0,0-1.08-.47,1.88,1.88,0,0,0-1,.29,6.31,6.31,0,0,0-1,.86v5.38Z"/><path class="cls-1" d="M184.66,39a2.65,2.65,0,0,1-1-.19,1.81,1.81,0,0,1-.66-.5,1.92,1.92,0,0,1-.36-.78,4.86,4.86,0,0,1-.11-1V32.38h-1.1v-1l1.16-.07.16-2.08h1.05v2.08h2v1h-2v4.13a1.93,1.93,0,0,0,.26,1.07,1,1,0,0,0,.89.37,1.54,1.54,0,0,0,.43-.06l.41-.14.25,1c-.22.07-.44.14-.67.19A3.38,3.38,0,0,1,184.66,39Z"/><path class="cls-1" d="M190.5,38.78v-10h1.32l3.62,6.3,1.09,2.08h.06c0-.51-.06-1-.1-1.58s-.05-1.09-.05-1.62V28.78h1.21v10h-1.32l-3.64-6.32L191.6,30.4h-.06l.12,1.55c0,.53.05,1,.05,1.58v5.25Z"/><path class="cls-1" d="M201.75,39a2.3,2.3,0,0,1-1.55-.55,2,2,0,0,1-.62-1.57A2.07,2.07,0,0,1,200.66,35a8.81,8.81,0,0,1,3.48-.91,3.94,3.94,0,0,0-.07-.69,2.09,2.09,0,0,0-.24-.6,1.27,1.27,0,0,0-.47-.42,1.61,1.61,0,0,0-.75-.16,3,3,0,0,0-1.21.25,5.4,5.4,0,0,0-1,.55l-.49-.87a6.92,6.92,0,0,1,1.27-.65,4,4,0,0,1,1.65-.32,2.24,2.24,0,0,1,2,.84,3.64,3.64,0,0,1,.62,2.22v4.56h-1l-.1-.88h0a6.68,6.68,0,0,1-1.15.75A2.93,2.93,0,0,1,201.75,39Zm.37-1a2.32,2.32,0,0,0,1-.26,5.18,5.18,0,0,0,1-.74V34.91a10.57,10.57,0,0,0-1.57.29,3.59,3.59,0,0,0-1,.39,1.5,1.5,0,0,0-.56.53,1.22,1.22,0,0,0-.18.65,1.08,1.08,0,0,0,.38.92,1.68,1.68,0,0,0,.93.27Z"/><path class="cls-1" d="M207.67,38.78V31.35h1l.11,1.07h0a5.06,5.06,0,0,1,1.06-.9,2.3,2.3,0,0,1,1.25-.36,2.06,2.06,0,0,1,1.34.38,2.12,2.12,0,0,1,.71,1,6.19,6.19,0,0,1,1.17-1,2.25,2.25,0,0,1,1.28-.39,2,2,0,0,1,1.71.74,3.59,3.59,0,0,1,.55,2.17v4.71H216.6V34.23a2.53,2.53,0,0,0-.34-1.52,1.15,1.15,0,0,0-1-.47,2.69,2.69,0,0,0-1.86,1.15v5.38h-1.26V34.23a2.53,2.53,0,0,0-.34-1.52,1.16,1.16,0,0,0-1.05-.47,2.75,2.75,0,0,0-1.87,1.15v5.38Z"/><path class="cls-1" d="M223.32,39a3.71,3.71,0,0,1-1.4-.27,3.39,3.39,0,0,1-1.13-.77,3.64,3.64,0,0,1-.76-1.21,4.6,4.6,0,0,1-.28-1.64,4.37,4.37,0,0,1,.29-1.64,3.75,3.75,0,0,1,.75-1.24,3.21,3.21,0,0,1,1.06-.77,3.11,3.11,0,0,1,2.5,0,2.4,2.4,0,0,1,.94.7,3.21,3.21,0,0,1,.57,1.1,5,5,0,0,1,.2,1.44v.39a1.82,1.82,0,0,1,0,.33h-5a2.88,2.88,0,0,0,.75,1.89,2.33,2.33,0,0,0,1.73.7,3.37,3.37,0,0,0,1-.16,4.61,4.61,0,0,0,.86-.43l.45.83a7.37,7.37,0,0,1-1.09.54A3.9,3.9,0,0,1,223.32,39ZM221,34.47h4a2.56,2.56,0,0,0-.49-1.72,1.63,1.63,0,0,0-1.35-.59,2,2,0,0,0-.76.15,2,2,0,0,0-.65.45,2.57,2.57,0,0,0-.48.73,3,3,0,0,0-.25,1Z"/><line class="cls-2" x1="104.53" y1="38.75" x2="104.53" y2="20.91"/><path class="cls-3" d="M38.61,32.76a12.79,12.79,0,0,0-2.48.94,1.9,1.9,0,0,0-1,1.78,1.5,1.5,0,0,0,1.35,1.63h.34a3,3,0,0,0,1.78-.52V32.76Zm-2.7,6c-3.06,0-3.3-2.33-3.3-3a3,3,0,0,1,2.18-3c2-.74,2.45-.83,3.83-1.26v-.36a3.3,3.3,0,0,0-.13-1.25,2,2,0,0,0-2.07-1.31,2.48,2.48,0,0,0-2.17,1.18l-.12.23-.56-.34,0-.17a3.78,3.78,0,0,1,3.81-2.37,3.48,3.48,0,0,1,3.23,1.33,5.57,5.57,0,0,1,.51,2.93v4.37c0,.8.13,1.42.8,1.42a.64.64,0,0,0,.36-.11l.19-.16.37.42-.12.16a2.77,2.77,0,0,1-2.24,1.26,1.64,1.64,0,0,1-1.73-1.14A3.85,3.85,0,0,1,35.91,38.71Z"/><path class="cls-3" d="M17.19,38.68a11.24,11.24,0,0,1-3.73-.54h-.17v-.82a15.08,15.08,0,0,0,0-1.87v-.57h.67v.24a2.35,2.35,0,0,0,.51,1.36,3.78,3.78,0,0,0,2.62.87c2.15,0,3.16-.81,3.16-2.56,0-1.5-.93-2.13-2.21-3l-.21-.14-1.35-.9c-1.88-1.25-2.83-2.25-2.83-4.24,0-1,.36-4.15,5.1-4.15a22.94,22.94,0,0,1,3.51.26h.2v3.31h-.58v-.22a2,2,0,0,0-.55-1.37,3.85,3.85,0,0,0-2.53-.67c-2.51,0-2.8,1.29-2.8,2.26,0,1.33.68,1.78,2.17,2.77l1.71,1.13c1.46,1,2.84,1.89,2.84,4.31,0,4.09-3.82,4.54-5.46,4.54Z"/><path class="cls-3" d="M28.41,38.75c-1.75,0-2.72-.63-3.15-2a10.44,10.44,0,0,1-.17-2.3V28.73H23.64v-.45l.14-.06a4.69,4.69,0,0,0,1.27-.72,8,8,0,0,0,1.86-2.31l.26-.43h.49V27.3h3.85v1.41H27.65v5.93c0,1.77.33,2.78,2,2.78a3.6,3.6,0,0,0,1.38-.3l.23-.12.2.46-.09.11a3.76,3.76,0,0,1-3,1.18Z"/><path class="cls-3" d="M43.78,38.61v-.54H44a1.51,1.51,0,0,0,1-.46c.35-.39.37-1.36.37-3.28V31.1a5.22,5.22,0,0,0-.22-2.29,1.3,1.3,0,0,0-1-.39h-.31v-.64h.43a13.43,13.43,0,0,0,2-.21,3.82,3.82,0,0,0,1.19-.41l.13-.06.22.14v.9a5.48,5.48,0,0,1,3.28-1.09,3.49,3.49,0,0,1,3.75,2.68,12.15,12.15,0,0,1,.14,2V35c0,1.86.08,2.39.43,2.72a1.7,1.7,0,0,0,.87.31h.22v.53h-.56c-.81,0-1.51-.08-2.24-.08s-1.56,0-2.56.09h-.26v-.53h.2a1.71,1.71,0,0,0,.94-.39,3.48,3.48,0,0,0,.41-2V33.29a22.17,22.17,0,0,0-.1-2.58,2.12,2.12,0,0,0-2.08-2.16,1.56,1.56,0,0,0-.31,0,4.47,4.47,0,0,0-2.12.47V35c0,1.86.07,2.39.42,2.72a1.73,1.73,0,0,0,.88.31h.22v.53h-.6c-.78,0-1.46-.08-2.18-.08s-1.58,0-2.59.09h-.26Z"/><path class="cls-3" d="M57.91,38.61v-.55h.22a1.51,1.51,0,0,0,1-.46c.36-.39.37-1.35.37-3.27v-5.6H58v-.64l.15-.06a6,6,0,0,0,1.32-.7,20,20,0,0,1,.17-3c.45-2.33,2-3.51,4.53-3.51a4.54,4.54,0,0,1,2.76.86l.09.07V22l-1.11,1.54h-.27l-.06-.14a1.93,1.93,0,0,0-1.9-1.33,1.64,1.64,0,0,0-1.14.4c-.49.49-.57,1.22-.57,2.66V27.3h2.54v1.41H62V35a6.27,6.27,0,0,0,.24,2.51c.32.48,1.28.51,1.56.51H64v.61h-.25c-1.24-.06-2.17-.09-2.84-.09-.84,0-1.79,0-2.8.09h-.23Z"/><path class="cls-3" d="M71,28.3a2.36,2.36,0,0,0-1.6.51c-.91.76-1.37,2.15-1.37,4.12,0,.76.14,4.56,2.92,4.56A2.41,2.41,0,0,0,72.58,37c.9-.76,1.36-2.15,1.36-4.12C73.94,32.1,73.8,28.3,71,28.3Zm-.11,10.5c-3.45,0-5.51-2.15-5.51-5.75,0-2.79,1.5-6.06,5.75-6.06,3.45,0,5.51,2.15,5.51,5.75C76.66,35.53,75.15,38.8,70.91,38.8Z"/><path class="cls-3" d="M77.72,38.61V38h.22a1.47,1.47,0,0,0,1-.47c.35-.39.37-1.32.37-3.24V31.1a5.22,5.22,0,0,0-.22-2.29,1.31,1.31,0,0,0-1-.39h-.31v-.68h.43a12.24,12.24,0,0,0,2-.22,5.62,5.62,0,0,0,1.22-.32l.13-.06.2.11v1a3.71,3.71,0,0,1,2.61-1,2.66,2.66,0,0,1,1.89.63l.08.07v.35l-1,1.75h-.43l-.07-.11A2,2,0,0,0,83,29a2.11,2.11,0,0,0-1.24.36v5.69A5.85,5.85,0,0,0,82,37.57c.32.47,1.27.51,1.56.51h.32v.63h-.25c-1.25-.06-2.17-.09-2.84-.09-.84,0-1.79,0-2.8.09h-.26Z"/><path class="cls-3" d="M92.91,28.39c-2.2,0-3.27,1.51-3.27,4.61,0,1.25.35,4.18,3.63,4.18h.11a3.49,3.49,0,0,0,1.79-.46V29.15A3.07,3.07,0,0,0,92.91,28.39Zm2.61,10.39-.3-.1v-1a5.36,5.36,0,0,1-3.16,1.06C89,38.74,87,36.59,87,33.26a7.5,7.5,0,0,1,.62-3A5.62,5.62,0,0,1,92.91,27a10.29,10.29,0,0,1,2.21.22V24.83a6.28,6.28,0,0,0-.21-2.44,1.3,1.3,0,0,0-1-.39H93.6v-.51h.31c.81-.07,1.62-.17,2.42-.32a7,7,0,0,0,1.12-.26h.11l.19.12v.11c-.08.93-.09,2.92-.09,4.41v9.22a6.4,6.4,0,0,0,.22,2.5,1.34,1.34,0,0,0,1,.41h.31v.61h-.28a16.1,16.1,0,0,0-2.19.23,5.25,5.25,0,0,0-1.16.26Z"/></svg>