<svg id="unit-level-1-line" xmlns="http://www.w3.org/2000/svg" viewBox="0 0 240 60"><defs><style>.cls-1{fill:#a90533;}.cls-2{fill:none;stroke:#231f20;stroke-miterlimit:10;stroke-width:0.72px;}.cls-3{fill:#231f20;}</style></defs><path class="cls-1" d="M47.34,34.79a13.72,13.72,0,0,0-2.48.93,1.9,1.9,0,0,0-1,1.78,1.5,1.5,0,0,0,1.35,1.64,1.22,1.22,0,0,0,.33,0,3,3,0,0,0,1.78-.52V34.79Zm-2.7,5.93c-3.07,0-3.3-2.33-3.3-3a3,3,0,0,1,2.17-3c2-.74,2.45-.83,3.83-1.26V33.1a3.32,3.32,0,0,0-.13-1.25,2,2,0,0,0-2.07-1.3A2.5,2.5,0,0,0,43,31.66l-.12.23-.57-.34.06-.17A3.76,3.76,0,0,1,46.18,29a3.51,3.51,0,0,1,3.23,1.42,5.7,5.7,0,0,1,.51,2.93v4.36c0,.8.13,1.42.79,1.42a.5.5,0,0,0,.37-.12l.19-.15.37.42-.13.16a2.71,2.71,0,0,1-2.32,1.28,1.65,1.65,0,0,1-1.73-1.14A3.78,3.78,0,0,1,44.64,40.72Z"/><path class="cls-1" d="M25.93,40.72a11.18,11.18,0,0,1-3.72-.54l-.17,0V36.87h.67v.24a2.3,2.3,0,0,0,.51,1.36,3.78,3.78,0,0,0,2.62.87c2.15,0,3.15-.81,3.15-2.56,0-1.5-.92-2.13-2.2-3l-.21-.14-1.35-.9c-1.88-1.24-2.83-2.24-2.83-4.23,0-1,.37-4.15,5.1-4.15a24.15,24.15,0,0,1,3.5.26h.21v3.3h-.57V27.7a2,2,0,0,0-.55-1.36,3.84,3.84,0,0,0-2.52-.67c-2.51,0-2.81,1.29-2.81,2.25,0,1.34.69,1.79,2.18,2.77l1.71,1.13c1.46,1,2.83,1.9,2.83,4.31,0,4.09-3.82,4.54-5.46,4.54Z"/><path class="cls-1" d="M37.15,40.77c-1.75,0-2.72-.63-3.15-2a10.44,10.44,0,0,1-.17-2.3V30.72H32.38v-.44l.15-.06a4.52,4.52,0,0,0,1.26-.72,8,8,0,0,0,1.85-2.29l.26-.43h.49v2.54h3.84v1.4H36.39v5.93c0,1.77.33,2.78,2,2.78a3.26,3.26,0,0,0,1.38-.3L40,39l.2.46-.1.11a3.69,3.69,0,0,1-3,1.18Z"/><path class="cls-1" d="M52.51,40.62v-.53h.22a1.46,1.46,0,0,0,1-.46c.35-.39.37-1.36.37-3.28V33.12a5.23,5.23,0,0,0-.22-2.29,1.34,1.34,0,0,0-1-.38h-.31v-.73H53a12.24,12.24,0,0,0,2-.22,3.35,3.35,0,0,0,1.19-.4l.13-.06.22.13v.9A5.64,5.64,0,0,1,59.81,29a3.48,3.48,0,0,1,3.74,2.67,11.16,11.16,0,0,1,.15,2V37c0,1.86.08,2.39.43,2.72A1.53,1.53,0,0,0,65,40h.22v.53h-.56c-.81,0-1.51-.08-2.24-.08s-1.55,0-2.56.09H59.6V40h.2a1.63,1.63,0,0,0,.94-.38,3.4,3.4,0,0,0,.41-2V35.24a22.26,22.26,0,0,0-.1-2.58A2.13,2.13,0,0,0,59,30.5l-.32,0a4.41,4.41,0,0,0-2.11.47v5.93c0,1.86.08,2.39.43,2.72a1.53,1.53,0,0,0,.87.31h.22v.53h-.6c-.78,0-1.46-.07-2.17-.07s-1.58,0-2.59.09h-.26Z"/><path class="cls-1" d="M66.6,40.62v-.54h.22a1.46,1.46,0,0,0,1-.46c.35-.39.37-1.35.37-3.27V30.72H66.72v-.63l.14-.06a6,6,0,0,0,1.33-.7,20.12,20.12,0,0,1,.17-3c.44-2.33,2-3.51,4.52-3.51a4.61,4.61,0,0,1,2.76.86l.09.07V24l-1.12,1.56h-.26l-.07-.14a1.94,1.94,0,0,0-1.9-1.33,1.69,1.69,0,0,0-1.14.4c-.49.49-.57,1.22-.57,2.66v2.18h2.52v1.4H70.7V37A5.92,5.92,0,0,0,71,39.49c.31.48,1.27.51,1.55.51h.24v.61h-.25c-1.24-.06-2.17-.09-2.83-.09-.84,0-1.8,0-2.8.09H66.6Z"/><path class="cls-1" d="M79.73,30.33a2.36,2.36,0,0,0-1.6.51c-.91.76-1.37,2.14-1.37,4.11,0,.76.14,4.56,2.92,4.56a2.36,2.36,0,0,0,1.6-.51c.91-.76,1.36-2.15,1.36-4.11,0-.77-.14-4.56-2.91-4.56Zm-.15,10.48c-3.44,0-5.5-2.14-5.5-5.74,0-2.79,1.5-6,5.74-6,3.45,0,5.51,2.15,5.51,5.74C85.33,37.61,83.82,40.81,79.58,40.81Z"/><path class="cls-1" d="M86.42,40.62v-.57h.22a1.47,1.47,0,0,0,1-.47c.35-.39.37-1.32.37-3.24V33.11a5.23,5.23,0,0,0-.22-2.29,1.38,1.38,0,0,0-1-.38h-.3v-.72h.42a11.22,11.22,0,0,0,2-.21,5.69,5.69,0,0,0,1.21-.32l.13-.06.2.1v1a3.75,3.75,0,0,1,2.61-1.06,2.78,2.78,0,0,1,1.9.63l.07.07v.36L94,32h-.46l-.07-.11a2,2,0,0,0-1.81-.9,2.18,2.18,0,0,0-1.24.35V37a5.83,5.83,0,0,0,.25,2.49C91,40,92,40,92.25,40h.24v.63h-.25c-1.24-.06-2.17-.09-2.83-.09-.84,0-1.79,0-2.8.09h-.19Z"/><path class="cls-1" d="M101.56,30.4c-2.2,0-3.27,1.5-3.27,4.6,0,1.26.35,4.18,3.63,4.18h.1a3.55,3.55,0,0,0,1.8-.46V31.15a3.21,3.21,0,0,0-2.26-.75Zm2.61,10.38-.3-.1v-1a5.38,5.38,0,0,1-3.16,1.06c-3.1,0-5.1-2.15-5.1-5.48a7.39,7.39,0,0,1,.61-3A5.65,5.65,0,0,1,101.61,29a11.73,11.73,0,0,1,2.21.21v-2.4a6.21,6.21,0,0,0-.22-2.46c-.23-.33-.73-.36-1-.39h-.3v-.51h.24a22,22,0,0,0,2.42-.32,6.87,6.87,0,0,0,1.11-.25h.11l.2.11v.11c-.07.93-.09,2.92-.09,4.41v9.17a6.4,6.4,0,0,0,.22,2.5,1.27,1.27,0,0,0,1,.41h.3v.61h-.23a16.25,16.25,0,0,0-2.2.23,6.39,6.39,0,0,0-1.15.26h-.1Z"/><line class="cls-2" x1="113.04" y1="19.22" x2="113.04" y2="40.64"/><path class="cls-3" d="M120.35,27.45V19.19h2.06a3.77,3.77,0,0,1,2.91,1.06,4.22,4.22,0,0,1,1,3,5.51,5.51,0,0,1-.25,1.76,3.5,3.5,0,0,1-.75,1.31,3,3,0,0,1-1.21.82,4.25,4.25,0,0,1-1.65.28Zm1-.85h1a2.66,2.66,0,0,0,2.17-.87,3.76,3.76,0,0,0,.73-2.45,3.53,3.53,0,0,0-.73-2.4,2.71,2.71,0,0,0-2.17-.83h-1Z"/><path class="cls-3" d="M130.54,27.61a3.05,3.05,0,0,1-1.15-.22,2.69,2.69,0,0,1-.93-.63,2.74,2.74,0,0,1-.63-1,3.6,3.6,0,0,1-.23-1.34,3.55,3.55,0,0,1,.24-1.36,3.05,3.05,0,0,1,.62-1,2.62,2.62,0,0,1,.87-.64,2.43,2.43,0,0,1,1-.22,2.66,2.66,0,0,1,1,.2,2.09,2.09,0,0,1,.77.58,2.63,2.63,0,0,1,.47.91,3.92,3.92,0,0,1,.17,1.18v.32a1.22,1.22,0,0,1,0,.27H128.6a2.38,2.38,0,0,0,.62,1.56,1.86,1.86,0,0,0,1.43.57,2.22,2.22,0,0,0,.81-.13,3.57,3.57,0,0,0,.71-.34l.37.68a6.24,6.24,0,0,1-.9.44A3.16,3.16,0,0,1,130.54,27.61Zm-1.93-3.71h3.28a2.19,2.19,0,0,0-.4-1.42,1.38,1.38,0,0,0-1.11-.48,1.5,1.5,0,0,0-1.16.5,2.17,2.17,0,0,0-.4.6A2.87,2.87,0,0,0,128.61,23.9Z"/><path class="cls-3" d="M134.37,30V21.33h.86l.09.71h0a4.74,4.74,0,0,1,.92-.61,2.31,2.31,0,0,1,1-.25,2.28,2.28,0,0,1,1,.22A2.22,2.22,0,0,1,139,22a3.13,3.13,0,0,1,.46,1,5.12,5.12,0,0,1,.16,1.29,4.41,4.41,0,0,1-.22,1.4,3.12,3.12,0,0,1-.58,1,2.33,2.33,0,0,1-1.85.87,2.1,2.1,0,0,1-.85-.19,4.12,4.12,0,0,1-.85-.52V30Zm2.53-3.3a1.45,1.45,0,0,0,.7-.17,1.73,1.73,0,0,0,.56-.48,2.59,2.59,0,0,0,.36-.77,3.71,3.71,0,0,0,.13-1,5.72,5.72,0,0,0-.08-.92,2.09,2.09,0,0,0-.29-.71,1.47,1.47,0,0,0-.5-.46,1.57,1.57,0,0,0-.74-.16,1.79,1.79,0,0,0-.79.21,5.78,5.78,0,0,0-.85.62v3.21a2.81,2.81,0,0,0,.81.5,1.82,1.82,0,0,0,.69.11Z"/><path class="cls-3" d="M142.67,27.61a1.82,1.82,0,0,1-1.28-.46,1.63,1.63,0,0,1-.51-1.28,1.72,1.72,0,0,1,.89-1.55,7.73,7.73,0,0,1,2.86-.75,2.62,2.62,0,0,0,0-.56,1.49,1.49,0,0,0-.2-.49.92.92,0,0,0-.38-.35,1.37,1.37,0,0,0-.63-.13,2.45,2.45,0,0,0-1,.2,4.44,4.44,0,0,0-.83.45l-.41-.72a8.61,8.61,0,0,1,1-.53,3.7,3.7,0,0,1,1.36-.26,1.87,1.87,0,0,1,1.62.69,3,3,0,0,1,.51,1.83v3.75h-.86l-.09-.73h0a4.61,4.61,0,0,1-1,.63A2.42,2.42,0,0,1,142.67,27.61Zm.3-.84a1.85,1.85,0,0,0,.83-.2,4.18,4.18,0,0,0,.83-.62v-1.7q-.65.09-1.29.24a4.31,4.31,0,0,0-.84.33,1.41,1.41,0,0,0-.47.44,1,1,0,0,0-.14.53.87.87,0,0,0,.31.76,1.28,1.28,0,0,0,.8.22Z"/><path class="cls-3" d="M147.58,27.45V21.33h.86l.09,1.11h0a2.85,2.85,0,0,1,.77-.92,1.52,1.52,0,0,1,1-.34,1.65,1.65,0,0,1,.66.13l-.2.9-.28-.07a1.71,1.71,0,0,0-.32,0,1.41,1.41,0,0,0-.81.32,2.47,2.47,0,0,0-.74,1.09v3.93Z"/><path class="cls-3" d="M154.49,27.61a2,2,0,0,1-.83-.16,1.37,1.37,0,0,1-.54-.41,1.38,1.38,0,0,1-.29-.64,3.93,3.93,0,0,1-.09-.84V22.18h-.91v-.79l1-.06.12-1.71h.87v1.71h1.65v.85h-1.65v3.4a1.47,1.47,0,0,0,.21.87.82.82,0,0,0,.74.31,1.34,1.34,0,0,0,.35-.05,1.93,1.93,0,0,0,.34-.11l.2.78c-.16.06-.35.11-.54.16A2.7,2.7,0,0,1,154.49,27.61Z"/><path class="cls-3" d="M156.86,27.45V21.33h.85l.09.88h0a4.12,4.12,0,0,1,.88-.73,1.86,1.86,0,0,1,1-.3,1.82,1.82,0,0,1,1.11.31,1.7,1.7,0,0,1,.58.86,5.42,5.42,0,0,1,1-.85,1.88,1.88,0,0,1,1-.32,1.64,1.64,0,0,1,1.4.6,3,3,0,0,1,.46,1.79v3.88h-1V23.72a2.12,2.12,0,0,0-.28-1.25,1,1,0,0,0-.85-.39,2.29,2.29,0,0,0-1.54,1v4.43h-1V23.72a2.19,2.19,0,0,0-.27-1.25,1,1,0,0,0-.87-.39,2.32,2.32,0,0,0-1.54,1v4.43Z"/><path class="cls-3" d="M169.82,27.61a3.05,3.05,0,0,1-1.15-.22,2.69,2.69,0,0,1-.93-.63,3.08,3.08,0,0,1-.63-1,3.81,3.81,0,0,1-.22-1.34,3.74,3.74,0,0,1,.23-1.36,3.05,3.05,0,0,1,.62-1,2.62,2.62,0,0,1,.87-.64,2.43,2.43,0,0,1,1-.22,2.66,2.66,0,0,1,1,.2,2.09,2.09,0,0,1,.77.58,2.66,2.66,0,0,1,.48.91,4.3,4.3,0,0,1,.16,1.18v.32a1.22,1.22,0,0,1,0,.27h-4.13a2.32,2.32,0,0,0,.61,1.56,1.86,1.86,0,0,0,1.43.57,2.22,2.22,0,0,0,.81-.13,3.09,3.09,0,0,0,.71-.34l.37.68a6.24,6.24,0,0,1-.9.44A3.16,3.16,0,0,1,169.82,27.61ZM167.9,23.9h3.27a2.19,2.19,0,0,0-.4-1.42,1.37,1.37,0,0,0-1.11-.48,1.67,1.67,0,0,0-.62.12,1.71,1.71,0,0,0-.54.38,2.17,2.17,0,0,0-.4.6,2.85,2.85,0,0,0-.2.8Z"/><path class="cls-3" d="M173.63,27.45V21.33h.86l.08.88h0a5.08,5.08,0,0,1,.93-.73,2.13,2.13,0,0,1,1.13-.3,1.65,1.65,0,0,1,1.41.6,3.05,3.05,0,0,1,.45,1.79v3.88h-1V23.72a2.19,2.19,0,0,0-.28-1.25,1,1,0,0,0-.88-.39,1.58,1.58,0,0,0-.85.24,5.65,5.65,0,0,0-.83.71v4.43Z"/><path class="cls-3" d="M182.49,27.61a2,2,0,0,1-.83-.16,1.37,1.37,0,0,1-.54-.41,1.57,1.57,0,0,1-.3-.64,3.93,3.93,0,0,1-.09-.84V22.18h-.9v-.79l1-.06.12-1.71h.87v1.71h1.65v.85h-1.65v3.4a1.47,1.47,0,0,0,.21.87.79.79,0,0,0,.74.31,1.34,1.34,0,0,0,.35-.05l.34-.11.2.78c-.17.06-.35.11-.55.16A2.56,2.56,0,0,1,182.49,27.61Z"/><path class="cls-3" d="M187.42,27.45V19.19h1.08l3,5.19.9,1.71h0c0-.42,0-.85-.08-1.3s0-.89,0-1.33V19.19h1v8.26h-1.08l-3-5.2-.9-1.7h0c0,.42.07.85.1,1.28s0,.87,0,1.3v4.32Z"/><path class="cls-3" d="M196.76,27.61a1.84,1.84,0,0,1-1.27-.46,1.63,1.63,0,0,1-.51-1.28,1.7,1.7,0,0,1,.89-1.55,7.73,7.73,0,0,1,2.86-.75,2.67,2.67,0,0,0-.06-.56,1.28,1.28,0,0,0-.19-.49,1,1,0,0,0-.39-.35,1.33,1.33,0,0,0-.62-.13,2.66,2.66,0,0,0-1,.2,4.44,4.44,0,0,0-.83.45l-.4-.72a7.34,7.34,0,0,1,1-.53,3.7,3.7,0,0,1,1.36-.26,1.9,1.9,0,0,1,1.62.69,3,3,0,0,1,.51,1.83v3.75h-.86l-.09-.73h0a4.54,4.54,0,0,1-.94.63A2.36,2.36,0,0,1,196.76,27.61Zm.31-.84a1.85,1.85,0,0,0,.83-.2,4.18,4.18,0,0,0,.83-.62v-1.7q-.64.09-1.29.24a4.4,4.4,0,0,0-.85.33,1.3,1.3,0,0,0-.46.44,1,1,0,0,0-.15.53.86.86,0,0,0,.32.76,1.26,1.26,0,0,0,.77.22Z"/><path class="cls-3" d="M201.73,27.45V21.33h.86l.09.88h0a4.07,4.07,0,0,1,.87-.73,2,2,0,0,1,1-.3,1.79,1.79,0,0,1,1.1.31,1.72,1.72,0,0,1,.59.86,5.84,5.84,0,0,1,1-.85,1.88,1.88,0,0,1,1-.32,1.69,1.69,0,0,1,1.41.6,3,3,0,0,1,.46,1.79v3.88h-1V23.72a2.19,2.19,0,0,0-.27-1.25,1,1,0,0,0-.86-.39,2.32,2.32,0,0,0-1.54,1v4.43h-1V23.72a2.12,2.12,0,0,0-.28-1.25,1,1,0,0,0-.87-.39,2.3,2.3,0,0,0-1.53,1v4.43Z"/><path class="cls-3" d="M214.71,27.61a3.05,3.05,0,0,1-1.15-.22,2.69,2.69,0,0,1-.93-.63,2.74,2.74,0,0,1-.63-1,3.81,3.81,0,0,1-.22-1.34,3.74,3.74,0,0,1,.23-1.36,3.05,3.05,0,0,1,.62-1,2.62,2.62,0,0,1,.87-.64,2.43,2.43,0,0,1,1-.22,2.66,2.66,0,0,1,1,.2,2.09,2.09,0,0,1,.77.58,2.63,2.63,0,0,1,.47.91,3.92,3.92,0,0,1,.17,1.18v.32a1.22,1.22,0,0,1,0,.27H212.8a2.32,2.32,0,0,0,.61,1.56,1.86,1.86,0,0,0,1.43.57,2.22,2.22,0,0,0,.81-.13,3.57,3.57,0,0,0,.71-.34l.37.68a6.24,6.24,0,0,1-.9.44A3.28,3.28,0,0,1,214.71,27.61Zm-1.93-3.71h3.28a2.19,2.19,0,0,0-.4-1.42,1.37,1.37,0,0,0-1.11-.48,1.5,1.5,0,0,0-1.16.5,2.17,2.17,0,0,0-.4.6,2.87,2.87,0,0,0-.21.8Z"/><path class="cls-3" d="M120.05,34.14h1.83c1.23,0,2,.46,2,1.58,0,1.6-1.18,2.31-2.84,2.31h-1l-.51,2.61h-.78Zm1.07,3.26c1.33,0,2-.54,2-1.58,0-.74-.52-1.06-1.47-1.06h-1l-.51,2.64Z"/><path class="cls-3" d="M124.27,39c0-1.85,1.26-3.31,2.6-3.31a1.3,1.3,0,0,1,1.16.73h0l.19-.61h.62l-1,4.82h-.62l.07-.72h0a2.37,2.37,0,0,1-1.68.83C124.81,40.72,124.27,40.14,124.27,39Zm3.17.19.44-2.15a1.14,1.14,0,0,0-1-.7c-1,0-1.84,1.22-1.84,2.54,0,.83.34,1.22.87,1.22A2,2,0,0,0,127.44,39.2Z"/><path class="cls-3" d="M130.48,35.82h.64l-.12.9h0a2,2,0,0,1,1.48-1,1.27,1.27,0,0,1,.47.09l-.27.67a1,1,0,0,0-.41-.06c-.49,0-1,.41-1.43,1.21l-.59,3h-.77Z"/><path class="cls-3" d="M133,38.72a2.86,2.86,0,0,1,2.57-3c1.08,0,1.5.76,1.5,1.75a2.85,2.85,0,0,1-.18,1h-3.12c-.17,1.22.48,1.73,1.3,1.73a1.87,1.87,0,0,0,1.09-.38l.28.47a2.43,2.43,0,0,1-1.51.52,1.81,1.81,0,0,1-2-1.66A2.07,2.07,0,0,1,133,38.72Zm3.36-.92a1.61,1.61,0,0,0,.06-.44c0-.55-.24-1.06-.94-1.06a1.82,1.82,0,0,0-1.62,1.5Z"/><path class="cls-3" d="M138.66,35.82h.64l-.08.73h0a2.63,2.63,0,0,1,1.67-.85,1,1,0,0,1,1.16.81,1,1,0,0,1,0,.39,3,3,0,0,1-.08.67l-.62,3.07h-.77l.61-3a2.7,2.7,0,0,0,.08-.57.65.65,0,0,0-.54-.73.54.54,0,0,0-.18,0,2.37,2.37,0,0,0-1.44.86l-.68,3.41h-.76Z"/><path class="cls-3" d="M143.3,39.72a4.51,4.51,0,0,1,0-.52l.57-2.71h-.7l.1-.57.76-.05.39-1.53h.65l-.3,1.53H146l-.13.62h-1.23l-.56,2.74a2.16,2.16,0,0,0,0,.36c0,.39.16.59.58.59a1.06,1.06,0,0,0,.52-.13l.17.52a1.75,1.75,0,0,1-.92.23,1,1,0,0,1-1.12-.85A.89.89,0,0,1,143.3,39.72Z"/><path class="cls-3" d="M148.64,38.72a5.75,5.75,0,0,1,.1-.92l.73-3.64h.78l-.74,3.71a3.55,3.55,0,0,0-.09.79c0,.92.41,1.44,1.31,1.44s1.36-.44,1.65-2l.8-4h.76l-.8,4c-.4,2-1.27,2.6-2.45,2.6a1.83,1.83,0,0,1-2-1.61A1.51,1.51,0,0,1,148.64,38.72Z"/><path class="cls-3" d="M155.24,35.82h.64l-.08.73h0a2.63,2.63,0,0,1,1.67-.85,1,1,0,0,1,1.16.81,1,1,0,0,1,0,.39,3,3,0,0,1-.08.67l-.61,3.07h-.78l.61-3a2.7,2.7,0,0,0,.08-.57c0-.48-.22-.73-.71-.73a2.4,2.4,0,0,0-1.45.86L155,40.61h-.77Z"/><path class="cls-3" d="M160.47,35.82h.76l-1,4.82h-.76Zm.14-1.44a.58.58,0,0,1,.57-.58.47.47,0,0,1,.49.43v0a.56.56,0,0,1-.56.56h0a.45.45,0,0,1-.49-.41Z"/><path class="cls-3" d="M162.25,39.72a3.05,3.05,0,0,1,.05-.52l.57-2.71h-.71l.11-.57.75-.05.4-1.53h.64l-.29,1.53H165l-.13.62h-1.23l-.57,2.74a2.16,2.16,0,0,0,0,.36c0,.39.15.59.58.59a.93.93,0,0,0,.51-.13l.18.52a2,2,0,0,1-.92.23,1,1,0,0,1-1.16-.81A1.22,1.22,0,0,1,162.25,39.72Z"/><path class="cls-3" d="M168.45,34.14h.78L168.06,40h2.74l-.14.66h-3.51Z"/><path class="cls-3" d="M171.78,38.72a2.86,2.86,0,0,1,2.57-3c1.08,0,1.5.76,1.5,1.75a2.85,2.85,0,0,1-.18,1h-3.12c-.17,1.22.47,1.73,1.3,1.73a1.87,1.87,0,0,0,1.09-.38l.27.47a2.36,2.36,0,0,1-1.5.52,1.81,1.81,0,0,1-2-1.66A2.07,2.07,0,0,1,171.78,38.72Zm3.35-.92a1.61,1.61,0,0,0,.06-.44c0-.55-.23-1.06-.93-1.06a1.82,1.82,0,0,0-1.62,1.5Z"/><path class="cls-3" d="M176.77,35.82h.76l.35,2.78c.05.47.09,1,.14,1.44h0c.23-.48.47-1,.71-1.44l1.41-2.78h.76l-2.55,4.82h-.92Z"/><path class="cls-3" d="M181,38.72a2.87,2.87,0,0,1,2.58-3c1.08,0,1.49.76,1.49,1.75a2.85,2.85,0,0,1-.18,1h-3.11c-.17,1.22.47,1.73,1.29,1.73a1.8,1.8,0,0,0,1.09-.38l.28.47a2.37,2.37,0,0,1-1.51.52,1.83,1.83,0,0,1-2-1.68A1.88,1.88,0,0,1,181,38.72Zm3.36-.92a1.61,1.61,0,0,0,.06-.44c0-.55-.24-1.06-.93-1.06a1.83,1.83,0,0,0-1.63,1.5Z"/><path class="cls-3" d="M185.91,40.12a1.39,1.39,0,0,1,.06-.4l1.22-6.13H188l-1.28,6.13a.81.81,0,0,0,0,.22.15.15,0,0,0,.14.16H187l.06.56a1,1,0,0,1-.47.09C186.13,40.72,185.91,40.53,185.91,40.12Z"/></svg>