<svg id="Layer_1" data-name="Layer 1" xmlns="http://www.w3.org/2000/svg" viewBox="0 0 120 120"><defs><style>.cls-1{fill:#a90533;}.cls-2{fill:#231f20;}</style></defs><path class="cls-1" d="M27.86,51.9a13.44,13.44,0,0,0-2.48.93,1.9,1.9,0,0,0-1,1.78,1.5,1.5,0,0,0,1.29,1.68,1.41,1.41,0,0,0,.41,0,3.14,3.14,0,0,0,1.78-.52V51.9Zm-2.71,5.93c-3.06,0-3.3-2.32-3.3-3a3,3,0,0,1,2.18-3c2-.74,2.44-.83,3.83-1.26v-.36A3.32,3.32,0,0,0,27.73,49a2,2,0,0,0-2.08-1.3,2.4,2.4,0,0,0-2.15,1.18l-.13.22-.56-.33v-.17a3.77,3.77,0,0,1,3.81-2.38,3.53,3.53,0,0,1,3.24,1.41,5.81,5.81,0,0,1,.51,2.93v4.37c0,.8.12,1.41.79,1.41a.56.56,0,0,0,.37-.11l.18-.15.38.42-.13.16a2.71,2.71,0,0,1-2.23,1.26A1.65,1.65,0,0,1,28,56.67a3.86,3.86,0,0,1-2.83,1.16Z"/><path class="cls-1" d="M6.45,57.8a11.53,11.53,0,0,1-3.73-.53H2.56v-.82a15.08,15.08,0,0,0-.05-1.87V54h.66v.24a2.18,2.18,0,0,0,.51,1.36,3.76,3.76,0,0,0,2.61.87c2.16,0,3.16-.81,3.16-2.57,0-1.49-.93-2.12-2.21-3L7,50.77l-1.35-.9c-1.88-1.24-2.84-2.24-2.84-4.23,0-1,.37-4.15,5.1-4.15a24.28,24.28,0,0,1,3.51.26h.2v3.3h-.58v-.22a2,2,0,0,0-.54-1.37A3.92,3.92,0,0,0,8,42.8c-2.51,0-2.8,1.29-2.8,2.25,0,1.33.68,1.78,2.17,2.77L9.1,49c1.45,1,2.83,1.89,2.83,4.31,0,4.09-3.82,4.53-5.46,4.53Z"/><path class="cls-1" d="M17.66,57.88c-1.74,0-2.71-.63-3.14-2a9.88,9.88,0,0,1-.18-2.3V47.86H12.9v-.44l.14-.06a5.14,5.14,0,0,0,1.27-.72,8.13,8.13,0,0,0,1.85-2.35l.25-.43h.49V46.4h3.85v1.4H16.9v5.93c0,1.77.33,2.78,2,2.78a3.51,3.51,0,0,0,1.39-.3l.23-.12.19.46-.09.11a3.72,3.72,0,0,1-3,1.18Z"/><path class="cls-1" d="M33,57.73V57.2h.22a1.47,1.47,0,0,0,1-.47c.35-.39.37-1.35.37-3.27V50.23a5.09,5.09,0,0,0-.23-2.29,1.34,1.34,0,0,0-1-.38h-.31v-.65h.43a12.24,12.24,0,0,0,2-.22,3.56,3.56,0,0,0,1.19-.4l.13-.06.22.13v.9a5.53,5.53,0,0,1,3.28-1.08c2,0,3.36.94,3.74,2.67a11.16,11.16,0,0,1,.15,2v3.3c0,1.86.07,2.39.42,2.71a1.48,1.48,0,0,0,.88.32h.21v.52h-.55c-.81,0-1.51-.08-2.24-.08a24.43,24.43,0,0,0-2.57.1h-.26V57.2h.21a1.6,1.6,0,0,0,.93-.38,3.4,3.4,0,0,0,.41-2V52.47c0-.86,0-1.73-.09-2.59a2.13,2.13,0,0,0-2.1-2.16l-.3,0a4.3,4.3,0,0,0-2.11.48v5.93c0,1.86.08,2.39.42,2.71a1.48,1.48,0,0,0,.88.32h.22v.52H38c-.79,0-1.46-.08-2.18-.08a24.92,24.92,0,0,0-2.59.1H33Z"/><path class="cls-1" d="M47.11,57.73v-.54h.22a1.47,1.47,0,0,0,1-.47c.35-.39.37-1.34.37-3.26v-5.6H47.23v-.63l.15-.07a5.54,5.54,0,0,0,1.32-.69,18.8,18.8,0,0,1,.17-3c.45-2.33,2-3.51,4.53-3.51a4.68,4.68,0,0,1,2.76.86l.08.07v.24l-1.12,1.56h-.27l-.06-.14a1.94,1.94,0,0,0-1.91-1.33,1.67,1.67,0,0,0-1.13.4c-.49.49-.57,1.22-.57,2.66v2.18h2.51v1.4H51.18v6.26a6.27,6.27,0,0,0,.24,2.51c.32.48,1.27.51,1.56.51h.24v.6H53c-1.24-.07-2.17-.1-2.84-.1-.93,0-1.87,0-2.8.1h-.25Z"/><path class="cls-1" d="M60.24,47.43a2.37,2.37,0,0,0-1.6.52c-.91.76-1.37,2.14-1.37,4.11,0,.76.15,4.56,2.92,4.56a2.46,2.46,0,0,0,1.61-.51c.9-.76,1.36-2.15,1.36-4.12C63.16,51.23,63,47.43,60.24,47.43ZM60.1,57.92c-3.45,0-5.51-2.14-5.51-5.74,0-2.79,1.51-6,5.75-6,3.44,0,5.5,2.15,5.5,5.74C65.84,54.72,64.34,57.92,60.1,57.92Z"/><path class="cls-1" d="M66.93,57.73v-.57h.22a1.52,1.52,0,0,0,1-.47c.35-.39.37-1.32.37-3.24V50.22a5.23,5.23,0,0,0-.22-2.29,1.34,1.34,0,0,0-1-.38H67v-.69h.43a12.24,12.24,0,0,0,2-.22,5.69,5.69,0,0,0,1.21-.32l.13-.06.2.1v1a3.71,3.71,0,0,1,2.64-1.07,2.71,2.71,0,0,1,1.89.63l.08.07v.3L74.62,49h-.46l-.07-.11A2,2,0,0,0,72.27,48a2.14,2.14,0,0,0-1.23.36v5.69a6.16,6.16,0,0,0,.24,2.49c.32.47,1.28.51,1.56.51h.24v.62h-.25c-1.24-.07-2.17-.1-2.84-.1-.93,0-1.87,0-2.8.1h-.26Z"/><path class="cls-1" d="M82.08,47.51c-2.2,0-3.28,1.5-3.28,4.6,0,1.26.36,4.18,3.63,4.18h.11a3.49,3.49,0,0,0,1.79-.46V48.29a3.17,3.17,0,0,0-2.25-.75Zm2.6,10.38-.3-.1v-1a5.36,5.36,0,0,1-3.16,1.06c-3.09,0-5.1-2.15-5.1-5.48a7.2,7.2,0,0,1,.62-3,5.64,5.64,0,0,1,5.39-3.22,11.55,11.55,0,0,1,2.2.21V44a6.2,6.2,0,0,0-.22-2.46,1.3,1.3,0,0,0-1-.39h-.33l.06-.51h.23a22,22,0,0,0,2.42-.32A7.24,7.24,0,0,0,86.61,40h.11l.2.11v.11c-.08.93-.09,2.92-.09,4.41v9.21a6.8,6.8,0,0,0,.21,2.5,1.34,1.34,0,0,0,1,.41h.31v.6h-.24a16.12,16.12,0,0,0-2.19.24,5.62,5.62,0,0,0-1.15.25h-.11Z"/><path class="cls-2" d="M3.13,76.9v-10H5.64a4.64,4.64,0,0,1,3.54,1.28,5.21,5.21,0,0,1,1.2,3.69,7,7,0,0,1-.3,2.13,4.26,4.26,0,0,1-.9,1.59,3.89,3.89,0,0,1-1.47,1,5.47,5.47,0,0,1-2,.34Zm1.27-1H5.55a3.23,3.23,0,0,0,2.64-1,4.54,4.54,0,0,0,.88-3A4.26,4.26,0,0,0,8.19,69a3.3,3.3,0,0,0-2.64-1H4.4Z"/><path class="cls-2" d="M15.42,77.09a3.71,3.71,0,0,1-1.4-.27,3.25,3.25,0,0,1-1.13-.77,3.64,3.64,0,0,1-.76-1.21,4.6,4.6,0,0,1-.28-1.64,4.37,4.37,0,0,1,.29-1.64,3.75,3.75,0,0,1,.75-1.24A3.36,3.36,0,0,1,14,69.55a3,3,0,0,1,1.24-.27,3.22,3.22,0,0,1,1.26.25,2.57,2.57,0,0,1,.93.7A3.32,3.32,0,0,1,18,71.29a5,5,0,0,1,.2,1.44v.39a1.82,1.82,0,0,1,0,.33h-5A2.88,2.88,0,0,0,14,75.34a2.26,2.26,0,0,0,1.73.7,3.08,3.08,0,0,0,1-.16,4.56,4.56,0,0,0,.86-.42l.45.82a7.37,7.37,0,0,1-1.09.54A3.74,3.74,0,0,1,15.42,77.09Zm-2.34-4.5h4a2.59,2.59,0,0,0-.49-1.72,1.63,1.63,0,0,0-1.35-.59,2,2,0,0,0-.76.15,2.1,2.1,0,0,0-.65.45,2.57,2.57,0,0,0-.48.73A3.32,3.32,0,0,0,13.08,72.59Z"/><path class="cls-2" d="M20,80V69.47h1l.11.85h0a5.91,5.91,0,0,1,1.11-.73,2.76,2.76,0,0,1,1.26-.31,2.79,2.79,0,0,1,1.27.27,2.45,2.45,0,0,1,.92.77,3.51,3.51,0,0,1,.56,1.19,5.92,5.92,0,0,1,.19,1.57,5.1,5.1,0,0,1-.26,1.69,4,4,0,0,1-.7,1.26,3,3,0,0,1-1,.79,2.86,2.86,0,0,1-1.22.27,2.61,2.61,0,0,1-1-.23,5,5,0,0,1-1-.63V80Zm3.07-4a1.78,1.78,0,0,0,.85-.21,2,2,0,0,0,.68-.58,3.11,3.11,0,0,0,.4-1,4.31,4.31,0,0,0,.16-1.24,6,6,0,0,0-.11-1.12,2.38,2.38,0,0,0-.34-.86,1.57,1.57,0,0,0-.61-.56,1.88,1.88,0,0,0-.9-.2,2,2,0,0,0-1,.26,5.23,5.23,0,0,0-1,.75v4a3.32,3.32,0,0,0,1,.61,2.7,2.7,0,0,0,.85.13Z"/><path class="cls-2" d="M29.94,77.09a2.25,2.25,0,0,1-1.55-.55A2,2,0,0,1,27.77,75a2.07,2.07,0,0,1,1.09-1.88,9.07,9.07,0,0,1,3.47-.91,3.23,3.23,0,0,0-.07-.69,1.6,1.6,0,0,0-.24-.59,1.1,1.1,0,0,0-.46-.42,1.54,1.54,0,0,0-.76-.17,3.12,3.12,0,0,0-1.21.25,6.49,6.49,0,0,0-1,.55l-.49-.87a8.44,8.44,0,0,1,1.27-.65A4.15,4.15,0,0,1,31,69.29a2.29,2.29,0,0,1,2,.84,3.65,3.65,0,0,1,.61,2.22v4.56h-1L32.5,76h0a6.68,6.68,0,0,1-1.15.75A2.88,2.88,0,0,1,29.94,77.09Zm.37-1a2.07,2.07,0,0,0,1-.26,4.55,4.55,0,0,0,1-.74V73a12,12,0,0,0-1.57.29,4,4,0,0,0-1,.4,1.5,1.5,0,0,0-.57.52,1.25,1.25,0,0,0-.18.65,1,1,0,0,0,.39.92,1.47,1.47,0,0,0,.93.27Z"/><path class="cls-2" d="M35.82,76.9V69.47h1l.11,1.34h0a3.43,3.43,0,0,1,.93-1.11,2,2,0,0,1,2-.26l-.25,1.1-.33-.09a2.54,2.54,0,0,0-.39,0,1.59,1.59,0,0,0-1,.38,3.18,3.18,0,0,0-.9,1.33v4.77Z"/><path class="cls-2" d="M44.12,77.09a2.29,2.29,0,0,1-1-.19,1.64,1.64,0,0,1-.66-.5,1.92,1.92,0,0,1-.36-.78,4.79,4.79,0,0,1-.11-1V70.49h-1.1v-.95l1.16-.07.15-2.08h1.06v2.08h2v1h-2V74.6a1.9,1.9,0,0,0,.25,1.07,1,1,0,0,0,.9.37,1.54,1.54,0,0,0,.43-.06,2.83,2.83,0,0,0,.41-.14l.24,1a5.46,5.46,0,0,1-.66.19A2.8,2.8,0,0,1,44.12,77.09Z"/><path class="cls-2" d="M46.93,76.9V69.47h1L48,70.54h0a5.06,5.06,0,0,1,1.06-.9,2.3,2.3,0,0,1,1.25-.36,2.11,2.11,0,0,1,1.33.38,2.19,2.19,0,0,1,.72,1,5.9,5.9,0,0,1,1.17-1,2.29,2.29,0,0,1,1.27-.39,2,2,0,0,1,1.71.74,3.54,3.54,0,0,1,.56,2.17v4.71H55.85V72.35a2.68,2.68,0,0,0-.33-1.52,1.22,1.22,0,0,0-1-.47,2.75,2.75,0,0,0-1.87,1.15v5.38H51.4V72.35a2.68,2.68,0,0,0-.34-1.52A1.24,1.24,0,0,0,50,70.36a2.73,2.73,0,0,0-1.86,1.15v5.38Z"/><path class="cls-2" d="M62.61,77.09a3.71,3.71,0,0,1-1.4-.27,3.25,3.25,0,0,1-1.13-.77,3.46,3.46,0,0,1-.75-1.21,5,5,0,0,1,0-3.28,3.75,3.75,0,0,1,.75-1.24,3.4,3.4,0,0,1,1.07-.77,2.93,2.93,0,0,1,1.23-.27,3.23,3.23,0,0,1,1.27.25,2.57,2.57,0,0,1,.93.7,3.3,3.3,0,0,1,.57,1.1,4.68,4.68,0,0,1,.2,1.44v.39a1.82,1.82,0,0,1,0,.33h-5a2.87,2.87,0,0,0,.74,1.89,2.28,2.28,0,0,0,1.74.7,3.08,3.08,0,0,0,1-.16,5,5,0,0,0,.87-.42l.44.82a6.81,6.81,0,0,1-1.08.54A3.77,3.77,0,0,1,62.61,77.09Zm-2.34-4.5h4a2.7,2.7,0,0,0-.48-1.72,1.63,1.63,0,0,0-1.35-.59,2,2,0,0,0-.76.15,1.85,1.85,0,0,0-.65.45,2.21,2.21,0,0,0-.48.73A3.06,3.06,0,0,0,60.27,72.59Z"/><path class="cls-2" d="M67.17,76.9V69.47h1l.11,1.07h0a5.74,5.74,0,0,1,1.12-.9,2.53,2.53,0,0,1,1.37-.36,2,2,0,0,1,1.72.74,3.69,3.69,0,0,1,.54,2.17V76.9H71.83V72.36a2.6,2.6,0,0,0-.34-1.52,1.23,1.23,0,0,0-1.07-.47,1.88,1.88,0,0,0-1,.29,6.31,6.31,0,0,0-1,.86V76.9Z"/><path class="cls-2" d="M77.87,77.09a2.29,2.29,0,0,1-1-.19,1.71,1.71,0,0,1-.66-.5,1.92,1.92,0,0,1-.36-.78,4.79,4.79,0,0,1-.11-1V70.49h-1.1v-.95l1.16-.07L76,67.39h1v2.08h2v1H77V74.6a2,2,0,0,0,.25,1.07,1,1,0,0,0,.9.37,1.54,1.54,0,0,0,.43-.06,2.83,2.83,0,0,0,.41-.14l.25,1a5.12,5.12,0,0,1-.67.19A2.46,2.46,0,0,1,77.87,77.09Z"/><path class="cls-2" d="M83.7,76.9v-10H85l3.62,6.3,1.09,2.08h.06c0-.51-.06-1-.1-1.58s0-1.09,0-1.62V66.9h1.21v10H89.51l-3.64-6.32-1.09-2.06h-.06l.12,1.55V76.9Z"/><path class="cls-2" d="M95,77.09a2.33,2.33,0,0,1-1.56-.55A2,2,0,0,1,92.83,75a2.08,2.08,0,0,1,1.08-1.88,9.07,9.07,0,0,1,3.47-.91,4,4,0,0,0-.06-.69,1.79,1.79,0,0,0-.24-.59,1.12,1.12,0,0,0-.47-.42,1.54,1.54,0,0,0-.76-.17,3.11,3.11,0,0,0-1.2.25,5.4,5.4,0,0,0-1,.55l-.49-.87a7.6,7.6,0,0,1,1.27-.65A4.22,4.22,0,0,1,96,69.29a2.26,2.26,0,0,1,2,.84,3.65,3.65,0,0,1,.61,2.22v4.56h-1l-.1-.88h-.05a6.68,6.68,0,0,1-1.15.75A2.69,2.69,0,0,1,95,77.09Zm.36-1a2.07,2.07,0,0,0,1-.26,4.55,4.55,0,0,0,1-.74V73a11.59,11.59,0,0,0-1.56.29,3.61,3.61,0,0,0-1,.4,1.5,1.5,0,0,0-.57.52,1.34,1.34,0,0,0-.17.65,1.07,1.07,0,0,0,.38.92,1.52,1.52,0,0,0,.87.27Z"/><path class="cls-2" d="M100.86,76.9V69.47h1l.11,1.07h0a4.87,4.87,0,0,1,1.07-.9,2.27,2.27,0,0,1,1.24-.36,2.12,2.12,0,0,1,1.34.38,2.22,2.22,0,0,1,.71,1,6.58,6.58,0,0,1,1.17-1,2.25,2.25,0,0,1,1.28-.39,2,2,0,0,1,1.71.74,3.62,3.62,0,0,1,.55,2.17v4.71h-1.25V72.35a2.6,2.6,0,0,0-.34-1.52,1.19,1.19,0,0,0-1-.47,2.73,2.73,0,0,0-1.86,1.15v5.38h-1.26V72.35a2.68,2.68,0,0,0-.33-1.52,1.24,1.24,0,0,0-1.06-.47,2.78,2.78,0,0,0-1.87,1.15v5.38Z"/><path class="cls-2" d="M116.51,77.09a3.71,3.71,0,0,1-1.4-.27,3.25,3.25,0,0,1-1.13-.77,3.64,3.64,0,0,1-.76-1.21A4.59,4.59,0,0,1,113,73.2a4.36,4.36,0,0,1,.28-1.64,3.77,3.77,0,0,1,.77-1.27,3.36,3.36,0,0,1,1.06-.77,3,3,0,0,1,1.24-.27,3.22,3.22,0,0,1,1.26.25,2.33,2.33,0,0,1,.94.7,3.3,3.3,0,0,1,.57,1.1,5,5,0,0,1,.2,1.44v.39a1.82,1.82,0,0,1,0,.33h-5a2.88,2.88,0,0,0,.75,1.89,2.26,2.26,0,0,0,1.73.7,3.08,3.08,0,0,0,1-.16,4.56,4.56,0,0,0,.86-.42l.45.82a7.37,7.37,0,0,1-1.09.54A3.85,3.85,0,0,1,116.51,77.09Zm-2.34-4.5h4a2.7,2.7,0,0,0-.48-1.72,1.66,1.66,0,0,0-1.36-.59,2,2,0,0,0-.76.15,2.1,2.1,0,0,0-.65.45,2.57,2.57,0,0,0-.48.73A3.32,3.32,0,0,0,114.17,72.59Z"/></svg>