<svg id="Layer_1" data-name="Layer 1" xmlns="http://www.w3.org/2000/svg" viewBox="0 0 240 60"><defs><style>.cls-1{fill:none;stroke:#231f20;stroke-miterlimit:10;stroke-width:0.72px;}.cls-2{fill:#a90533;}.cls-3{fill:#231f20;}</style></defs><line class="cls-1" x1="101.44" y1="39.79" x2="101.44" y2="20.16"/><path class="cls-2" d="M35.7,33.85a13.48,13.48,0,0,0-2.48.94,1.9,1.9,0,0,0-1,1.78,1.51,1.51,0,0,0,1.35,1.64,1.93,1.93,0,0,0,.34,0,3,3,0,0,0,1.78-.52V33.85ZM33,39.8c-3.06,0-3.3-2.33-3.3-3a3,3,0,0,1,2.18-3c2-.74,2.45-.83,3.83-1.26v-.36a3.3,3.3,0,0,0-.13-1.25,2,2,0,0,0-2.07-1.31,2.48,2.48,0,0,0-2.17,1.18l-.12.23-.56-.34.05-.17a3.78,3.78,0,0,1,3.81-2.37,3.48,3.48,0,0,1,3.23,1.33,5.57,5.57,0,0,1,.51,2.93v4.37c0,.8.13,1.42.8,1.42a.52.52,0,0,0,.36-.11l.19-.16.37.42-.12.16a2.75,2.75,0,0,1-2.24,1.26,1.64,1.64,0,0,1-1.73-1.14A3.82,3.82,0,0,1,33,39.8Z"/><path class="cls-2" d="M14.28,39.77a11.24,11.24,0,0,1-3.73-.54h-.17v-.82a15.08,15.08,0,0,0-.05-1.87V36H11v.24a2.33,2.33,0,0,0,.51,1.36,3.78,3.78,0,0,0,2.62.87c2.15,0,3.16-.81,3.16-2.56,0-1.5-.93-2.13-2.21-3l-.21-.14-1.35-.9c-1.88-1.25-2.83-2.25-2.83-4.24,0-1,.36-4.15,5.1-4.15a22.94,22.94,0,0,1,3.51.26h.2V27h-.58V26.8a2,2,0,0,0-.55-1.37,3.85,3.85,0,0,0-2.53-.67c-2.51,0-2.8,1.29-2.8,2.26,0,1.33.68,1.78,2.17,2.77l1.71,1.13c1.46,1,2.84,1.89,2.84,4.31,0,4.09-3.82,4.54-5.46,4.54Z"/><path class="cls-2" d="M25.5,39.84c-1.75,0-2.72-.63-3.15-2a10.44,10.44,0,0,1-.17-2.3V29.82H20.73v-.45l.14-.06a4.69,4.69,0,0,0,1.27-.72A8,8,0,0,0,24,26.28l.26-.43h.49v2.54H28.6V29.8H24.74v5.93c0,1.77.33,2.78,2,2.78a3.42,3.42,0,0,0,1.38-.3l.23-.12.2.46-.09.11a3.76,3.76,0,0,1-3,1.18Z"/><path class="cls-2" d="M40.87,39.7v-.54h.22a1.51,1.51,0,0,0,1-.46c.35-.39.37-1.36.37-3.28V32.19a5.23,5.23,0,0,0-.22-2.29,1.33,1.33,0,0,0-1-.39h-.31v-.64h.43a13.43,13.43,0,0,0,2-.21,3.58,3.58,0,0,0,1.19-.41l.13-.06.22.14v.9a5.48,5.48,0,0,1,3.28-1.09,3.49,3.49,0,0,1,3.75,2.68,12.15,12.15,0,0,1,.14,2v3.3c0,1.86.08,2.39.43,2.72a1.61,1.61,0,0,0,.87.31h.22v.53H53c-.81,0-1.51-.08-2.24-.08s-1.56,0-2.56.09H48v-.53h.2a1.71,1.71,0,0,0,.94-.39,3.48,3.48,0,0,0,.41-2V34.38a22.26,22.26,0,0,0-.1-2.58,2.12,2.12,0,0,0-2.08-2.16l-.31,0a4.47,4.47,0,0,0-2.12.47v5.94c0,1.86.07,2.39.42,2.72a1.64,1.64,0,0,0,.88.31h.22v.53h-.6c-.78-.05-1.46-.08-2.18-.08s-1.58,0-2.59.09H40.8Z"/><path class="cls-2" d="M55,39.7v-.55h.22a1.51,1.51,0,0,0,1-.46c.36-.39.37-1.35.37-3.27v-5.6h-1.5v-.64l.15-.06a5.57,5.57,0,0,0,1.32-.7,20,20,0,0,1,.17-3c.45-2.33,2-3.51,4.53-3.51a4.54,4.54,0,0,1,2.76.86l.09.07v.24L63,24.62h-.27l-.06-.14a1.93,1.93,0,0,0-1.9-1.33,1.64,1.64,0,0,0-1.14.4c-.49.49-.57,1.22-.57,2.66v2.18H61.6V29.8H59.08v6.26a6.27,6.27,0,0,0,.24,2.51c.32.48,1.28.51,1.56.51h.24v.61h-.25c-1.24-.06-2.17-.09-2.84-.09-.84,0-1.79,0-2.8.09H55Z"/><path class="cls-2" d="M68.11,29.39a2.36,2.36,0,0,0-1.6.51c-.91.76-1.37,2.15-1.37,4.12,0,.76.14,4.56,2.92,4.56a2.41,2.41,0,0,0,1.61-.51C70.57,37.31,71,35.92,71,34,71,33.19,70.89,29.39,68.11,29.39ZM68,39.89c-3.45,0-5.51-2.15-5.51-5.75,0-2.79,1.5-6.06,5.75-6.06,3.45,0,5.51,2.15,5.51,5.75C73.75,36.62,72.24,39.89,68,39.89Z"/><path class="cls-2" d="M74.81,39.7v-.57H75a1.47,1.47,0,0,0,1-.47c.35-.39.37-1.32.37-3.24V32.19a5.23,5.23,0,0,0-.22-2.29,1.39,1.39,0,0,0-1-.39h-.31v-.68h.43a12.24,12.24,0,0,0,2-.22,5.62,5.62,0,0,0,1.22-.32l.13-.06.2.11v1a3.71,3.71,0,0,1,2.61-1,2.71,2.71,0,0,1,1.89.63l.08.07v.35l-1,1.75H82L81.93,31a2,2,0,0,0-1.82-.91,2.19,2.19,0,0,0-1.24.36v5.69a5.83,5.83,0,0,0,.25,2.49c.32.47,1.27.51,1.56.51H81v.63h-.25c-1.25-.06-2.17-.09-2.84-.09-.84,0-1.79,0-2.8.09h-.26Z"/><path class="cls-2" d="M90,29.48c-2.2,0-3.27,1.51-3.27,4.61,0,1.25.35,4.18,3.63,4.18h.11a3.49,3.49,0,0,0,1.79-.46V30.24A3.11,3.11,0,0,0,90,29.48Zm2.61,10.39-.3-.1v-1a5.36,5.36,0,0,1-3.16,1.06c-3.1,0-5.11-2.15-5.11-5.48a7.57,7.57,0,0,1,.62-3A5.62,5.62,0,0,1,90,28.11a11,11,0,0,1,2.21.22V25.92A6.28,6.28,0,0,0,92,23.48a1.3,1.3,0,0,0-1-.39h-.31v-.51H91c.81-.07,1.62-.17,2.42-.32A6.07,6.07,0,0,0,94.54,22h.11l.19.12v.11c-.08.93-.09,2.92-.09,4.41v9.22a6.4,6.4,0,0,0,.22,2.5,1.27,1.27,0,0,0,1,.41h.31v.61H96a17.87,17.87,0,0,0-2.19.23,5.88,5.88,0,0,0-1.16.26Z"/><path class="cls-3" d="M108,26.38a2.59,2.59,0,0,1-1.94-.81l.42-.49a2.3,2.3,0,0,0,.7.5,1.8,1.8,0,0,0,.82.19,1.29,1.29,0,0,0,.85-.25.8.8,0,0,0,.31-.65.72.72,0,0,0-.08-.35.7.7,0,0,0-.19-.26,1.81,1.81,0,0,0-.29-.19l-.36-.17-.79-.35a3,3,0,0,1-.4-.2,1.93,1.93,0,0,1-.36-.28,2.11,2.11,0,0,1-.26-.4,1.43,1.43,0,0,1,0-1.12,1.6,1.6,0,0,1,.36-.46,1.66,1.66,0,0,1,.55-.31,2.29,2.29,0,0,1,1.61.08,2.2,2.2,0,0,1,.71.49l-.38.46a2,2,0,0,0-.55-.39,1.68,1.68,0,0,0-.7-.13,1.23,1.23,0,0,0-.74.21.69.69,0,0,0-.28.59.57.57,0,0,0,.08.34.72.72,0,0,0,.21.25,1.49,1.49,0,0,0,.3.18L108,23l.79.33.44.23a1.34,1.34,0,0,1,.36.31,1.47,1.47,0,0,1,.24.4,1.53,1.53,0,0,1,0,1.15,1.67,1.67,0,0,1-.37.5,2,2,0,0,1-.59.33A2.27,2.27,0,0,1,108,26.38Z"/><path class="cls-3" d="M111,26.28V22.2h.57l.06.59h0a2.48,2.48,0,0,1,.58-.49,1.26,1.26,0,0,1,.68-.2,1.16,1.16,0,0,1,.74.21,1,1,0,0,1,.39.57,4.35,4.35,0,0,1,.64-.57,1.25,1.25,0,0,1,.7-.21,1.1,1.1,0,0,1,.94.4,2,2,0,0,1,.31,1.2v2.58H116V23.79a1.38,1.38,0,0,0-.19-.84.64.64,0,0,0-.57-.25,1.46,1.46,0,0,0-1,.63v3h-.69V23.84a1.38,1.38,0,0,0-.19-.84.66.66,0,0,0-.58-.25,1.54,1.54,0,0,0-1,.63v3Z"/><path class="cls-3" d="M119,26.38a1.27,1.27,0,0,1-.85-.3,1.08,1.08,0,0,1-.34-.86,1.12,1.12,0,0,1,.6-1,4.67,4.67,0,0,1,1.9-.5,1.21,1.21,0,0,0,0-.38.79.79,0,0,0-.13-.33.61.61,0,0,0-.25-.23.76.76,0,0,0-.42-.09,1.66,1.66,0,0,0-.66.14,3.37,3.37,0,0,0-.56.3l-.26-.48a4.52,4.52,0,0,1,.69-.36,2.58,2.58,0,0,1,.91-.17,1.23,1.23,0,0,1,1.08.46,2,2,0,0,1,.34,1.22v2.5h-.57l-.06-.48h0a3,3,0,0,1-.63.41A1.53,1.53,0,0,1,119,26.38Zm.2-.55a1.19,1.19,0,0,0,.56-.14,2.46,2.46,0,0,0,.55-.41V24.15a6.21,6.21,0,0,0-.86.16,1.82,1.82,0,0,0-.56.22.86.86,0,0,0-.31.29.62.62,0,0,0-.1.35.59.59,0,0,0,.21.51.87.87,0,0,0,.54.15Z"/><path class="cls-3" d="M123.18,26.38a.64.64,0,0,1-.56-.23,1.29,1.29,0,0,1-.17-.69V20.3h.69v5.18a.35.35,0,0,0,.06.24.16.16,0,0,0,.13.06h.15l.1.52h-.16Z"/><path class="cls-3" d="M125.37,26.38a.64.64,0,0,1-.56-.23,1.29,1.29,0,0,1-.17-.69V20.3h.69v5.18a.35.35,0,0,0,.06.24.16.16,0,0,0,.13.06h.16l.09.52h-.16Z"/><path class="cls-3" d="M128.55,26.28V20.77h3.18v.59h-2.48v1.87h2.1v.58h-2.1v2.47Z"/><path class="cls-3" d="M133.19,21.36a.47.47,0,0,1-.34-.13.41.41,0,0,1-.14-.31.44.44,0,0,1,.14-.33.52.52,0,0,1,.34-.12.47.47,0,0,1,.34.12.44.44,0,0,1,.14.33.41.41,0,0,1-.14.31A.43.43,0,0,1,133.19,21.36Zm-.35,4.92V22.2h.69v4.08Z"/><path class="cls-3" d="M134.94,26.28V22.2h.57l.06.74h0a1.77,1.77,0,0,1,.51-.61,1,1,0,0,1,.65-.23,1.32,1.32,0,0,1,.44.08l-.14.61h-.39a.89.89,0,0,0-.54.21,1.81,1.81,0,0,0-.49.73v2.62Z"/><path class="cls-3" d="M139.18,26.38a2.15,2.15,0,0,1-.83-.16,2.39,2.39,0,0,1-.69-.4l.34-.46a3.94,3.94,0,0,0,.55.35,1.62,1.62,0,0,0,.65.14.94.94,0,0,0,.61-.19.59.59,0,0,0,.2-.45.54.54,0,0,0-.08-.28.7.7,0,0,0-.22-.2,1.08,1.08,0,0,0-.3-.16l-.33-.13-.44-.18a1.9,1.9,0,0,1-.39-.23,1.12,1.12,0,0,1-.28-.33,1,1,0,0,1-.11-.44,1,1,0,0,1,.1-.46,1,1,0,0,1,.27-.37,1.26,1.26,0,0,1,.44-.24,2,2,0,0,1,.59-.09,1.94,1.94,0,0,1,.71.13,2.12,2.12,0,0,1,.56.33l-.33.44a2.34,2.34,0,0,0-.43-.26,1.24,1.24,0,0,0-.5-.1.79.79,0,0,0-.57.17.6.6,0,0,0-.18.42.41.41,0,0,0,.08.24.9.9,0,0,0,.2.19,1.55,1.55,0,0,0,.29.14l.34.13.44.18a2,2,0,0,1,.4.23,1.05,1.05,0,0,1,.29.34.93.93,0,0,1,.11.49,1.27,1.27,0,0,1-.09.47,1.33,1.33,0,0,1-.29.38,1.47,1.47,0,0,1-.47.27A2.3,2.3,0,0,1,139.18,26.38Z"/><path class="cls-3" d="M143.18,26.38a1.28,1.28,0,0,1-.55-.1,1,1,0,0,1-.36-.27,1,1,0,0,1-.2-.43A2.6,2.6,0,0,1,142,25V22.76h-.6v-.52H142l.09-1.14h.58v1.14h1.1v.56h-1.1v2.27a.94.94,0,0,0,.14.59.54.54,0,0,0,.49.2h.23l.23-.08.13.52-.36.11A2.56,2.56,0,0,1,143.18,26.38Z"/><path class="cls-3" d="M146.49,26.28V20.77h.7v4.92h2.41v.59Z"/><path class="cls-3" d="M151,21.36a.47.47,0,0,1-.34-.13.41.41,0,0,1-.14-.31.44.44,0,0,1,.14-.33.54.54,0,0,1,.68,0,.44.44,0,0,1,.14.33.41.41,0,0,1-.14.31A.47.47,0,0,1,151,21.36Zm-.35,4.92V22.2h.69v4.08Z"/><path class="cls-3" d="M152.86,26.28V22.2h.57l.06.59h0a3,3,0,0,1,.62-.49,1.34,1.34,0,0,1,.75-.2,1.1,1.1,0,0,1,1,.4,2,2,0,0,1,.29,1.2v2.58h-.69V23.79a1.54,1.54,0,0,0-.18-.84.67.67,0,0,0-.59-.25,1,1,0,0,0-.56.16,3.58,3.58,0,0,0-.56.47v3Z"/><path class="cls-3" d="M159.25,26.38a2.28,2.28,0,0,1-.77-.14,1.89,1.89,0,0,1-.62-.42,1.81,1.81,0,0,1-.42-.67,2.5,2.5,0,0,1-.15-.9,2.31,2.31,0,0,1,.16-.9,2.06,2.06,0,0,1,.41-.68,1.73,1.73,0,0,1,.58-.42,1.6,1.6,0,0,1,.68-.15,1.8,1.8,0,0,1,.69.13,1.43,1.43,0,0,1,.52.39,1.76,1.76,0,0,1,.31.61,2.65,2.65,0,0,1,.11.79v.39H158a1.57,1.57,0,0,0,.41,1,1.25,1.25,0,0,0,1,.38,1.65,1.65,0,0,0,.54-.09,2.12,2.12,0,0,0,.48-.23l.24.45a3.27,3.27,0,0,1-.59.3A2.15,2.15,0,0,1,159.25,26.38ZM158,23.91h2.19a1.42,1.42,0,0,0-.27-.94.88.88,0,0,0-.74-.32,1,1,0,0,0-.42.08,1.07,1.07,0,0,0-.35.25,1.23,1.23,0,0,0-.27.4A2,2,0,0,0,158,23.91Z"/><path class="cls-3" d="M165,26.38a1.63,1.63,0,0,1-.72-.14,1.65,1.65,0,0,1-.6-.41,2.09,2.09,0,0,1-.42-.68,2.5,2.5,0,0,1-.15-.9,2.56,2.56,0,0,1,.15-.91,2.09,2.09,0,0,1,.42-.68,1.81,1.81,0,0,1,.6-.42,1.87,1.87,0,0,1,1.43,0,1.81,1.81,0,0,1,.6.42,2.09,2.09,0,0,1,.42.68,2.57,2.57,0,0,1,.16.91,2.51,2.51,0,0,1-.16.9,2.09,2.09,0,0,1-.42.68,1.65,1.65,0,0,1-.6.41A1.73,1.73,0,0,1,165,26.38Zm0-.57a1.12,1.12,0,0,0,.47-.11,1.18,1.18,0,0,0,.38-.32,1.59,1.59,0,0,0,.24-.49,2.6,2.6,0,0,0,0-1.28,1.54,1.54,0,0,0-.24-.5,1.1,1.1,0,0,0-.38-.33,1,1,0,0,0-.47-.11,1.13,1.13,0,0,0-.48.11,1.1,1.1,0,0,0-.38.33,1.54,1.54,0,0,0-.24.5,2.6,2.6,0,0,0,0,1.28,1.59,1.59,0,0,0,.24.49,1.18,1.18,0,0,0,.38.32A1.13,1.13,0,0,0,165,25.81Z"/><path class="cls-3" d="M168.18,26.28V22.76h-.55v-.52h.55v-.65a1.55,1.55,0,0,1,.29-1,1.79,1.79,0,0,1,1.27-.36,1.19,1.19,0,0,1,.32.1l-.16.53a1,1,0,0,0-.46-.11c-.38,0-.57.27-.57.79v.65h.87v.56h-.87v3.52Z"/><path class="cls-3" d="M108.17,39.78v-3.2l-2.48-5.1h1.12l1.07,2.33c.14.3.27.6.39.89l.4.91h.06l.42-.91c.15-.29.28-.59.41-.89l1.06-2.33h1.09l-2.48,5.06v3.2Z"/><path class="cls-3" d="M114.58,39.93a2.8,2.8,0,0,1-1.07-.21,2.55,2.55,0,0,1-.9-.62,3.26,3.26,0,0,1-.63-1,4.09,4.09,0,0,1,0-2.72,3.26,3.26,0,0,1,.63-1,2.71,2.71,0,0,1,3.84-.16l.16.16a3.26,3.26,0,0,1,.63,1,4.09,4.09,0,0,1,0,2.72,3.26,3.26,0,0,1-.63,1,2.55,2.55,0,0,1-.9.62A2.74,2.74,0,0,1,114.58,39.93Zm0-.85a1.62,1.62,0,0,0,.72-.17,1.73,1.73,0,0,0,.56-.48,2,2,0,0,0,.36-.74,3.91,3.91,0,0,0,0-2,2.08,2.08,0,0,0-.36-.75,1.53,1.53,0,0,0-.56-.48,1.39,1.39,0,0,0-.72-.17,1.36,1.36,0,0,0-.71.17,1.53,1.53,0,0,0-.56.48,2.08,2.08,0,0,0-.36.75,3.91,3.91,0,0,0,0,2,2,2,0,0,0,.36.74,1.73,1.73,0,0,0,.56.48A1.58,1.58,0,0,0,114.58,39.08Z"/><path class="cls-3" d="M120.79,39.93a1.67,1.67,0,0,1-1.43-.6,3.05,3.05,0,0,1-.45-1.79V33.66h1V37.4a2.3,2.3,0,0,0,.27,1.26,1,1,0,0,0,.88.38,1.41,1.41,0,0,0,.84-.25,3.75,3.75,0,0,0,.81-.78V33.66h1v6.12h-.85l-.09-1h0a4,4,0,0,1-.9.8A2,2,0,0,1,120.79,39.93Z"/><path class="cls-3" d="M125.86,39.78V33.66h.86l.09,1.11h0a2.7,2.7,0,0,1,.76-.92,1.52,1.52,0,0,1,1-.34,1.65,1.65,0,0,1,.66.12l-.2.91-.28-.07h-.31a1.44,1.44,0,0,0-.82.32,2.45,2.45,0,0,0-.73,1.09v3.93Z"/><path class="cls-3" d="M132.88,39.78v-8.3H135a3.79,3.79,0,0,1,2.91,1.06,4.25,4.25,0,0,1,1,3,5.51,5.51,0,0,1-.25,1.76,3.56,3.56,0,0,1-.74,1.31,3.25,3.25,0,0,1-1.21.82,4.44,4.44,0,0,1-1.65.28Zm1.05-.85h.94a2.66,2.66,0,0,0,2.17-.87,3.65,3.65,0,0,0,.73-2.45,3.52,3.52,0,0,0-.73-2.4,2.72,2.72,0,0,0-2.17-.84h-.94Z"/><path class="cls-3" d="M143,39.93a3,3,0,0,1-1.15-.22,2.56,2.56,0,0,1-.93-.63,2.75,2.75,0,0,1-.62-1,4.08,4.08,0,0,1,0-2.7,3.05,3.05,0,0,1,.62-1,2.73,2.73,0,0,1,.87-.64,2.43,2.43,0,0,1,1-.22,2.66,2.66,0,0,1,1,.2,2,2,0,0,1,.76.58,2.66,2.66,0,0,1,.48.91,4.25,4.25,0,0,1,.16,1.18v.32a1.22,1.22,0,0,1,0,.27h-4.13a2.32,2.32,0,0,0,.61,1.56,1.9,1.9,0,0,0,1.43.57,2.45,2.45,0,0,0,.81-.13,3.13,3.13,0,0,0,.71-.35l.37.68a5,5,0,0,1-.89.45A3.16,3.16,0,0,1,143,39.93Zm-1.92-3.7h3.27a2.25,2.25,0,0,0-.39-1.42,1.37,1.37,0,0,0-1.12-.48,1.67,1.67,0,0,0-.62.12,1.71,1.71,0,0,0-.54.38,2,2,0,0,0-.4.59,2.8,2.8,0,0,0-.18.81Z"/><path class="cls-3" d="M146.8,42.37V33.66h.86l.09.71h0a4.26,4.26,0,0,1,.91-.61,2.18,2.18,0,0,1,1-.25,2.28,2.28,0,0,1,1,.22,2.08,2.08,0,0,1,.75.63,2.85,2.85,0,0,1,.46,1,4.66,4.66,0,0,1,.16,1.29,4.14,4.14,0,0,1-.22,1.4,3.32,3.32,0,0,1-.57,1,2.36,2.36,0,0,1-.85.65,2.28,2.28,0,0,1-1,.22,2.09,2.09,0,0,1-.85-.18,4.61,4.61,0,0,1-.85-.52v3.14Zm2.54-3.31a1.56,1.56,0,0,0,.7-.16,1.94,1.94,0,0,0,.55-.48,2.2,2.2,0,0,0,.37-.77,3.76,3.76,0,0,0,.13-1,4.7,4.7,0,0,0-.09-.92,2.29,2.29,0,0,0-.28-.71,1.33,1.33,0,0,0-.51-.46,1.46,1.46,0,0,0-.74-.16,1.66,1.66,0,0,0-.78.21,4.31,4.31,0,0,0-.85.62v3.21a2.76,2.76,0,0,0,.8.5A2.06,2.06,0,0,0,149.34,39.06Z"/><path class="cls-3" d="M155.22,39.93a1.93,1.93,0,0,1-1.28-.45,1.63,1.63,0,0,1-.51-1.28,1.69,1.69,0,0,1,.9-1.55,7.54,7.54,0,0,1,2.86-.75,2.6,2.6,0,0,0-.06-.56,1.28,1.28,0,0,0-.2-.5,1.12,1.12,0,0,0-.38-.34,1.22,1.22,0,0,0-.62-.13,2.29,2.29,0,0,0-1,.2,4.44,4.44,0,0,0-.83.45l-.4-.72a6.38,6.38,0,0,1,1-.53,3.33,3.33,0,0,1,1.36-.26,1.9,1.9,0,0,1,1.63.69,3,3,0,0,1,.5,1.83v3.75h-.85l-.09-.73h0a5.05,5.05,0,0,1-.95.63A2.38,2.38,0,0,1,155.22,39.93Zm.3-.83a1.85,1.85,0,0,0,.83-.2,4.24,4.24,0,0,0,.84-.62v-1.7a9.59,9.59,0,0,0-1.3.24,3.19,3.19,0,0,0-.84.33,1.29,1.29,0,0,0-.47.43,1.14,1.14,0,0,0-.14.54.88.88,0,0,0,.31.76A1.33,1.33,0,0,0,155.52,39.1Z"/><path class="cls-3" d="M160.17,39.78V33.66H161l.09,1.11h0a2.85,2.85,0,0,1,.77-.92,1.52,1.52,0,0,1,1-.34,1.65,1.65,0,0,1,.66.12l-.2.91-.28-.07h-.32a1.41,1.41,0,0,0-.81.32,2.45,2.45,0,0,0-.73,1.09v3.93Z"/><path class="cls-3" d="M167,39.93a2,2,0,0,1-.83-.15,1.44,1.44,0,0,1-.54-.41,1.55,1.55,0,0,1-.3-.65,3.29,3.29,0,0,1-.08-.83V34.48h-.91V33.7l1-.06.12-1.71h.87v1.71H168v.84h-1.65v3.41a1.48,1.48,0,0,0,.21.87.81.81,0,0,0,.74.31h.35L168,39l.2.78c-.17.06-.35.11-.55.16A3.22,3.22,0,0,1,167,39.93Z"/><path class="cls-3" d="M169.32,39.78V33.66h.85l.09.88h0a4.73,4.73,0,0,1,.87-.74,2.07,2.07,0,0,1,1-.29,1.67,1.67,0,0,1,1.1.31,1.72,1.72,0,0,1,.59.86,5.42,5.42,0,0,1,1-.85,1.89,1.89,0,0,1,1.06-.32,1.64,1.64,0,0,1,1.4.6,3,3,0,0,1,.46,1.79v3.88h-1V36a2.18,2.18,0,0,0-.28-1.25,1,1,0,0,0-.86-.39,2.27,2.27,0,0,0-1.53,1v4.43h-1V36.09a2.1,2.1,0,0,0-.28-1.25,1,1,0,0,0-.86-.39,2.25,2.25,0,0,0-1.54,1v4.43Z"/><path class="cls-3" d="M182.28,39.93a3,3,0,0,1-1.15-.22,2.51,2.51,0,0,1-.94-.63,3.05,3.05,0,0,1-.62-1,3.65,3.65,0,0,1-.23-1.35,3.47,3.47,0,0,1,.24-1.35,3,3,0,0,1,.61-1,2.77,2.77,0,0,1,.88-.64,2.43,2.43,0,0,1,1-.22,2.66,2.66,0,0,1,1,.2,2.09,2.09,0,0,1,.77.58,2.81,2.81,0,0,1,.47.91,3.92,3.92,0,0,1,.17,1.18V37h-4.13a2.32,2.32,0,0,0,.61,1.56,1.9,1.9,0,0,0,1.43.57,2.45,2.45,0,0,0,.81-.13,3.61,3.61,0,0,0,.71-.35l.37.68a5.4,5.4,0,0,1-.9.45A3.16,3.16,0,0,1,182.28,39.93Zm-1.93-3.7h3.28a2.17,2.17,0,0,0-.4-1.42,1.35,1.35,0,0,0-1.11-.48,1.5,1.5,0,0,0-1.16.5,2,2,0,0,0-.4.59A2.85,2.85,0,0,0,180.35,36.23Z"/><path class="cls-3" d="M186.09,39.78V33.66h.85l.09.88h0a5.13,5.13,0,0,1,.93-.74,2.11,2.11,0,0,1,1.12-.29,1.66,1.66,0,0,1,1.42.6A3,3,0,0,1,191,35.9v3.88h-1V36a2.19,2.19,0,0,0-.27-1.25,1,1,0,0,0-.89-.39,1.47,1.47,0,0,0-.84.24,5.65,5.65,0,0,0-.83.71v4.43Z"/><path class="cls-3" d="M194.94,39.93a1.93,1.93,0,0,1-.82-.15,1.37,1.37,0,0,1-.54-.41,1.55,1.55,0,0,1-.3-.65,3.84,3.84,0,0,1-.09-.83V34.48h-.9V33.7l1-.06.13-1.71h.87v1.71h1.65v.84h-1.65v3.41a1.48,1.48,0,0,0,.21.87.8.8,0,0,0,.73.31h.36l.34-.11.2.78c-.17.06-.35.11-.55.16A3.43,3.43,0,0,1,194.94,39.93Z"/><path class="cls-3" d="M199.88,39.78v-8.3H201l3,5.19.9,1.71h0c0-.42-.06-.85-.08-1.3s0-.89,0-1.33V31.48h1v8.26h-1.09l-3-5.2-.89-1.7h0c0,.42.06.84.09,1.28s0,.86,0,1.3v4.32Z"/><path class="cls-3" d="M209.23,39.93a1.9,1.9,0,0,1-1.23-.45,1.63,1.63,0,0,1-.51-1.28,1.69,1.69,0,0,1,.9-1.55,7.54,7.54,0,0,1,2.86-.75,2.6,2.6,0,0,0-.06-.56,1.44,1.44,0,0,0-.19-.5,1.16,1.16,0,0,0-.39-.34,1.22,1.22,0,0,0-.62-.13,2.29,2.29,0,0,0-1,.2,4.44,4.44,0,0,0-.83.45l-.4-.72a6.38,6.38,0,0,1,1-.53,3.33,3.33,0,0,1,1.36-.26,1.9,1.9,0,0,1,1.63.69,3,3,0,0,1,.5,1.83v3.75h-.85l-.09-.73h0a5.93,5.93,0,0,1-.94.63A2.37,2.37,0,0,1,209.23,39.93Zm.3-.83a1.89,1.89,0,0,0,.84-.2,4.18,4.18,0,0,0,.83-.62v-1.7a9.45,9.45,0,0,0-1.29.24,3.26,3.26,0,0,0-.85.33,1.29,1.29,0,0,0-.47.43,1.14,1.14,0,0,0-.14.54.92.92,0,0,0,.32.76A1.28,1.28,0,0,0,209.53,39.1Z"/><path class="cls-3" d="M214.19,39.78V33.66h.86l.09.88h0a4.8,4.8,0,0,1,.88-.74,2.07,2.07,0,0,1,1-.29,1.58,1.58,0,0,1,1.68,1.17,4.79,4.79,0,0,1,1-.85,1.88,1.88,0,0,1,1.05-.32,1.67,1.67,0,0,1,1.41.6,3,3,0,0,1,.46,1.79v3.88h-1V36a2.1,2.1,0,0,0-.28-1.25,1,1,0,0,0-.85-.39,2.29,2.29,0,0,0-1.54,1v4.43h-1V36.09a2.18,2.18,0,0,0-.28-1.25,1,1,0,0,0-.87-.39,2.32,2.32,0,0,0-1.54,1v4.43Z"/><path class="cls-3" d="M227.17,39.93a3,3,0,0,1-1.15-.22,2.51,2.51,0,0,1-.94-.63,3.05,3.05,0,0,1-.62-1,3.65,3.65,0,0,1-.23-1.35,3.47,3.47,0,0,1,.24-1.35,3,3,0,0,1,.61-1,2.77,2.77,0,0,1,.88-.64,2.43,2.43,0,0,1,1-.22,2.66,2.66,0,0,1,1,.2,2.09,2.09,0,0,1,.77.58,2.81,2.81,0,0,1,.47.91,3.91,3.91,0,0,1,.16,1.18V37h-4.14a2.44,2.44,0,0,0,.61,1.56,1.91,1.91,0,0,0,1.43.57,2.51,2.51,0,0,0,.82-.13,3.61,3.61,0,0,0,.71-.35l.36.68a5,5,0,0,1-.89.45A3.11,3.11,0,0,1,227.17,39.93Zm-1.93-3.7h3.28a2.23,2.23,0,0,0-.4-1.42,1.37,1.37,0,0,0-1.12-.48,1.5,1.5,0,0,0-1.15.5,2,2,0,0,0-.4.59A2.55,2.55,0,0,0,225.24,36.23Z"/></svg>