<svg id="Layer_1" data-name="Layer 1" xmlns="http://www.w3.org/2000/svg" viewBox="0 0 240 60"><defs><style>.cls-1{fill:none;stroke:#231f20;stroke-miterlimit:10;stroke-width:0.72px;}.cls-2{fill:#a90533;}.cls-3{fill:#231f20;}</style></defs><line class="cls-1" x1="112.52" y1="41.12" x2="112.52" y2="18.69"/><path class="cls-2" d="M46.78,35.16a13.44,13.44,0,0,0-2.48.93,1.9,1.9,0,0,0-1,1.78,1.51,1.51,0,0,0,1.34,1.66,1.09,1.09,0,0,0,.36,0A3,3,0,0,0,46.78,39Zm-2.71,6c-3.06,0-3.3-2.33-3.3-3a3,3,0,0,1,2.18-3c2-.74,2.44-.83,3.83-1.26v-.36a3.3,3.3,0,0,0-.13-1.25A2,2,0,0,0,44.57,31a2.47,2.47,0,0,0-2.16,1.18l-.12.22-.57-.33.06-.18a3.78,3.78,0,0,1,3.81-2.37,3.51,3.51,0,0,1,3.24,1.41,5.81,5.81,0,0,1,.51,2.93v4.37c0,.8.13,1.42.79,1.42a.54.54,0,0,0,.37-.11l.19-.16.37.43-.13.16a2.71,2.71,0,0,1-2.23,1.26A1.63,1.63,0,0,1,47,40.07,3.81,3.81,0,0,1,44.07,41.16Z"/><path class="cls-2" d="M25.35,41.09a11.53,11.53,0,0,1-3.73-.53l-.16-.06v-.82a15.27,15.27,0,0,0-.05-1.87v-.57h.67v.24a2.33,2.33,0,0,0,.51,1.36,3.78,3.78,0,0,0,2.62.87c2.15,0,3.15-.81,3.15-2.56,0-1.5-.92-2.12-2.2-3L26,34l-1.35-.9c-1.88-1.25-2.84-2.24-2.84-4.24,0-1,.37-4.15,5.11-4.15a24.28,24.28,0,0,1,3.51.26h.2v3.31H30v-.13a2,2,0,0,0-.55-1.37,3.85,3.85,0,0,0-2.53-.67c-2.51,0-2.81,1.29-2.81,2.26,0,1.33.69,1.78,2.18,2.77L28,32.24c1.46,1,2.83,1.89,2.83,4.31,0,4.1-3.82,4.54-5.46,4.54Z"/><path class="cls-2" d="M36.58,41.16c-1.75,0-2.72-.62-3.15-2a9.88,9.88,0,0,1-.18-2.3v-5.7H31.81v-.45l.14-.06a4.44,4.44,0,0,0,1.27-.72,8,8,0,0,0,1.85-2.28l.25-.43h.5v2.54h3.85v1.4H35.82v5.93c0,1.77.33,2.79,2,2.79a3.27,3.27,0,0,0,1.38-.31l.23-.12.2.46-.1.11a3.72,3.72,0,0,1-3,1.18Z"/><path class="cls-2" d="M52,41v-.54h.22a1.52,1.52,0,0,0,1-.47c.35-.39.37-1.36.37-3.28V33.5a5.23,5.23,0,0,0-.22-2.29,1.37,1.37,0,0,0-1-.39h-.31v-.66h.43a11.22,11.22,0,0,0,2-.21,4.08,4.08,0,0,0,1.19-.4l.13-.06.22.13v.9a5.48,5.48,0,0,1,3.28-1.09,3.48,3.48,0,0,1,3.74,2.68,11.16,11.16,0,0,1,.15,2v3.3c0,1.87.07,2.39.43,2.72a1.53,1.53,0,0,0,.87.31h.22V41h-.56c-.81,0-1.51-.08-2.24-.08s-1.56,0-2.57.09h-.26v-.52h.21a1.61,1.61,0,0,0,.93-.39c.37-.36.39-1.23.42-2V35.68c0-.86,0-1.73-.09-2.59a2.13,2.13,0,0,0-2.1-2.16l-.3,0a4.3,4.3,0,0,0-2.11.48v5.93c0,1.87.07,2.39.42,2.72a1.57,1.57,0,0,0,.88.31h.22v.53H57c-.79,0-1.47-.08-2.18-.08s-1.58,0-2.59.09h-.26Z"/><path class="cls-2" d="M66.05,41v-.55h.22a1.52,1.52,0,0,0,1-.47c.35-.39.37-1.35.37-3.27V31.16H66.17v-.64l.14-.06a5.64,5.64,0,0,0,1.33-.7,18.8,18.8,0,0,1,.17-3c.44-2.34,2-3.52,4.53-3.52a4.61,4.61,0,0,1,2.76.86l.09.07v.24L74.07,26H73.8l-.06-.14a1.93,1.93,0,0,0-1.9-1.33,1.69,1.69,0,0,0-1.14.4c-.49.49-.57,1.22-.57,2.66v2.19h2.51v1.41H70.16v6.27a6.27,6.27,0,0,0,.24,2.51c.32.47,1.28.51,1.56.51h.24v.6H72C70.7,41,69.78,41,69.11,41c-.84,0-1.79,0-2.8.09h-.26Z"/><path class="cls-2" d="M79.19,30.71a2.32,2.32,0,0,0-1.6.52c-.91.76-1.37,2.14-1.37,4.11,0,.76.14,4.56,2.92,4.56a2.36,2.36,0,0,0,1.6-.51c.91-.76,1.37-2.15,1.37-4.12C82.11,34.51,82,30.71,79.19,30.71ZM79,41.21c-3.44,0-5.5-2.15-5.5-5.75,0-2.79,1.5-6,5.74-6,3.45,0,5.51,2.15,5.51,5.74,0,2.8-1.5,6.06-5.75,6.06Z"/><path class="cls-2" d="M85.88,41v-.57h.22a1.47,1.47,0,0,0,1-.47c.35-.39.36-1.32.36-3.24V33.51a5.23,5.23,0,0,0-.22-2.29,1.33,1.33,0,0,0-1-.39h-.31v-.69h.43a11.22,11.22,0,0,0,2-.21,5.17,5.17,0,0,0,1.21-.33l.13-.06.2.11v1a3.74,3.74,0,0,1,2.62-1,2.71,2.71,0,0,1,1.89.63l.08.07v.36l-1,1.74H93L93,32.34a2,2,0,0,0-1.82-.91,2.19,2.19,0,0,0-1.24.36v5.7A5.8,5.8,0,0,0,90.16,40c.32.48,1.27.51,1.56.51H92v.63h-.25c-1.24-.06-2.17-.09-2.83-.09-.84,0-1.8,0-2.81.09h-.26Z"/><path class="cls-2" d="M101,30.79c-2.2,0-3.28,1.5-3.28,4.6,0,1.26.36,4.18,3.64,4.18h.1a3.55,3.55,0,0,0,1.8-.46V31.54A3.21,3.21,0,0,0,101,30.79Zm2.65,10.37-.3-.1v-.9a5.44,5.44,0,0,1-3.16,1.05c-3.1,0-5.11-2.15-5.11-5.48a7.57,7.57,0,0,1,.62-3,5.63,5.63,0,0,1,5.39-3.23,11,11,0,0,1,2.21.22v-2.4a6.25,6.25,0,0,0-.22-2.47,1.32,1.32,0,0,0-1-.38h-.29V24H102s1.36-.11,2.42-.31a8.66,8.66,0,0,0,1.12-.26h.11l.19.11v.11c-.07.93-.08,2.93-.08,4.42v9.21a6.59,6.59,0,0,0,.21,2.5,1.31,1.31,0,0,0,1,.42h.3v.61h-.23a18,18,0,0,0-2.2.23,5.64,5.64,0,0,0-1.15.26l-.1.05Z"/><path class="cls-3" d="M119.25,27.61v-3.2l-2.49-5.07h1.12L119,21.67l.39.9c.12.29.26.59.4.9h0c.14-.31.28-.61.43-.9s.27-.6.4-.9l1.06-2.33h1.1l-2.49,5.07v3.2Z"/><path class="cls-3" d="M125.66,27.76a2.74,2.74,0,0,1-2-.84,3.05,3.05,0,0,1-.62-1,3.47,3.47,0,0,1-.24-1.35A3.57,3.57,0,0,1,123,23.2a3.05,3.05,0,0,1,.62-1,2.57,2.57,0,0,1,.9-.63,2.79,2.79,0,0,1,2.16,0,2.57,2.57,0,0,1,.9.63,3.05,3.05,0,0,1,.62,1,3.76,3.76,0,0,1,.23,1.37,3.65,3.65,0,0,1-.23,1.35,3.05,3.05,0,0,1-.62,1,2.74,2.74,0,0,1-2,.84Zm0-.86a1.39,1.39,0,0,0,.72-.17,1.61,1.61,0,0,0,.56-.48,2.49,2.49,0,0,0,.36-.73,4.23,4.23,0,0,0,0-2,2.6,2.6,0,0,0-.36-.75,1.57,1.57,0,0,0-2.21-.35,1.45,1.45,0,0,0-.35.35,2.08,2.08,0,0,0-.36.75,3.91,3.91,0,0,0,0,2,2.08,2.08,0,0,0,.36.73,1.61,1.61,0,0,0,.56.48A1.39,1.39,0,0,0,125.66,26.9Z"/><path class="cls-3" d="M131.86,27.76a1.65,1.65,0,0,1-1.43-.61,3,3,0,0,1-.45-1.79V21.48h1v3.75a2.27,2.27,0,0,0,.27,1.25,1,1,0,0,0,.88.38,1.47,1.47,0,0,0,.84-.24,4.66,4.66,0,0,0,.81-.79V21.48h1v6.13H134l-.09-1h0a4.35,4.35,0,0,1-.9.81A2.12,2.12,0,0,1,131.86,27.76Z"/><path class="cls-3" d="M136.94,27.61V21.48h.85l.09,1.11h0a3.07,3.07,0,0,1,.76-.92,1.68,1.68,0,0,1,1.66-.21l-.21.91-.27-.08h-.32a1.41,1.41,0,0,0-.81.32,2.45,2.45,0,0,0-.74,1.1v3.93Z"/><path class="cls-3" d="M144,27.61V19.34h2a3.77,3.77,0,0,1,2.91,1.06,4.25,4.25,0,0,1,1,3,5.79,5.79,0,0,1-.25,1.75,3.5,3.5,0,0,1-.75,1.31,3.14,3.14,0,0,1-1.21.82,4.45,4.45,0,0,1-1.65.29Zm1-.86h1a2.66,2.66,0,0,0,2.17-.87,3.74,3.74,0,0,0,.72-2.44,3.6,3.6,0,0,0-.72-2.41,2.73,2.73,0,0,0-2.17-.87h-1Z"/><path class="cls-3" d="M154.1,27.76a3.05,3.05,0,0,1-1.15-.22,3,3,0,0,1-.94-.63,3.05,3.05,0,0,1-.62-1,3.65,3.65,0,0,1-.23-1.35,3.52,3.52,0,0,1,.24-1.36,3.2,3.2,0,0,1,.61-1,2.77,2.77,0,0,1,.88-.64,2.49,2.49,0,0,1,2,0,2.09,2.09,0,0,1,.77.58,2.81,2.81,0,0,1,.47.91,4,4,0,0,1,.16,1.19v.59h-4.14a2.47,2.47,0,0,0,.61,1.55,1.89,1.89,0,0,0,1.44.58,2.46,2.46,0,0,0,.81-.14,3.09,3.09,0,0,0,.71-.34l.37.68a6.24,6.24,0,0,1-.9.44A2.9,2.9,0,0,1,154.1,27.76Zm-1.93-3.71h3.28a2.1,2.1,0,0,0-.4-1.41,1.35,1.35,0,0,0-1.11-.49,1.51,1.51,0,0,0-.63.13,1.64,1.64,0,0,0-.53.37,1.86,1.86,0,0,0-.4.6,2.7,2.7,0,0,0-.21.8Z"/><path class="cls-3" d="M157.88,30.16V21.45h.86l.08.71h0a4.32,4.32,0,0,1,.92-.61,2.31,2.31,0,0,1,1-.25,2.54,2.54,0,0,1,1,.22,2.11,2.11,0,0,1,.76.63,3,3,0,0,1,.46,1,5.11,5.11,0,0,1,.15,1.29,4.12,4.12,0,0,1-.21,1.39,3.23,3.23,0,0,1-.58,1,2.39,2.39,0,0,1-1.85.87,2,2,0,0,1-.85-.19,4.12,4.12,0,0,1-.85-.52v3.17Zm2.53-3.3a1.57,1.57,0,0,0,.7-.17,1.61,1.61,0,0,0,.56-.48,2.65,2.65,0,0,0,.36-.76,3.76,3.76,0,0,0,.13-1,4.7,4.7,0,0,0-.09-.92,1.82,1.82,0,0,0-.28-.71,1.3,1.3,0,0,0-.5-.46,1.47,1.47,0,0,0-.74-.17,1.57,1.57,0,0,0-.79.22,4.26,4.26,0,0,0-.85.61v3.22a2.78,2.78,0,0,0,.81.49,2,2,0,0,0,.69.16Z"/><path class="cls-3" d="M166.3,27.76a1.81,1.81,0,0,1-1.28-.45,1.65,1.65,0,0,1-.51-1.29,1.68,1.68,0,0,1,.89-1.54,7.31,7.31,0,0,1,2.86-.75,2.71,2.71,0,0,0,0-.57,1.49,1.49,0,0,0-.2-.49,1,1,0,0,0-.39-.35,1.3,1.3,0,0,0-.67-.16,2.66,2.66,0,0,0-1,.2,6.78,6.78,0,0,0-.84.45l-.4-.71a6.43,6.43,0,0,1,1-.54,3.5,3.5,0,0,1,1.36-.26,1.85,1.85,0,0,1,1.62.69,3,3,0,0,1,.51,1.83v3.76h-.86l-.09-.73h0a4.93,4.93,0,0,1-.94.62A2.34,2.34,0,0,1,166.3,27.76Zm.3-.83a1.71,1.71,0,0,0,.83-.21,4.13,4.13,0,0,0,.83-.61v-1.7a9.17,9.17,0,0,0-1.29.24,3.55,3.55,0,0,0-.84.32,1.32,1.32,0,0,0-.47.44,1,1,0,0,0-.15.53.86.86,0,0,0,.32.76A1.27,1.27,0,0,0,166.6,26.93Z"/><path class="cls-3" d="M171.25,27.61V21.48h.85l.09,1.11h0a3,3,0,0,1,.76-.92,1.65,1.65,0,0,1,1-.34,1.46,1.46,0,0,1,.65.13l-.2.91-.27-.08h-.32a1.41,1.41,0,0,0-.81.32,2.45,2.45,0,0,0-.74,1.1v3.93Z"/><path class="cls-3" d="M178,27.76a1.93,1.93,0,0,1-.82-.15,1.35,1.35,0,0,1-.55-.42,1.69,1.69,0,0,1-.29-.64,3.84,3.84,0,0,1-.09-.83V22.33h-.91v-.78l1-.07.13-1.71h.87v1.71H179v.85h-1.65v3.4a1.59,1.59,0,0,0,.2.88.84.84,0,0,0,.74.3,1,1,0,0,0,.35,0,1.93,1.93,0,0,0,.34-.11l.2.78c-.16.06-.35.11-.54.16A2.74,2.74,0,0,1,178,27.76Z"/><path class="cls-3" d="M180.42,27.61V21.48h.86l.09.89h0a4.73,4.73,0,0,1,.87-.74,1.89,1.89,0,0,1,1-.3,1.61,1.61,0,0,1,1.69,1.17,5.42,5.42,0,0,1,1-.85,1.88,1.88,0,0,1,1-.32,1.66,1.66,0,0,1,1.41.61,3,3,0,0,1,.46,1.79v3.88h-1V23.87a2.29,2.29,0,0,0-.28-1.26,1,1,0,0,0-.86-.38,2.29,2.29,0,0,0-1.54.94v4.44h-1V23.87a2.13,2.13,0,0,0-.28-1.26,1,1,0,0,0-.87-.38,2.27,2.27,0,0,0-1.53.94v4.44Z"/><path class="cls-3" d="M193.42,27.76a3.07,3.07,0,0,1-1.16-.22,2.69,2.69,0,0,1-.93-.63,2.89,2.89,0,0,1-.62-1,3.65,3.65,0,0,1-.23-1.35,3.74,3.74,0,0,1,.23-1.36,3.05,3.05,0,0,1,.62-1,2.77,2.77,0,0,1,.88-.64,2.47,2.47,0,0,1,1-.22,2.66,2.66,0,0,1,1,.2,2.06,2.06,0,0,1,.76.58,2.66,2.66,0,0,1,.48.91,4,4,0,0,1,.16,1.19v.32a1.22,1.22,0,0,1,0,.27H191.5a2.41,2.41,0,0,0,.61,1.55,1.87,1.87,0,0,0,1.43.58,2.46,2.46,0,0,0,.81-.14,3.38,3.38,0,0,0,.72-.34l.36.68a5.66,5.66,0,0,1-.89.44A3.06,3.06,0,0,1,193.42,27.76Zm-1.93-3.71h3.27a2.15,2.15,0,0,0-.39-1.41,1.37,1.37,0,0,0-1.12-.49,1.47,1.47,0,0,0-.62.13,1.68,1.68,0,0,0-.54.37,1.83,1.83,0,0,0-.39.6A2.21,2.21,0,0,0,191.49,24.05Z"/><path class="cls-3" d="M197.25,27.61V21.48h.85l.09.89h0a5.06,5.06,0,0,1,.92-.74,2.13,2.13,0,0,1,1.13-.3,1.62,1.62,0,0,1,1.42.61,3,3,0,0,1,.45,1.79v3.88h-1V23.87a2.3,2.3,0,0,0-.27-1.26,1,1,0,0,0-.89-.38,1.47,1.47,0,0,0-.84.24,5.59,5.59,0,0,0-.83.7v4.44Z"/><path class="cls-3" d="M206,27.76a2,2,0,0,1-.83-.15,1.39,1.39,0,0,1-.54-.42,1.57,1.57,0,0,1-.3-.64,3.29,3.29,0,0,1-.08-.83V22.33h-.91v-.78l1-.07.12-1.71h.87v1.71H207v.85h-1.65v3.4a1.59,1.59,0,0,0,.21.88.84.84,0,0,0,.74.3,1,1,0,0,0,.35,0,1.93,1.93,0,0,0,.34-.11l.2.78c-.17.06-.35.11-.55.16A2.56,2.56,0,0,1,206,27.76Z"/><path class="cls-3" d="M117.91,41.16V32.89H119l3,5.19.89,1.72h0a7.37,7.37,0,0,0-.08-1.31,7.39,7.39,0,0,1,0-1.33V32.89h1v8.27h-1.08l-3-5.21-.89-1.7h0l.09,1.28v5.63Z"/><path class="cls-3" d="M127.26,41.26a1.88,1.88,0,0,1-1.28-.45,1.65,1.65,0,0,1-.51-1.29,1.69,1.69,0,0,1,.89-1.54,7.31,7.31,0,0,1,2.86-.75,2.75,2.75,0,0,0-.05-.57,1.49,1.49,0,0,0-.2-.49,1.06,1.06,0,0,0-.38-.35,1.37,1.37,0,0,0-.63-.13,2.66,2.66,0,0,0-1,.2,6,6,0,0,0-.83.45l-.41-.71a6.43,6.43,0,0,1,1-.54,3.5,3.5,0,0,1,1.36-.26,1.9,1.9,0,0,1,1.63.69,3,3,0,0,1,.5,1.83v3.81h-.86l-.08-.73h0a5,5,0,0,1-1,.62A2.42,2.42,0,0,1,127.26,41.26Zm.3-.83a1.71,1.71,0,0,0,.83-.21,4.13,4.13,0,0,0,.83-.61v-1.7a9.17,9.17,0,0,0-1.29.24,3.55,3.55,0,0,0-.84.32,1.41,1.41,0,0,0-.47.44,1.08,1.08,0,0,0-.14.53.85.85,0,0,0,.31.76A1.27,1.27,0,0,0,127.56,40.43Z"/><path class="cls-3" d="M132.23,41.16V35h.85l.09.89h0a3.89,3.89,0,0,1,.88-.74,2,2,0,0,1,2.13,0,1.76,1.76,0,0,1,.58.86,5.42,5.42,0,0,1,1-.85,1.88,1.88,0,0,1,1-.32,1.64,1.64,0,0,1,1.4.61,2.9,2.9,0,0,1,.46,1.79v3.89h-1V37.42a2.13,2.13,0,0,0-.28-1.26,1,1,0,0,0-.86-.38,2.27,2.27,0,0,0-1.53.94v4.44h-1V37.42a2.3,2.3,0,0,0-.27-1.26,1,1,0,0,0-.87-.38,2.29,2.29,0,0,0-1.54.94v4.44Z"/><path class="cls-3" d="M145.19,41.26A3.26,3.26,0,0,1,144,41a2.69,2.69,0,0,1-.93-.63,3.08,3.08,0,0,1-.63-1,3.86,3.86,0,0,1-.22-1.35,3.71,3.71,0,0,1,.23-1.36,3.05,3.05,0,0,1,.62-1,2.53,2.53,0,0,1,2.93-.64,2.09,2.09,0,0,1,.77.58,2.66,2.66,0,0,1,.48.91,4.38,4.38,0,0,1,.16,1.19v.32a1.22,1.22,0,0,1,0,.27h-4.13a2.34,2.34,0,0,0,.61,1.55,1.87,1.87,0,0,0,1.43.58,2.46,2.46,0,0,0,.81-.14,3.09,3.09,0,0,0,.71-.34l.37.68a6.24,6.24,0,0,1-.9.44A3,3,0,0,1,145.19,41.26Zm-1.92-3.71h3.27a2.1,2.1,0,0,0-.4-1.41,1.35,1.35,0,0,0-1.11-.49,1.47,1.47,0,0,0-.62.13,1.68,1.68,0,0,0-.54.37,2,2,0,0,0-.4.6A2.69,2.69,0,0,0,143.27,37.55Z"/><path class="cls-3" d="M153.94,41.26a2.74,2.74,0,0,1-2-.84,3.08,3.08,0,0,1-.63-1,3.65,3.65,0,0,1-.23-1.35,3.76,3.76,0,0,1,.23-1.37,3.08,3.08,0,0,1,.63-1,2.57,2.57,0,0,1,.9-.63,2.68,2.68,0,0,1,1.08-.22,2.74,2.74,0,0,1,2,.85,3.05,3.05,0,0,1,.62,1,3.76,3.76,0,0,1,.23,1.37,3.65,3.65,0,0,1-.23,1.35,3.05,3.05,0,0,1-.62,1A2.68,2.68,0,0,1,155,41,2.63,2.63,0,0,1,153.94,41.26Zm0-.86a1.39,1.39,0,0,0,.72-.17,1.73,1.73,0,0,0,.56-.48,2.49,2.49,0,0,0,.36-.73,4.23,4.23,0,0,0,0-2,2.6,2.6,0,0,0-.36-.75,1.73,1.73,0,0,0-.56-.48,1.59,1.59,0,0,0-1.44,0,1.53,1.53,0,0,0-.56.48,2.08,2.08,0,0,0-.36.75,3.35,3.35,0,0,0-.13,1,3.06,3.06,0,0,0,.13,1,2.08,2.08,0,0,0,.36.73,1.53,1.53,0,0,0,.56.48A1.39,1.39,0,0,0,153.94,40.4Z"/><path class="cls-3" d="M158.42,41.16V35h.86l.09.89h0a5.06,5.06,0,0,1,.92-.74,2.13,2.13,0,0,1,1.13-.3,1.62,1.62,0,0,1,1.42.61,3,3,0,0,1,.44,1.79v3.88h-1V37.42a2.13,2.13,0,0,0-.28-1.26,1,1,0,0,0-.88-.38,1.47,1.47,0,0,0-.84.24,5,5,0,0,0-.83.7v4.44Z"/><path class="cls-3" d="M169.61,41.16V33.77h-2.49v-.88h6v.88h-2.49v7.39Z"/><path class="cls-3" d="M174.65,41.16,173,35H174l.9,3.54c.07.3.13.58.19.86l.18.85h0c.07-.29.13-.57.2-.86s.14-.56.22-.85l.94-3.54h1l1,3.54c.07.3.15.58.22.86s.14.56.2.85h.06c.06-.29.13-.57.18-.85s.13-.56.19-.86l.9-3.54h1l-1.68,6.13h-1.26l-.88-3.29L177.4,37c-.06-.29-.13-.58-.2-.9h-.06c-.06.32-.13.62-.2.91s-.14.58-.22.87l-.86,3.28Z"/><path class="cls-3" d="M185,41.26a2.74,2.74,0,0,1-2-.84,3.05,3.05,0,0,1-.62-1,3.65,3.65,0,0,1-.23-1.35,3.76,3.76,0,0,1,.23-1.37,3.05,3.05,0,0,1,.62-1,2.57,2.57,0,0,1,.9-.63,2.79,2.79,0,0,1,2.16,0,2.57,2.57,0,0,1,.9.63,3.05,3.05,0,0,1,.62,1,3.76,3.76,0,0,1,.23,1.37,3.65,3.65,0,0,1-.23,1.35,3.05,3.05,0,0,1-.62,1,2.74,2.74,0,0,1-2,.84Zm0-.86a1.39,1.39,0,0,0,.72-.17,1.61,1.61,0,0,0,.56-.48,2.49,2.49,0,0,0,.36-.73,4.23,4.23,0,0,0,0-2,2.6,2.6,0,0,0-.36-.75,1.57,1.57,0,0,0-2.21-.35,1.45,1.45,0,0,0-.35.35,2.6,2.6,0,0,0-.36.75,4.23,4.23,0,0,0,0,2,2.49,2.49,0,0,0,.36.73,1.61,1.61,0,0,0,.56.48A1.39,1.39,0,0,0,185,40.4Z"/><path class="cls-3" d="M192.09,41.16V32.89h1v7.37h3.61v.9Z"/><path class="cls-3" d="M198.66,33.72a.69.69,0,0,1-.51-.19.58.58,0,0,1-.21-.47.6.6,0,0,1,.21-.49.81.81,0,0,1,1,0,.6.6,0,0,1,.21.49.58.58,0,0,1-.21.47A.73.73,0,0,1,198.66,33.72Zm-.53,7.39V35h1v6.18Z"/><path class="cls-3" d="M201.24,41.16V35h.86l.09.89h0a5.13,5.13,0,0,1,.93-.74,2.13,2.13,0,0,1,1.13-.3,1.61,1.61,0,0,1,1.41.61,3,3,0,0,1,.45,1.79v3.88h-1V37.42a2.13,2.13,0,0,0-.28-1.26,1,1,0,0,0-.88-.38,1.47,1.47,0,0,0-.84.24,5.12,5.12,0,0,0-.84.7v4.44Z"/><path class="cls-3" d="M210.63,41.26a3.27,3.27,0,0,1-1.16-.22,2.77,2.77,0,0,1-1.55-1.63,4.06,4.06,0,0,1,0-2.71,3.43,3.43,0,0,1,.62-1,2.77,2.77,0,0,1,.88-.64,2.49,2.49,0,0,1,2,0,2.09,2.09,0,0,1,.77.58,2.81,2.81,0,0,1,.47.91,4,4,0,0,1,.16,1.19v.59h-4.14a2.41,2.41,0,0,0,.61,1.55,1.87,1.87,0,0,0,1.43.58,2.52,2.52,0,0,0,.82-.14,3.57,3.57,0,0,0,.71-.34l.36.68a4.91,4.91,0,0,1-.89.44A2.9,2.9,0,0,1,210.63,41.26Zm-1.93-3.71H212a2.22,2.22,0,0,0-.4-1.41,1.37,1.37,0,0,0-1.12-.49,1.5,1.5,0,0,0-.62.13,1.68,1.68,0,0,0-.54.37,2,2,0,0,0-.39.6,2.45,2.45,0,0,0-.23.8Z"/><path class="cls-3" d="M216,41.26a3.35,3.35,0,0,1-1.25-.24,3.94,3.94,0,0,1-1-.61l.52-.69a4,4,0,0,0,.82.53,2.16,2.16,0,0,0,1,.2,1.35,1.35,0,0,0,.91-.28.85.85,0,0,0,.3-.68.67.67,0,0,0-.13-.41,1.18,1.18,0,0,0-.32-.31,1.91,1.91,0,0,0-.45-.23l-.5-.2-.65-.26a2.39,2.39,0,0,1-.59-.36,1.75,1.75,0,0,1-.42-.48,1.31,1.31,0,0,1-.17-.67,1.65,1.65,0,0,1,.15-.69,1.47,1.47,0,0,1,.41-.55,2,2,0,0,1,.66-.37,3,3,0,0,1,2,.07,3.11,3.11,0,0,1,.84.5l-.49.65a2.94,2.94,0,0,0-.66-.39,1.88,1.88,0,0,0-.74-.15,1.18,1.18,0,0,0-.85.26.86.86,0,0,0-.27.62.7.7,0,0,0,.11.37,1,1,0,0,0,.3.28,2,2,0,0,0,.44.21l.51.2.66.26a3,3,0,0,1,.6.35,1.63,1.63,0,0,1,.43.51,1.43,1.43,0,0,1,.17.73,1.73,1.73,0,0,1-.14.71,1.76,1.76,0,0,1-.43.58,2.1,2.1,0,0,1-.7.39A2.94,2.94,0,0,1,216,41.26Z"/></svg>